<?xml version="1.0" encoding="UTF-8"?>
<svg id="Layer_1" xmlns="http://www.w3.org/2000/svg" viewBox="0 0 300 300">
  <defs>
    <style>
      .cls-1 {
        fill: #4fb0ea;
      }
    </style>
  </defs>
  <path class="cls-1" d="M155.76,123.77c-2.28,2.88-5.16,4.5-8.86,4.59-2.82.07-5.65.2-8.47.2-5.81,0-10.55,2.25-14.06,6.83-2.66,3.48-5.67,6.56-9,9.42-3.71,3.18-7.8,4.86-12.7,4.79-6.22-.09-12.45-.07-18.68.01-1.75.02-3.55.25-5.25.67-3.42.85-5.63,3.58-5.99,7.09-.11,1.05-.03,2.15-.35,3.13-.42,1.27-.92,2.65-1.8,3.61-1.95,2.15-4.64,3.14-7.47,3.21-6.65.18-13.31.11-19.96.2-4.01.05-8.08-.16-12.02.43-5.46.81-8.12,6.04-6.17,11.23,1.14,3.06,4.02,4.83,7.18,4.08,1.78-.42,3.52-1.24,5.13-2.15,3.12-1.76,6.38-2.81,9.97-2.81,4.45,0,8.9,0,13.36,0,0-.07,0-.14,0-.21.77,0,1.53,0,2.3,0,4.69.05,9.39-.03,14.07.21,3.95.2,7,2.21,8.95,5.66,1.41,2.49,1.38,5.09-.27,7.47-1.54,2.21-3.88,2.71-6.39,2.29-1.25-.21-2.47-.73-3.66-1.2-2.93-1.14-5.77-3.09-8.77-3.36-6.55-.58-13.19-.59-19.78-.31-4.43.19-7.12,2.88-7.54,7.31-.38,4.11-.12,8.3.16,12.44.25,3.73,2.21,6.77,4.79,9.41.47.48.93.97,1.43,1.41,4.32,3.78,5.76,8.62,5.39,14.21-.21,3.2-.33,6.42,1.17,9.44,1.79,3.6,6.07,4.58,9.21,2.06,2.26-1.8,2.83-4.37,2.96-7.05.1-2.05,0-4.12.05-6.18.05-2.14.52-4.17,1.81-5.95,1.73-2.38,4.86-3.04,7.41-1.54,2.54,1.49,3.63,3.89,3.99,6.65.59,4.5-.4,8.75-2.23,12.85-1.76,3.95-4.74,6.94-7.83,9.81-5.5,5.1-5.86,12.91-3.91,18.33,1.3,3.64,5.11,5.43,8.48,4.05,2.59-1.06,3.88-3.24,4.31-5.87.34-2.07.47-4.19.53-6.29.11-4.15,1.41-7.79,4.23-10.85.65-.7,1.32-1.39,1.97-2.09,2.78-2.98,4.83-6.34,5.19-10.48.2-2.33.16-4.69.19-7.03.11-6.52,3.25-10.64,9.57-12.25,2.03-.52,4.15-.7,6.23-.97,4.64-.61,7.54-3.18,7.96-7.84.38-4.23.45-8.52.18-12.76-.3-4.82-2.81-7.17-7.58-7.92-.71-.11-1.46-.09-2.13-.32-1.65-.57-3.45-.99-4.86-1.95-2.65-1.79-3.36-4.75-2.12-7.32,1.3-2.68,4.36-4.06,7.39-3.17,1.32.39,2.62.93,3.82,1.61,3.92,2.24,7.93,4.13,12.61,3.69,5.27-.5,10.2-2.14,14.77-4.79,2.61-1.51,4.27-3.91,4.56-6.81.42-4.27.58-8.59.4-12.88-.16-3.79-2.35-5.93-6.07-6.87-1.11-.28-2.27-.41-3.36-.74-1-.3-2.03-.64-2.9-1.2-1.71-1.11-2.77-2.75-2.44-4.85.33-2.13,1.95-3.16,3.93-3.44,2.07-.29,4.19-.36,6.28-.45,3.96-.17,8,.15,11.87-.54,6.65-1.18,12.54-4.38,17.84-8.53,2.88-2.26,4.79-5.26,4.7-9.12-.06-2.51-1.06-4.61-3.42-5.73-2.31-1.1-4.57-.65-6.41,1.02-1.44,1.3-2.67,2.86-3.89,4.39ZM99.09,200.52c3.84,2.23,4.32,7.14.77,9.83-1.68,1.27-3.7,2.2-5.7,2.9-4.41,1.52-8.98,2.28-13.66,2.44-3.54.12-7.07.4-11.75.68-2.63-.29-6.43-.48-10.13-1.17-4.49-.84-7.42-3.63-8.37-8.21-.52-2.52.03-4.83,2.13-6.46,1.98-1.53,4.2-1.4,6.38-.37,1.21.57,2.42,1.16,3.56,1.85,4.39,2.67,9.22,3.13,14.22,3.23,5.46.12,9.96-2.25,14.57-4.64,2.55-1.32,5.31-1.64,7.98-.09ZM126.15,161.66c3.73,2.49,4.24,7.23.84,9.8-1.25.95-3.03,1.21-4.29,1.68-2.4-.5-4.39-.81-6.32-1.33-3.88-1.06-7.79-1.21-11.8-1.11-6.31.15-12.63.03-18.93-.16-2.66-.08-5.05-1.1-6.46-3.63-.94-1.67-.53-3.56,1.04-4.69,1.85-1.33,3.96-1.93,6.2-1.99,3.63-.09,7.27-.05,10.9-.09,7.03-.06,14.06-.16,21.09-.19,2.69-.01,5.37.14,7.73,1.71Z"/>
  <path class="cls-1" d="M5.83-4.47c.6-1.82,1.69-3.56,2.89-5.07,1.54-1.94,3.37-3.66,5.14-5.41,3.57-3.51,6.05-7.53,6.2-12.7.03-.86.1-1.72.13-2.58.15-5.53,2.57-9.57,7.64-12.01,1.84-.89,3.75-1.86,5.25-3.2,2.58-2.31,5.08-4.72,7.56-7.15h-13.4c-1.65,1.87-3.91,3.18-6.4,4.24-1.98.84-4,1.62-5.91,2.6-2.68,1.37-4.63,3.51-5.17,6.52-.48,2.67-.71,5.4-.79,8.12-.15,4.95-1.9,9.03-5.88,12.07-.76.58-1.45,1.25-2.19,1.86-1.33,1.1-2.55,2.27-3.57,3.56V20.44c1.81.96,2.52,2.99,2.29,5.32-.2,1.98-1.07,3.49-2.29,4.77v13.02c4.03-4.12,8.05-8.25,12.07-12.38,1.74-1.78,3.59-3.47,5.18-5.37,4.2-5.03,8.26-10.19,12.43-15.24,2.96-3.59,4.68-7.62,4.99-12.28.25-3.81,1.1-7.42,3.31-10.7,2.1-3.13,4.08-6.38,5.67-9.78,2.04-4.36,5.17-6.94,9.88-7.87,4.26-.84,6.93-3.47,7.87-7.77.25-1.12.49-2.25.79-3.36.61-2.31,1.59-4.46,3.38-6.07,2.04-1.84,4.09-3.64,6.25-5.31h-14.51c-1.97,1.61-3.69,3.52-5.07,5.8-2.76,4.56-6.01,8.54-11.2,10.49-.67.25-1.29.63-1.92.97-4.49,2.39-6.3,6.38-6.53,11.22-.21,4.46-1.02,8.67-4.32,11.99-1.04,1.05-2.11,2.09-3.19,3.1C17.62-4.52,14.98.88,15.18,7.56c.04,1.23-.23,2.48-.42,3.7-.25,1.57-1.03,2.85-2.25,3.89-3.29,2.82-8.69,1.35-9.74-2.79-.38-1.5-.61-3.2-.28-4.67C3.41,3.59,4.52-.48,5.83-4.47Z"/>
  <path class="cls-1" d="M213.73,59.51c3.3,2.19,6.77,4.35,8.87,7.84,1.62,2.68,2.9,5.6,4.1,8.51,2.14,5.19,5.27,9.63,9.41,13.41,4.07,3.71,8.94,4.97,14.31,4.88,12.16-.19,24.32-.33,36.48-.52,5.27-.08,10.53-.21,15.8-.35v-11.99c-7.13-.16-14.26-.26-21.4-.45-4.18-.11-8.36-.15-12.4,1.03-5.23,1.53-10.54,1.85-15.93,1.58-3.72-.19-7.38-.64-10.54-2.83-4.36-3.02-6.19-7.38-6.49-12.53-.14-2.29-.16-4.62-.6-6.85-.7-3.6-2.81-6.14-6.49-7.12-1.15-.31-2.33-.53-3.51-.76-4.07-.81-6.69-3.19-7.22-7.32-.41-3.16-.4-6.39-.45-9.59-.06-4.07.1-8.14,0-12.21-.13-5.31-2.76-8.94-7.75-10.79-1.75-.65-3.51-1.29-5.31-1.79-3.18-.88-6.06-2.33-8.68-4.34-1.29-.99-2.61-1.96-4.02-2.75-4.99-2.79-9.94-2.29-13.91,1.45-1.35,1.27-2.66,2.67-3.63,4.23-2.81,4.49-6.03,8.61-9.75,12.38-3.13,3.17-5.26,6.94-5.53,11.54-.09,1.53-.07,3.06-.17,4.59-.12,1.72-.18,3.46-.52,5.13-.63,3.09-2.5,5.1-5.65,5.81-1.07.24-2.14.51-3.23.71-5.44.98-8.07,3.76-8.43,9.27-.21,3.24-.01,6.52-.26,9.76-.18,2.41-.41,4.93-1.26,7.16-1.62,4.22-5.13,6.28-9.53,6.84-4.78.61-9.63.79-14.27-.55-7.35-2.13-14.87-2.07-22.37-2.19-9.05-.14-18.1.2-27.15.14-9.38-.06-18.67-.2-27.95,2.1-6.05,1.5-12.51.91-18.71-.17-5.05-.88-8.67-3.92-10.25-8.82-.79-2.45-1-5.16-1.02-7.76-.07-7.98,6.8-15.76,14.67-16.4,1.48-.12,2.95-.34,4.41-.61,4.47-.8,7.31-3.89,7.7-8.4.14-1.67.16-3.34.22-5.02.19-5.42,2.67-8.51,7.91-9.85,1.02-.26,2.04-.53,3.04-.85,3.38-1.06,5.58-3.28,6.37-6.76.27-1.21.44-2.46.47-3.69.16-5.12.07-10.25.4-15.36.41-6.37,4.93-11.06,11.21-12,2.46-.37,4.96-.48,7.4-.96,3.96-.78,6.56-3.24,7.19-7.24.47-2.96.53-6,.6-9.01.11-5.07,1.96-9.21,6.11-12.23,1.39-1.02,2.77-2.06,4.16-3.08,3.33-2.44,6.67-4.87,9.99-7.32h-15.71c-2.85,2.07-5.65,4.22-8.46,6.34-4.32,3.27-6.82,7.56-7.01,13.07-.03.81-.15,1.62-.3,2.42-.6,3.17-2.26,5.55-5.25,6.9-.92.41-1.86.77-2.76,1.21-2.11,1.01-4.46,1.73-6.26,3.15-7.57,5.97-12.32,13.59-12.38,23.52-.03,5.14-1.67,9.44-5.48,12.93-3.41,3.12-6.25,6.72-8.77,10.6-2.96,4.56-6.44,8.62-10.71,12.08-4.64,3.76-9.05,7.81-13.38,11.93-1.81,1.72-3.42,3.8-4.61,5.99-.94,1.73-1.49,3.52-1.79,5.33v8.82c.07.72.16,1.44.24,2.15.37,3.22,1.73,6.09,3.88,8.51,2,2.25,4.12,4.4,6.27,6.51,3.99,3.91,8.85,5.46,14.39,5.35,8.95-.18,17.91-.28,26.86-.31,10.92-.04,21.84-.06,32.76.05,4.54.05,8.7-.97,12.64-3.2,1.28-.73,2.68-1.29,4.08-1.75,2.84-.93,5.86.19,7.28,2.57,1.44,2.41,1.03,5.08-1.29,7.27-3.88,3.67-8.69,5.19-13.89,5.37-8.23.28-16.46.44-24.7.47-11.06.04-22.12-.11-33.17-.16-6.18-.03-12.35.03-18.53-.08-4.63-.09-8.67-1.72-11.47-5.56-1.67-2.29-3.47-4.46-5.34-6.55v36.6c1.25.88,2.01,2.35,2.1,4.12.14,2.54-.72,4.58-2.1,6.39v14.3c.2-.21.41-.41.62-.62,3.39-3.23,6.68-6.59,9.69-10.17,3.93-4.66,8.63-6.97,14.8-6.69,5.45.25,10.92.06,16.38.02,6.51-.04,11.04-3,12.9-8.58.59-1.76.73-3.66,1.16-5.47.76-3.23,2.59-5.56,5.91-6.37,1.66-.4,3.4-.66,5.1-.66,8.86-.02,17.72,0,26.57.11,5.71.07,10.65-1.62,14.56-5.9,1.49-1.62,2.99-3.23,4.42-4.9,2.49-2.92,5.2-5.71,9.02-6.58,2.99-.68,6.16-.86,9.24-.77,6.05.19,11.02-1.57,14.48-6.76,1.59-2.39,3.14-4.81,4.82-7.14,3.18-4.39,4.91-9.25,5.34-14.65.22-2.73,1.27-5.25,3.2-7.23,2.6-2.68,5.31-5.25,8.02-7.81,3.21-3.03,6.77-5.86,8.04-10.27.85-2.95,1.11-6.09,1.38-9.17.29-3.27.55-6.52,2.27-9.4,3.91-6.57,10.87-9.39,18.42-7.54,5.83,1.44,9.87,5.73,10.45,11.72.43,4.47.46,8.99.39,13.48-.12,7.49,3.1,13.01,9.25,17.09ZM38.76,125c-3.06.44-6.18.45-8.36.6-6.15-.5-11.23.17-16.23,1.73-2.85.89-5.75.91-8.57-.29-2.57-1.1-3.37-3.28-3.46-5.8-.1-2.52,1.06-4.24,3.59-5.09,1.7-.57,3.54-.96,5.32-1,4.01-.08,8.03.07,12.05.22,3.84.14,7.52-.58,11.16-1.67.87-.26,1.76-.49,2.66-.59,3.72-.42,6.95,1.88,7.42,5.23.44,3.09-1.94,6.15-5.57,6.67Z"/>
  <path class="cls-1" d="M112.18-48c-6.22,2.59-11.46,6.72-16.62,10.93-3.07,2.5-4.82,5.8-5.05,9.8-.15,2.53-.25,5.07-.28,7.6-.12,8.58-4.5,13.31-12.83,15.79-2.21.66-4.66.47-6.96.86-3.88.66-6.28,3.05-6.83,6.93-.32,2.26-.32,4.58-.35,6.87-.05,3.58-.26,7.19.04,10.75.51,6.2,5.83,10.32,12.02,9.64,3.37-.37,5.75-2.41,6.23-5.4.39-2.4-.61-4.34-2.24-5.95-1.42-1.41-3.15-2.54-4.48-4.03-1.09-1.21-2.1-2.67-2.58-4.2-.65-2.03.21-3.89,1.93-5.19,1.87-1.42,3.92-1.39,5.97-.42,3.06,1.45,5.31,3.87,7.51,6.35,3.93,4.41,5.93,9.43,5.79,15.44-.19,8.41-5.48,13.34-12.44,13.55-1.96.06-3.92.22-5.88.31-2.82.12-5.59-.16-8.05-1.62-2.59-1.54-5.03-3.32-7.61-4.87-2.67-1.61-5.55-2.52-8.62-1.3-3.26,1.29-5.57,3.68-7,6.87-1.42,3.18-.32,6.31,2.94,7.58,1.87.72,4,1.1,6.01,1.09,5.17-.02,10.33-.35,15.5-.52,3.29-.11,6.32.57,8.47,3.32,1.56,1.99,1.2,4.46-.87,5.9-.81.56-1.75,1.12-2.69,1.26-2.07.31-4.18.52-6.27.49-12.11-.18-24.22-.48-36.33-.65-2.72-.04-5.48.14-7.93,1.62-2.18,1.31-3.65,3.09-3.64,5.78.02,3.52,2.86,6.46,6.86,6.52,2.68.04,5.39-.56,8.06-1,3.25-.53,6.46-1.6,9.71-1.73,9.71-.38,19.43-.5,29.15-.56,7.8-.05,15.6.12,23.41.22,5.41.07,10.83,0,16.22.33,2.83.18,5.62,1.13,8.43,1.7,4.37.89,7.91-.84,9.19-4.64,1.25-3.73,1.32-7.55.11-11.31-1.27-3.94-4.62-5.77-8.68-4.94-2.63.54-4.72,2.06-6.73,3.7-3.28,2.68-6.91,4.49-11.21,4.62-3.01.09-6.05.27-9.04-.01-1.89-.18-3.85-.85-5.52-1.78-2.75-1.53-3.48-4.51-2.08-7.34,1.36-2.74,3.7-4.09,6.69-4.2,2.49-.09,4.98.11,7.47-.02,2.18-.11,4.41-.26,6.5-.85,2.78-.78,4.48-3.46,4.51-6.35.02-2.22-.94-4.07-2.18-5.82-1.19-1.68-2.48-3.29-3.61-5.01-1.94-2.95-2.93-6.13-1.94-9.68.63-2.24,1.84-4.1,4.16-4.76,3.02-.86,5.91-.49,8.33,1.71,2.57,2.35,3.16,5.47,3.27,8.76.11,3.2-.05,6.44.38,9.6.68,5.08,5.13,9.16,10.13,9.47,3.14.19,6.32.17,9.46,0,4.02-.21,6.97-2.57,8.05-6.46.48-1.73.69-3.6.62-5.39-.28-6.75,2.6-11.88,7.68-16.06,1.95-1.6,3.97-3.23,5.48-5.22,2.23-2.94,1-6.04-2.51-7.22-.23-.08-.46-.16-.69-.2-3.66-.73-7.33-.73-10.98.09-3.01.68-5.11,2.52-5.93,5.46-.57,2.05-.83,4.23-.85,6.36-.02,3.3.45,6.6.38,9.89-.04,1.91-.51,3.89-1.19,5.69-.63,1.67-2.06,2.77-4,2.8-1.9.03-3.18-1.03-3.95-2.64-.53-1.1-1.01-2.33-1.09-3.53-.2-3.05-.16-6.12-.24-9.18-.04-1.67.02-3.37-.23-5.01-.53-3.52-2.59-5.73-6.07-6.69-1.97-.54-4.04-1.04-5.77-2.06-3.28-1.92-3.12-5.63.21-7.41,1.19-.63,2.61-.98,3.96-1.11,1.75-.16,3.54.02,5.31.07,5.59.18,11.22.77,16.65-1.22,6.45-2.36,12.9-2.37,19.43-.28,3.9,1.25,7.93,1.78,12.05,1.36,4.41-.45,7.54-3.06,8.04-7.45.37-3.24.31-6.6-.1-9.83-.5-3.9-3.39-6.35-7.14-6.77-3.4-.38-6.69,1.6-8.28,5.01-.61,1.3-1.15,2.63-1.75,3.94-1.02,2.18-2.77,3.58-5.05,4.14-1.65.41-3.4.61-5.1.63-6.27.07-12.54.03-18.81.03h0c-4.64,0-9.29,0-13.93,0-4.55,0-9.13.23-13.5-1.36-3.76-1.37-6.88-3.56-8.73-7.24-1.33-2.64-1.06-5.6.63-7.4,1.59-1.71,4.31-2.11,7.08-.76,1.57.77,3.04,1.82,4.41,2.92,2.73,2.2,5.77,3.7,9.28,3.79,9.28.25,18.57.43,27.86.44,1.74,0,3.58-.69,5.18-1.46,1.96-.94,3.13-2.64,3.05-4.97-.08-2.29-1.2-3.92-3.26-4.83-1.08-.48-2.26-.97-3.41-1.01-3.92-.11-7.84-.04-11.76,0-5.27.06-10.53.22-15.8.23-2.51,0-5.01-.31-6.95-2.18-1.62-1.57-1.78-3.54-1.24-5.59.49-1.86,1.91-2.77,3.7-2.9,1.94-.14,3.95-.28,5.86.03,7.63,1.26,15.31,1.78,23.03,1.73,5.35-.03,10.36,1.02,14.87,4.03,4.05,2.7,8.53,3.69,13.37,3.56,2.28-.06,4.6.11,6.86.47,5.72.9,9.33,4.72,10.07,10.44.18,1.37.29,2.76.32,4.15.08,4.21.03,8.42.17,12.63.16,4.62,2.47,7.91,6.59,10,4.83,2.45,9.95,3.88,15.28,4.78,6.79,1.15,10.44,5.24,10.84,12.14.31,5.3.29,10.61.47,15.92.08,2.33.03,4.72.49,6.98.62,3.06,2.57,5.2,5.71,6.03,1.43.38,2.91.6,4.34.97,4.57,1.19,6.92,3.98,7.18,8.68.14,2.53.05,5.07.1,7.61.15,7.8,4.46,11.27,11.92,9.1,5.46-1.59,10.93-2.11,16.58-2.04,6.93.08,13.87-.28,20.81-.43,2.34-.05,4.68-.07,7.02-.13v-30.11c-.9.05-1.79.16-2.65.37-3.04.74-4.91,2.96-4.96,6.11-.03,2.1.68,4.21.98,6.32.24,1.64.66,3.33.45,4.93-.3,2.35-1.7,4.12-4.07,4.94-2.33.8-4.21-.01-5.88-1.62-1.81-1.74-2.99-3.9-2.94-6.36.1-5.01.41-10.02.83-15.01.2-2.32,1.51-4.25,3.4-5.63,2.84-2.07,5.91-3.81,9.35-4.59,1.8-.41,3.64-.65,5.48-.87v-8.61c-.59.23-1.19.43-1.81.55-2.74.54-5.58.77-8.38.84-4.01.1-7.27,1.44-9.59,4.82-.62.9-1.33,1.77-2.13,2.51-.61.57-1.38,1.07-2.17,1.32-2.86.92-5.85-1.21-6.7-4.68-1.49-6.06,2.61-12.42,8.74-13.7,3.93-.82,7.86-1.7,11.74-2.72,3.5-.92,6.92-1.01,10.29-.17V-2.82c-4.6-.27-9.21-.63-13.81-.68-5.32-.06-9.75,2.4-13.89,5.52-3.18,2.39-6.71,3.9-10.79,3.62-2.47-.17-4.44-1.22-5.45-3.59-1.01-2.36-.17-4.41,1.29-6.27,1.43-1.82,3.33-3.07,5.52-3.72,3.21-.95,6.43-1.88,9.71-2.54,5.46-1.1,8.25-4.1,8.33-9.67.06-3.78-.02-7.57-.31-11.34-.13-1.77-.64-3.61-1.4-5.22-2.74-5.81-9.49-6.53-12.93-1.46-1.29,1.9-1.61,4.08-1.65,6.31-.05,2.49.08,4.99-.09,7.47-.31,4.45-1.97,8.29-5.73,10.93-2.44,1.71-6.23,1.45-8.48-.42-2.22-1.85-2.72-4.43-1.41-7.57.39-.92.83-1.85,1.4-2.66,2.33-3.34,3.59-7.04,4.05-11.07.31-2.74,1.16-5.32,2.69-7.66.6-.92,1.12-1.9,1.58-2.9,1.06-2.26,1.52-4.55,1.21-6.86h-13.43c.11.16.22.32.33.5,1.47,2.47,1.78,5.15.55,7.71-1.89,3.94-3.38,7.99-4.79,12.12-1.41,4.16-5.22,6.18-9.9,5.53-2.31-.32-4.61-.88-6.87-1.46-4.76-1.23-9.6-.87-14.43-.91-7.29-.07-11.99-3.87-13.85-10.94-.54-2.05-1.28-4.19-2.51-5.87-2.52-3.44-6.27-3.7-10.13-2.93-2.53.51-5.02,1.27-7.56,1.72-2.46.44-4.93.28-6.85-1.61-.68-.67-1.21-1.61-1.54-2.53-.16-.46-.24-.91-.25-1.33h-53.27c-1.67,1.87-3.43,3.58-5.87,4.6ZM108.52-.56c-.49,2.8-1.92,5.13-4.01,6.96-3.99,3.49-10.51,1.48-11.93-3.62-.28-1-.34-2.07-.5-3.1.09-4.57,2.11-7.73,5.93-9.11,5.74-2.08,11.56,2.83,10.51,8.87ZM253.64,19.24c.21-.43.46-.84.73-1.23,2.46-3.6,6.82-3.39,8.72.53.71,1.47,1.06,3.17,1.27,4.8.21,1.6.05,3.25.05,4.64-.41,4.96.01,9.55,2.88,13.54,1.53,2.13,3.28,4.11,4.83,6.23.86,1.19,1.7,2.46,2.21,3.83,1.08,2.94.08,5.37-2.61,6.97-6.14,3.65-14.06-.14-14.9-7.18-.21-1.75-.11-3.53-.17-5.3-.04-1.1-.05-2.21-.21-3.29-.61-4.03-3.03-6.4-7.08-6.92-1.47-.19-2.98-.08-4.43-.36-1.76-.34-3.62-.65-5.17-1.48-2.92-1.57-3.03-5.49-.2-7.18,1.63-.97,3.6-1.65,5.48-1.84,3.99-.4,6.85-2.18,8.61-5.76ZM208.05-18.66c1.77-.5,3.8-.55,5.63-.26,3.91.64,7.73,1.77,11.64,2.44,2.1.36,4.29.19,6.45.22,7.2.1,11.55,3.29,13.71,10.14,1,3.19,1.99,6.4,2.86,9.63.67,2.52.91,5.09.25,7.67-.66,2.56-2.95,4.56-5.49,4.83-2.95.32-5.74-1.46-6.55-4.63-.55-2.15-.52-4.44-.73-6.67-.07-.76-.05-1.53-.12-2.29-.55-5.43-3.44-8.25-8.93-8.59-2.05-.13-4.11-.02-6.16-.02,0,.06-.02.12-.02.18-3.04-.3-6.1-.47-9.11-.93-2.62-.4-4.7-1.86-6.11-4.14-1.92-3.11-.8-6.59,2.71-7.58Z"/>
  <path class="cls-1" d="M302.7,356.08c-.99-.13-1.97-.27-2.95-.44-2.88-.49-4.69-2.29-5.58-4.99-1.45-4.42.57-7.91,5.14-8.76,1.12-.21,2.25-.31,3.39-.39v-26.9c-2.54-.68-4.67-1.97-5.94-4.76-2.42-5.31.45-11.13,5.94-12.24v-25.88c-1.45-.86-2.58-2.07-3.21-3.83-.57-1.6-1-3.34-1.03-5.03-.07-3.75.8-7.58,4.24-9.42v-28.57c-2.17-.68-4.08-1.85-5.56-3.92-2.52-3.54-2.06-7.86,1.3-10.65,1.29-1.06,2.74-1.57,4.26-1.87v-10.48c-2.47.13-4.9.61-7.32,1.21-1.52.38-3.12.67-4.66.6-4-.18-7.15-3.67-7.11-7.61.04-4.23,3.04-7.45,7.28-7.48,1.98-.01,3.95.61,5.94.85,1.95.23,3.91.47,5.87.65v-12.15c-7.27-.54-14.5-.57-21.62,1.82-1.79.6-3.89.6-5.8.43-3.31-.3-6.05-3.26-6.27-6.36-.19-2.67,1.92-5.32,5.25-6.16,1.79-.45,3.69-.59,5.54-.61,4.21-.03,8.43.19,12.64.13,3.43-.05,6.85-.21,10.28-.39v-9.98c-1.18-.08-2.36-.13-3.54-.13-9.77-.03-19.54.04-29.31.02-3.06,0-6.14.01-9.17-.32-2.91-.32-4.96-2.12-6.18-4.8-1.03-2.26-.49-4.63,1.39-6.24,2.65-2.28,5.73-2.5,8.94-1.74,5.27,1.24,10.53,2.43,16.02,2.18,4.02-.18,8.05-.02,12.07-.11,3.26-.07,6.52-.19,9.78-.33v-12.16s-.08,0-.13,0c-7.13-.12-14.26-.24-21.39-.31-5.99-.06-11.97.02-17.96-.14-2.71-.08-5.49-.29-8.1-.99-5.72-1.52-11.5-1.73-17.36-1.86-6.39-.15-12.05-2.44-16.48-7.3-1.97-2.15-3.99-4.27-6.09-6.29-3.76-3.61-6.77-7.76-9.67-12.07-3.44-5.12-7.14-10.07-10.94-14.93-2.78-3.55-6.5-5.87-10.89-7.1-1.55-.43-3.11-1.04-4.46-1.89-2.38-1.49-3.31-3.85-2.87-6.57.44-2.68,2.04-4.49,4.77-5.14,2.13-.51,4.3-.44,6.13.71,2.01,1.25,3.92,2.74,5.61,4.39,3.08,3.01,5.9,6.28,8.95,9.32,4.8,4.78,9.2,9.84,12.73,15.67,2.07,3.42,4.57,6.61,7.1,9.73,1.77,2.18,3.85,4.13,5.93,6.04,3.85,3.53,8.55,4.7,13.66,4.68,5.84-.03,11.65.13,17.42,1.37,3.57.77,7.29,1.01,10.95,1.16,4.35.18,8.71.05,13.07-.03,6.67-.12,13.34-.28,20.02-.46v-11.9c-10.93-.16-21.86-.32-32.79-.48-8.52-.12-17.04-.22-25.57-.37-4.67-.08-8.69-1.73-11.92-5.17-3.01-3.21-6.15-6.33-8.97-9.7-2.07-2.48-3.95-5.18-5.51-8-2.34-4.23-4.95-8.21-8.51-11.48-3.03-2.78-6.08-5.55-9.26-8.15-2.99-2.44-5.37-5.2-6.02-9.12-.25-1.5-.4-3.05-.39-4.57.02-3.64.29-7.28.22-10.91-.04-1.93-.36-3.92-.94-5.76-.57-1.8-1.95-3.1-3.99-3.26-2.08-.16-3.62.86-4.62,2.59-.52.89-1.01,1.93-1.07,2.93-.2,3.38-.26,6.78-.28,10.17-.02,4.12-1.27,7.71-4.32,10.58-2.41,2.26-4.72,4.64-7.25,6.75-5.35,4.45-9.12,9.69-9.86,16.88-.24,2.31-1.12,4.7-2.27,6.74-2.45,4.38-5.26,8.56-7.94,12.81-3.93,6.23-9.52,9.53-16.96,9.52-1.39,0-2.78.06-4.17.07-5.68.06-10.59,1.94-14.52,6.13-1.96,2.1-3.95,4.18-5.83,6.34-2.76,3.16-6.06,5.27-10.32,5.6-2.05.16-4.11.29-6.16.3-7.47.03-14.94-.06-22.41,0-3.67.03-7.21.85-9.22,4.25-1.06,1.8-1.59,3.99-2.01,6.07-.79,3.87-2.97,6.56-6.32,8.44-2.41,1.35-5.05,1.8-7.75,1.81-5.12.02-10.25-.03-15.37-.09-5.17-.06-10.22.37-14.23,4.13-3.04,2.84-6.02,5.75-8.85,8.8-2.51,2.71-4.03,6.04-4.07,9.75-.07,6.03.01,12.06.28,18.08.16,3.68,1.86,6.8,4.58,9.31,1.09,1,2.24,1.94,3.4,2.87,3.46,2.75,5.99,6.05,6.51,10.59.17,1.47.36,2.96.36,4.44-.01,5.53,2.01,10.2,5.91,14.04,4.12,4.06,6.17,8.89,6,14.7-.19,6.28,2.01,11.57,6.51,16,2.75,2.7,4.73,5.93,5.16,9.87.21,1.95.28,3.92.34,5.88.14,4.67,1.54,8.87,4.75,12.32,2.22,2.38,4.52,4.68,6.92,6.87,2.54,2.32,5.6,3.81,9.04,3.99,5.11.27,10.23.38,15.34.28,3.42-.07,6.62-1.29,9.17-3.65,3.08-2.86,6.1-5.8,8.95-8.9,2.68-2.91,4.02-6.49,4.22-10.45.11-2.2.2-4.4.21-6.6.04-4.96,1.52-9.41,4.63-13.31,1.07-1.35,2.06-2.77,3.08-4.15,3.06-4.14,6.44-7.95,10.69-10.95,4.43-3.12,8.63-6.51,12.33-10.5,3.39-3.65,5.15-7.89,5.16-12.87,0-2.06.07-4.12,0-6.18-.23-6.26,2.7-10.54,8.08-13.44,2.61-1.4,5.17-2.92,7.62-4.59,3.46-2.35,6.61-5.08,8.82-8.72,2.55-4.2,2.47-8.84,2.39-13.51-.07-3.55,0-7.1,2.02-10.27,1.68-2.64,4.2-4.29,6.75-5.91,5.55-3.52,10.4-7.81,14.52-12.93,2.53-3.14,3.85-6.7,3.86-10.73.01-3.88.17-7.77-.13-11.63-.2-2.58-.59-5.36-1.75-7.62-3.37-6.59-8.44-11.31-16.11-12.55-2.25-.36-4.35-1.08-6.04-2.74-2.88-2.83-3.56-8.56,2.43-10.19,4.28-1.17,8.21-.32,11.38,2.63,5.43,5.05,10.65,10.33,15.92,15.55,2.84,2.81,4.46,6.28,4.53,10.27.12,6.84.08,13.68.02,20.52-.05,5.96-2.59,10.7-7.02,14.68-5.16,4.64-10.07,9.56-15.05,14.4-2.66,2.58-4.41,5.67-4.77,9.41-.17,1.81-.19,3.64-.16,5.45.08,4.37-.96,8.35-3.9,11.7-.98,1.12-1.97,2.22-2.97,3.32-4.34,4.77-9.3,8.8-14.64,12.41-3.58,2.42-5.21,6.02-5.41,10.28-.08,1.72.14,3.47-.08,5.17-.31,2.3-.63,4.67-1.45,6.82-1.42,3.77-4,6.84-6.86,9.64-7.19,7.02-14.4,14.02-21.62,21.01-4.31,4.17-6.31,9.26-6.16,15.23.05,1.91-.03,3.83-.06,5.75-.07,4.59-1.75,8.44-5.06,11.66-3.91,3.8-7.77,7.66-11.55,11.6-3.17,3.3-6.98,4.96-11.51,5.02-6.75.08-13.5.08-20.25.23-5.8.13-10.41-2.07-14.37-6.27-3.3-3.51-6.9-6.76-10.52-9.95-3.4-2.99-5.58-6.52-5.88-11.09-.09-1.34-.13-2.68-.2-4.02-.19-3.79-.29-7.63-2.46-10.93-1.31-1.99-2.84-3.86-4.44-5.62-2.59-2.86-4.29-6.09-4.63-9.97-.14-1.62-.2-3.25-.23-4.87-.09-5.26-1.76-9.83-5.62-13.55-1.34-1.29-2.6-2.69-3.75-4.15-2.36-3.03-2.77-6.66-2.94-10.33-.21-4.51-1.58-8.55-4.71-11.89-1.5-1.61-3.01-3.21-4.57-4.76-.32-.32-.63-.65-.93-.99v30.15c.51.8,1.09,1.57,1.73,2.3,1.2,1.36,2.44,2.71,3.79,3.93,4.61,4.15,6.69,9.32,6.54,15.47-.12,5.02,1.16,9.57,4.52,13.42,3.32,3.81,4.68,8.29,4.53,13.27-.2,6.54,2.24,11.89,6.87,16.43,6.19,6.07,12.22,12.29,18.39,18.38,3.48,3.44,7.71,5.28,12.65,5.33,9.43.1,18.87.12,28.3.32,6.34.14,11.38-2.47,15.7-6.85,5.48-5.56,11.01-11.07,16.45-16.66,3.42-3.51,5.19-7.74,5.13-12.71-.03-2.34.14-4.69.15-7.03,0-4.72,1.75-8.67,5.16-11.9,4.56-4.31,9.06-8.68,13.72-12.87,2.31-2.07,4.89-3.84,7.39-5.69,4.41-3.25,6.93-7.63,6.53-13.05-.7-9.58,3.87-16.36,10.72-22.18,3.9-3.31,7.82-6.62,11.64-10.02,3.05-2.72,4.59-6.27,4.67-10.32.19-9.08,3.96-16.53,10.12-22.94,5.01-5.21,10.11-10.33,15.09-15.58,4.26-4.49,5.45-9.75,3.49-15.68-.36-1.09-.64-2.21-.86-3.33-.67-3.43.64-6.09,3.41-7.05,2.88-.99,6.22.35,7.53,3.39.82,1.9,1.41,4.03,1.48,6.08.15,4.15.06,8.32-.29,12.46-.3,3.48-2.08,6.37-4.52,8.92-2.77,2.9-5.3,6.04-7.96,9.05-3.65,4.12-7.22,8.31-11.01,12.31-4.29,4.53-6.77,9.66-6.47,16.02.32,6.76-2.44,12.06-7.86,16.03-1.93,1.41-3.84,2.85-5.77,4.26-3.57,2.62-6.82,5.57-9.6,9.03-2.61,3.25-3.56,7.04-3.68,11.11-.06,1.91-.1,3.83-.23,5.74-.25,3.49-1.67,6.48-4.12,8.94-5.65,5.67-11.6,10.99-18.07,15.73-2.41,1.76-4.55,3.96-6.56,6.19-3.51,3.89-3.99,8.77-3.99,13.73,0,1.53-.03,3.06-.04,4.6-.02,4.86-1.87,8.86-5.38,12.25-7.16,6.92-14.44,13.73-21.22,21.02-4.63,4.97-10,7.09-16.57,7.02-6.27-.07-12.54-.02-18.81-.02v.15c-5.98,0-11.97-.02-17.95,0-5.71.02-10.16-2.35-13.87-6.65-7.35-8.54-15.32-16.49-23.99-23.69-4.67-3.88-6.65-8.7-6.65-14.59,0-3.45.06-6.94-1.39-10.17-.78-1.73-1.69-3.46-2.88-4.93-3.12-3.86-4.49-8.21-4.74-13.12-.13-2.54-.56-5.12-1.22-7.59v47.83c.83,1.29,1.81,2.51,2.95,3.65,8.68,8.72,17.36,17.45,26.15,26.06,4.03,3.95,8.22,7.75,12.52,11.41,3.2,2.72,7.14,3.94,11.31,4.01,8.14.13,16.28.16,24.42.06,2.32-.03,4.7-.4,6.94-1.01,4.07-1.09,8.2-1.53,12.37-1.44,5.5.12,10.16-1.77,14.09-5.45,6.6-6.19,13.11-12.47,19.62-18.76,3.44-3.33,6.79-6.75,10.16-10.15,3.47-3.5,5.22-7.73,5.23-12.67,0-2.06.07-4.12.08-6.18.02-5.6,2.32-10.1,6.61-13.59,3.05-2.47,6.18-4.84,9.27-7.25,5.01-3.91,9.33-8.52,13.4-13.36,2.86-3.4,3.63-7.52,3.7-11.83.01-.86.05-1.72.06-2.58.09-5.16,2.24-9.38,6.1-12.67,3.71-3.16,7.6-6.12,11.39-9.19,3.77-3.05,7.21-6.41,8.5-11.27.56-2.11.96-4.36.83-6.52-.43-7.34,2.95-12.66,8.17-17.36,3.36-3.03,6.4-6.46,9.25-9.97,1.4-1.73,2.01-4.09,3.07-6.12.78-1.51,1.46-3.19,2.61-4.39,2.12-2.2,5.61-2.44,7.78-.9,2.61,1.85,4.07,6.13,2.56,9-1.41,2.67-3.22,5.21-5.22,7.48-4.08,4.64-8.3,9.15-12.64,13.54-3.84,3.89-5.7,8.5-5.52,13.86.19,5.75-2.13,10.32-6.11,14.18-5.05,4.9-10.1,9.81-15.29,14.55-3.6,3.29-5.84,7.18-5.64,12.08.28,7.22-2.62,13.07-7.41,18.08-2.74,2.86-5.94,5.26-8.86,7.96-4.19,3.86-8.34,7.76-12.44,11.72-3.32,3.21-4.28,7.35-4.36,11.8-.06,3.06-.04,6.13-.33,9.18-.3,3.2-1.74,6.02-4.15,8.15-3.04,2.69-6.43,5-9.39,7.79-8.4,7.91-16.75,15.88-24.92,24.02-3.74,3.73-7.94,5.72-13.21,5.98-3.51.17-7.05.72-10.49,1.47-3.92.85-7.83,1.22-11.83,1.16-4.45-.07-8.9-.02-13.36-.02v-.03c-6.22,0-12.45.06-18.67-.02-4.53-.05-8.43-1.82-11.96-4.62-4.79-3.81-9.63-7.57-14.53-11.24-6.58-4.93-11.84-11.1-17.04-17.39-1.8-2.18-3.78-4.23-5.79-6.24v16.63c.87,1.03,1.74,2.08,2.57,3.15,4.48,5.73,9.5,11.02,16.09,14.29,5.83,2.9,11.28,6.27,16.42,10.21,3.71,2.85,8.03,3.95,12.64,4.04,2.73.05,5.46-.03,8.19,0,15.27.1,30.55.19,45.82.31,5.25.04,10.07-1.29,14.19-4.6,5.15-4.13,10.31-8.26,15.28-12.6,9.62-8.41,18.5-17.64,28.87-25.2,4.2-3.06,6.32-7.48,6.44-12.75.06-2.78.17-5.55.21-8.33.06-4.28,1.55-7.96,4.66-10.92,2.63-2.51,5.28-5.01,8.03-7.39,2.64-2.28,5.3-4.59,8.18-6.54,6.41-4.34,9.67-10.09,9.18-17.96-.3-4.88,1.48-9.11,4.91-12.61,5.5-5.61,11.01-11.2,16.5-16.82,2.89-2.96,4.89-6.39,5.27-10.59.49-5.45,2.7-10.13,6.21-14.24,3.37-3.94,6.48-8.04,8.76-12.75.56-1.17,1.48-2.29,2.49-3.1,2.86-2.26,7.9-2.95,10.15,2.45,1.4,3.35.81,6.52-1.36,9.19-2.13,2.62-4.56,5.04-7.09,7.29-4.79,4.27-8.51,9.06-9.09,15.74-.32,3.7-1.98,6.85-4.18,9.78-4.37,5.83-9.62,10.76-15.22,15.37-4.01,3.31-6.87,7.34-7.28,12.72-.13,1.67-.2,3.35-.18,5.02.07,5.43-2.12,9.78-6.09,13.41-5.68,5.2-11.16,10.62-17.49,15.08-3.32,2.34-5.52,5.63-5.95,9.78-.28,2.71-.39,5.44-.35,8.16.09,6.12-1.94,11.11-6.71,15.17-6.27,5.33-12.19,11.07-18.39,16.48-5.3,4.63-10.69,9.15-16.19,13.52-4.64,3.69-9.51,7.09-14.26,10.65-2.71,2.03-5.59,3.95-8.99,4.22-5.62.45-11.28.62-16.91.59-5.4-.03-10.8-.63-16.2-.72-8.52-.13-17.05-.1-25.57,0-1.94.02-3.93.33-5.79.87-2.71.79-3.77,1.93-2.63,4.71.43,1.06.71,2.19.93,3.31.22,1.12.1,2.1-.24,3h7.98c1.26-2.21,3.49-3.26,5.91-3.48,3.21-.3,6.49-.02,9.73.07,4.5.13,8.96.22,13.42-.88,3.23-.79,6.59-1.48,9.88-1.47,6.25.02,12.49.59,18.74.9,1.52.07,3.06.12,4.58,0,3.63-.3,6.74-1.96,9.76-3.88,6.63-4.2,13.46-8.11,19.89-12.6,4.97-3.47,9.59-7.48,14.11-11.54,7.41-6.65,14.67-13.47,21.88-20.33,3.3-3.14,5.56-6.98,5.9-11.66.18-2.38.15-4.78.19-7.18.09-4.68,2.03-8.39,5.53-11.53,6.15-5.54,12.2-11.19,18.15-16.95,4.09-3.96,6.35-8.81,6.17-14.65-.04-1.38.13-2.77.28-4.15.35-3.08,1.44-5.88,3.63-8.12,1.6-1.64,3.29-3.23,5.11-4.61,6-4.56,10.62-10.17,13.76-17.02,1.02-2.22,2.15-4.38,3.26-6.55,2.17-4.26,4.34-8.52,6.55-12.75.66-1.26,1.34-2.57,2.26-3.64,1.79-2.07,4.19-2.87,6.87-2.31,2.6.54,4.04,2.35,4.73,4.87.59,2.14.55,4.26-.55,6.14-1.23,2.08-2.58,4.18-4.26,5.9-3.72,3.79-6.73,7.91-8.31,13.06-1.18,3.88-3.57,7.08-6.37,9.96-3.87,3.99-7.77,7.94-11.66,11.91-2.83,2.89-4.77,6.22-5.18,10.32-.16,1.57-.25,3.15-.33,4.73-.19,3.67-1.41,6.93-3.9,9.65-3.69,4.02-7.31,8.12-11.13,12.01-3.01,3.07-6.32,5.85-9.44,8.83-3.41,3.26-5.22,7.24-5.24,12.03,0,2.24-.11,4.51-.48,6.72-.73,4.35-3.58,7.46-6.62,10.34-5.87,5.56-11.96,10.91-17.76,16.55-5.85,5.69-11.96,10.98-18.92,15.33-6.12,3.83-11.96,8.12-17.93,12.19-1.89,1.29-3.73,2.68-5.7,3.83h13.2c2.78-1.36,5.62-2.64,8.34-4.12,4.15-2.27,8.21-4.73,12.17-7.32,3.6-2.35,7.21-4.74,10.46-7.53,7.29-6.28,14.3-12.88,21.53-19.22,5.26-4.62,9.25-9.81,10.14-17.09.53-4.33,2.64-8.19,5.34-11.62,3.49-4.44,7-8.86,10.65-13.17,3.31-3.9,6.81-7.65,10.27-11.41,2.19-2.38,4.3-4.87,5.17-8.01.69-2.51.97-5.16,1.22-7.77.37-3.75,1.52-7.13,4.18-9.85,3.82-3.9,7.72-7.72,11.59-11.56,4.25-4.22,7.39-9.02,8.14-15.13.11-.89.46-1.76.8-2.6,1.23-2.95,3.51-4.41,6.62-4.32,2.56.08,4.46,1.71,5.51,4.7,1.24,3.55.39,6.82-1.49,9.88-1.48,2.4-3.06,4.75-4.73,7.02-3.77,5.13-7.47,10.35-12.68,14.19-5.13,3.78-8.09,8.66-8.23,15.17-.1,4.62-2.17,8.42-5.27,11.79-2.3,2.5-4.44,5.14-6.54,7.81-5.09,6.47-10.02,13.07-15.2,19.46-3.03,3.73-5.31,7.69-6.05,12.49-.55,3.56-2.19,6.62-4.75,9.15-1.7,1.68-3.49,3.28-5.18,4.97-3.97,3.95-7.87,7.97-11.88,11.88-7.98,7.78-17.66,13.26-26.64,19.69-1.25.9-2.55,1.72-3.86,2.52h14.16c3.44-2.26,7.32-3.99,10.81-6.22,5.65-3.61,11.18-7.38,15.9-12.23,2.77-2.84,5.74-5.49,8.64-8.2.91-.85,1.83-1.69,2.8-2.47,4.42-3.61,7.43-8.21,9.39-13.52,2.03-5.51,4.89-10.47,9.16-14.59,2.95-2.84,5.12-6.28,7.2-9.8,1.94-3.28,4.22-6.37,6.46-9.46,1.43-1.98,3.1-3.77,4.55-5.73,3.84-5.15,7.08-10.57,7.81-17.17.17-1.52.85-3.05,1.58-4.43,1.53-2.91,4.59-4.26,7.9-3.71,3,.49,4.92,2.45,5.68,5.71.68,2.92-.07,5.49-1.75,7.87-2.34,3.32-4.7,6.63-7.01,9.96-1.93,2.79-3.77,5.65-5.72,8.43-2.52,3.6-5.46,6.96-7.6,10.77-3.71,6.59-7.79,12.83-13.15,18.22-2.76,2.78-4.57,6.22-6.04,9.86-.77,1.89-1.59,3.91-2.9,5.41-4.31,4.93-8.83,9.67-13.32,14.44-2.81,2.98-6.12,5.32-9.63,7.43-2.25,1.35-4.3,3.02-6.45,4.53-2.26,1.59-4.58,3.1-6.8,4.75-.08.06-.15.12-.23.18h21.6c-.05-.69-.07-1.38.01-2.06.3-2.69,1.84-4.44,4.52-4.84,2.69-.4,5.42-.5,8.14-.62,1.24-.05,2.12.6,2.64,1.82.78,1.86,1.17,3.73.96,5.69h12.92c-.07-1.09.03-2.19.32-3.3.63-2.48,1.8-3.53,4.31-3.68,1.8-.11,3.63.02,5.44.19,2.48.23,3.85,1.76,4.28,4.14.16.88.29,1.76.42,2.64h12.19c.38-3.4,1.55-4.79,4.54-5.21,1.84-.26,3.72-.32,5.58-.34,1.81-.01,3.18.89,3.62,2.67.23.95.45,1.9.63,2.87h10.77c.11-.75.24-1.49.42-2.22.43-1.71,1.88-2.34,3.69-2.3,1.25.03,2.5.05,3.75.06v-18.77ZM179.77,120.95c.15,2.62.17,5.27-.02,7.88-.25,3.35-1.64,6.31-4.04,8.68-2.82,2.79-5.73,5.5-8.65,8.19-1.95,1.79-4.32,2.77-6.89,3.36-1.63.37-3.27.76-4.83,1.34-2.8,1.05-4.42,3.24-4.83,6.12-.34,2.4-.29,4.86-.34,7.29-.07,3.97-.09,7.94-.12,11.91-.06,7.13-8.03,15.22-15.62,15.52-1.33.05-2.67.28-3.98.53-3.8.74-6.19,3.1-6.81,6.85-.43,2.57-.31,5.24-.37,7.87-.1,4.35,0,8.72-.24,13.06-.37,6.62-3.73,9.94-10.37,10.57-1.29.12-2.58.15-3.87.28-6.21.61-9.25,3.81-9.59,10.05-.08,1.48-.16,2.96-.26,4.44-.25,3.79-1.82,6.98-4.38,9.75-2.53,2.74-5.32,5.42-6.24,9.16-.71,2.89-.82,5.94-1.19,8.92-.31,2.55-.37,5.17-.97,7.65-.81,3.38-3.31,5.41-6.61,6.11-5.4,1.15-10.88,1.22-16.23-.17-5.67-1.47-9.37-6.07-9.9-11.91-.22-2.47-.34-4.98-.23-7.45.28-5.98-1.69-10.84-6.49-14.56-2.71-2.1-4.71-4.81-5.34-8.27-.33-1.78-.45-3.61-.55-5.42-.21-3.83-.24-7.72-2.27-11.14-1.04-1.75-2.21-3.54-3.7-4.9-5.17-4.7-6.41-10.63-5.97-17.24.13-1.99.07-4.03-.15-6.01-.39-3.57-2.28-6.13-5.64-7.53-.8-.33-1.59-.66-2.41-.95-3.68-1.32-6.09-3.88-6.27-7.79-.22-4.81-.39-9.71.27-14.45.98-6.94,5.66-10.63,12.8-11.09,1.15-.07,2.29-.2,3.44-.21,3.83-.03,7.66-.01,11.49-.01v-.11c3.83,0,7.66.08,11.49-.02,3.76-.11,7.34-.94,9.38-4.5.85-1.49,1.13-3.31,1.62-5,.38-1.33.48-2.76,1.04-4,1.17-2.59,3.52-3.84,6.16-4.16,3.51-.42,7.06-.55,10.59-.61,4.88-.09,9.77-.04,14.65.01,5.11.06,9.47-1.77,13.13-5.24,3.37-3.2,6.69-6.44,9.88-9.81,3.89-4.11,8.6-5.83,14.18-5.68,2.24.06,4.5-.11,6.72-.39,3.21-.41,5.78-2.11,8.12-4.28,1.95-1.82,3.79-3.95,6.09-5.18,10.07-5.35,23.65.91,24.32,12.5ZM300.67,283.91c1.19,4.77-2.47,9.78-7.07,9.68-5.64-.12-9.01-2.75-9.98-7.81-.93-4.86,1.92-8.62,6.88-9.07,4.91-.45,8.98,2.43,10.17,7.2ZM291.45,231.77c5.48-.07,9.75,3.75,9.76,8.74.01,4.87-3.28,8.2-8.14,8.25-6.66.32-9.24-4.92-9.37-9.01-.14-4.54,3.22-7.92,7.75-7.98ZM239.49,152.21c-2.14.01-3.68-1.02-4.78-2.68-1.46-2.2-2.1-4.69-2.11-6.83.16-2.62.49-4.67,1.86-6.43,2.4-3.09,5.72-3.47,8.73-.97,3.34,2.77,4.73,8.31,3.08,12.26-1.23,2.94-3.75,4.63-6.78,4.65ZM253.16,176.67c-4.73,0-8.52-4.34-8.46-9.69.04-3.7,3.85-6.99,8.1-6.99,4.62,0,8.79,4.19,8.8,8.85.01,4.56-3.52,7.84-8.44,7.83ZM268.43,200.68c-5.14,0-8.94-3.95-8.98-9.36-.03-4.36,3.22-7.49,7.73-7.46,4.9.03,9.24,4.32,9.24,9.12,0,4.22-3.61,7.69-8,7.7ZM271.76,215.55c.02-4.51,3.13-7.62,7.59-7.6,4.96.02,9.27,4.19,9.23,8.94-.03,4.36-3.71,7.8-8.28,7.76-5.21-.05-8.56-3.62-8.54-9.1ZM272.06,260.74c-.04-4.68,2.88-7.47,7.86-7.51,4.61-.04,8.25,3.8,8.33,8.8.07,4.43-2.89,7.5-7.24,7.53-5.48.03-8.91-3.34-8.95-8.82ZM244.67,363.18c-1.95,4.27-4.98,6.51-9.68,6.46-.62,0-1.24.08-1.53.1-3.56.11-4.67-.96-4.76-4.17-.08-2.78,1.21-4.9,3.25-6.57,3.46-2.85,6.17-6.23,8.03-10.32,2.05-4.51,5.06-8.34,8.71-11.65,5.06-4.57,9.05-9.83,11.37-16.31,1.26-3.52,3.54-6.44,6.02-9.19,2.47-2.74,4.26-5.86,5.48-9.35.46-1.33,1.14-2.65,1.99-3.78,1.64-2.18,4.03-2.68,6.58-2.2,2.3.43,3.56,2.08,4.26,4.22,1.17,3.61.35,6.86-2.02,9.66-1.7,2-3.61,3.83-5.56,5.59-3.5,3.16-5.48,7.2-7,11.53-1.06,3.03-2.61,5.77-4.97,7.96-8.58,8-15.29,17.37-20.16,28.01ZM275.21,355.71c-2.45,2.46-4.1,5.26-4.87,8.61-.2.88-.48,1.75-.73,2.63-.92,3.17-2.31,4.2-5.61,4.17-4.71-.04-6.51-1.96-6.58-7.48-.16-2.77,1.07-5.57,3.23-7.75,5.24-5.3,9.61-11.27,13.96-17.28,1.14-1.58,2.57-2.96,3.92-4.38,2.36-2.47,3.97-5.36,5.03-8.59.67-2.04,1.44-4.07,3.18-5.53,3.77-3.14,9.11-1.59,10.7,3.04.99,2.88.58,5.57-1.18,7.9-1.8,2.4-3.75,4.76-5.98,6.73-3.62,3.21-6.61,6.84-9.21,10.91-1.63,2.55-3.71,4.86-5.86,7.01ZM296.01,368.29c-.51,2.97-1.96,4-5,4.01-.57,0-1.15,0-1.72,0v-.05c-.62,0-1.24.01-1.86,0-3.32-.09-4.56-.67-5.44-4.81-.82-3.85.42-6.36,3.48-7.55,2.16-.84,4.4-.89,6.62-.24,2.07.6,3.37,2.11,3.81,4.12.32,1.45.37,3.06.12,4.52Z"/>
</svg>