<?xml version="1.0" encoding="UTF-8"?>
<svg id="Layer_1" xmlns="http://www.w3.org/2000/svg" viewBox="0 0 300 300">
  <defs>
    <style>
      .cls-1 {
        fill: #f55a3e;
      }
    </style>
  </defs>
  <path class="cls-1" d="M78.85,181.63c.11-2.97-1.54-5.68-4.39-6.81-1.38-.55-2.89-.75-4.28-1.09-1.4.29-2.7.4-3.89.83-4.83,1.74-6.17,7.18-2.77,11.03,2.52,2.85,6.88,3.98,10.46,2.71,2.85-1.01,4.76-3.62,4.87-6.67Z"/>
  <path class="cls-1" d="M74.47,205.68c1.27-2.84.71-5.49-1.13-7.87-2.55-3.3-7.03-4.47-10.92-2.95-3.34,1.31-4.99,4.68-3.96,8.12,1.11,3.74,4.83,6.39,9.02,6.43,3.25.03,5.92-1.35,6.99-3.74Z"/>
  <path class="cls-1" d="M61.91,232.31c1.21-.22,2.45-.39,3.64-.69,1.67-.42,2.73-1.54,3.36-3.14,2.19-5.51-1.27-11.84-7.12-12.87-3.18-.56-5.97.39-7.96,2.92-1.9,2.42-1.91,5.21-.67,7.94,1.68,3.7,4.63,5.6,8.75,5.83Z"/>
  <path class="cls-1" d="M102.46,197.88c.05-4.4-3.76-8.36-8.11-8.41-4.01-.05-7.47,3.28-7.53,7.25-.07,4.38,3.89,8.44,8.24,8.47,4.1.02,7.35-3.18,7.4-7.31Z"/>
  <path class="cls-1" d="M86.36,161.73c3.77-1.18,7.56-2.33,11.23-3.76,6.98-2.73,13.91-5.6,20.82-8.52,2.98-1.26,5.85-2.77,8.75-4.21,8.7-4.33,16.6-10.09,25.47-14.13,1.4-.64,2.72-1.74,3.73-2.91,2.86-3.31,2.02-8.2-1.73-10.47-2.94-1.78-6-1.87-8.94-.01-1.3.82-2.4,1.95-3.62,2.91-2.09,1.64-4.1,3.41-6.32,4.86-8.44,5.48-17.69,9.42-26.65,13.92-2.37,1.19-4.82,2.28-7.32,3.18-7.63,2.76-15.28,5.47-22.97,8.08-4.01,1.36-7.92,3.31-13.13,2.6-1.18.19-3.17.26-4.99.84-3.4,1.08-5.12,4.65-4,7.75,1.67,4.61,6.38,6.88,10.99,5.23,1.59-.57,3.14-1.24,4.67-1.94,3.26-1.5,6.62-2.51,10.23-2.74,1.27-.08,2.57-.29,3.79-.67Z"/>
  <path class="cls-1" d="M87.41,224.52c3.65.35,6.75-2.42,6.77-5.91.03-4.51-5.11-8.97-9.57-8.31-4.21.62-6.68,4.99-4.87,8.81,1.51,3.19,4.12,5.07,7.67,5.41Z"/>
  <path class="cls-1" d="M214.83,20.55c-3.72.11-6.41,1.54-8.13,4.51-1,1.72-1.84,3.54-2.65,5.37-1.27,2.89-3.19,5.19-5.76,7-1.01.71-2,1.49-2.9,2.33-3.57,3.36-3.71,7.91-.28,11.41,2.16,2.2,4.83,3.18,7.9,2.41,3-.75,4.51-2.97,5.23-5.82.23-.9.37-1.83.49-2.75.42-3.36,2.22-5.73,5.16-7.29.82-.44,1.71-.79,2.46-1.33,1.4-1.01,2.87-1.98,4.03-3.22,2.19-2.35,2.98-5.2,1.62-8.24-1.41-3.16-4.19-4.27-7.17-4.37Z"/>
  <path class="cls-1" d="M200.62,5c-3.74-.42-6.57.92-8.76,4.07-4.48,6.45-9.31,12.66-13.66,19.19-3.76,5.65-8.5,10.35-13.23,15.09-8.85,8.86-17.6,17.82-26.73,26.37-3.92,3.67-8.69,6.43-13.05,9.64-8.49,6.26-17.35,11.93-26.91,16.41-5.1,2.39-10.35,4.48-15.65,6.37-7.52,2.69-15.15,5.05-22.72,7.59-3.23,1.09-6.57.95-9.89.96-3.1,0-6.05.64-9.02,1.5-2.36.68-4.86,1.2-7.3,1.19-10.83-.04-21.66-.26-32.49-.5-1.25-.03-2.55-.1-3.79-.35v12.53c3.05.79,6.15.8,9.45.28,7.33-1.14,14.78-1.31,22.14,0,3.43.61,6.66.35,9.71-1.23,3.93-2.03,7.91-2.5,12.25-1.51,1.95.44,4.18.23,6.17-.2,3.03-.66,5.94-1.8,8.93-2.66,1.78-.51,3.59-1.03,5.42-1.27,3.02-.4,5.9-1.15,8.71-2.32,5.49-2.29,11.07-4.37,16.55-6.66,8.17-3.42,15.83-7.82,23.46-12.29,4.19-2.46,8.07-5.3,11.86-8.34,2.86-2.3,6.02-4.25,9.11-6.24,5.62-3.6,10.28-8.31,15-12.94,7.7-7.56,15.46-15.05,22.85-22.9,3.53-3.75,6.37-8.18,9.32-12.45,3.83-5.55,8.22-10.56,13.17-15.13,1.6-1.48,3.09-3.24,4.12-5.15,2.11-3.94-.55-8.57-5.02-9.07Z"/>
  <path class="cls-1" d="M105.38,244.79c4.6,2.12,9.63-.98,9.62-5.85-.01-4.27-4.55-8.82-8.99-9.02-4.92-.22-8.2,4.41-6.32,8.97,1.11,2.7,3.06,4.69,5.69,5.9Z"/>
  <path class="cls-1" d="M227.65,36.56c-2.13.65-3.98,1.83-5.31,3.62-2.41,3.22-2.54,6.71-.88,10.31,1.46,3.16,4.1,4.37,7.44,4.5.74-.13,1.5-.19,2.22-.4,4.81-1.38,7.82-7.21,6.46-12.45-1.16-4.46-5.52-6.92-9.92-5.57Z"/>
  <path class="cls-1" d="M50.23,160.32c-2.72-3.83-8.71-5.84-13.2-4.43-4.83,1.52-6.71,6.49-4.03,10.78,2.13,3.41,5.42,4.52,9.3,4.74,1.67-.38,3.43-.54,5-1.18,3.93-1.6,5.32-6.56,2.93-9.92Z"/>
  <path class="cls-1" d="M57.18,143.52c1.64-2.24,3.73-2.75,6.34-1.87,1.58.54,3.26.76,4.9,1.12.02-.05.04-.11.06-.16.88-.1,1.8-.08,2.64-.32,3.96-1.12,7.93-2.25,11.85-3.5,4.48-1.43,8.97-2.86,13.36-4.53,10.77-4.11,20.91-9.53,31.06-14.95,3.55-1.89,6.87-4.07,9.87-6.74,3.16-2.81,6.64-5,10.84-6,1.39-.33,2.76-1.02,3.97-1.81,3.05-2,4.19-5.16,3.22-8.43-1.4-4.75-7.06-7.12-11.41-4.58-1.77,1.04-3.25,2.59-4.84,3.92-2.55,2.13-4.97,4.44-7.66,6.38-2.98,2.15-6.15,4.07-9.33,5.92-10.76,6.26-21.85,11.83-33.61,16.01-5.64,2.01-11.16,4.27-17.26,4.75-3.78.3-7.37,1.73-10.29,4.31-2.05,1.81-4.21,2.13-6.79,1.38-2.38-.69-4.83-1.2-7.28-1.53-2.15-.3-4.23.21-6.12,1.37-2.49,1.52-4.51,6.04-1.78,9.44,1.75,2.18,3.91,3.64,6.67,4.04,4.59.66,8.68-.21,11.6-4.21Z"/>
  <path class="cls-1" d="M2.61,165.13c.77-3-.57-5.56-2.8-7.6-.71-.65-1.52-1.17-2.4-1.56v15.09c2.63-1.08,4.47-3.09,5.2-5.94Z"/>
  <path class="cls-1" d="M39.69,193.82c4.32.34,8.47-3.41,8.76-7.68-.5-1.35-.82-2.81-1.55-4.03-2.42-4.09-8.13-6-12.6-4.36-4.6,1.69-6.29,6.54-3.61,10.61,2.11,3.2,5.1,5.16,8.99,5.46Z"/>
  <path class="cls-1" d="M169.32,301.2c1.24,2.63,1.43,4.95.09,7.59-1.44,2.83-1.84,5.95-1.19,9.08.26,1.26.83,2.57,1.61,3.58,1.53,1.97,4.03,2.01,5.85.3,1.44-1.35,2.01-3.09,2.18-5.01.22-2.55-.37-4.98-1.44-7.24-1.31-2.78-1.14-5.22.75-7.69,2.09-2.74,2.96-5.93,3.11-9.43-.38-1.94-.54-3.97-1.21-5.81-.97-2.69-2.98-4.45-5.96-4.57-2.95-.12-4.75,1.65-5.96,4.13-1.11,2.26-1.19,4.67-.55,7.02.74,2.73,1.51,5.5,2.72,8.05Z"/>
  <path class="cls-1" d="M106.94,213.6c0,3.51,3.04,6.51,6.59,6.47,3.43-.03,6.04-2.69,6.01-6.13-.02-3.5-2.97-6.34-6.55-6.31-3.36.03-6.04,2.67-6.05,5.97Z"/>
  <path class="cls-1" d="M176.65,137.87c.07-4.13-3.29-7.37-7.73-7.46-4.11-.09-7.3,3.11-7.4,7.43-.1,4.21,2.85,7.15,7.27,7.27,4.14.11,7.8-3.26,7.86-7.24Z"/>
  <path class="cls-1" d="M243.52,55.1c-4.93-.08-8.85,3.84-8.94,8.96-.09,4.68,3.21,8.31,7.62,8.38,4.59.07,8.76-4.42,8.87-9.54.09-4.33-3.2-7.73-7.54-7.8Z"/>
  <path class="cls-1" d="M188.44,240.54c.39-3.72-1.36-7.23-4.35-8.73-5.14-2.57-10.86,1.25-11.09,7.34.28,1.25.42,2.54.85,3.73,1.34,3.69,4.98,5.64,8.59,4.71,3.21-.83,5.65-3.69,6-7.05Z"/>
  <path class="cls-1" d="M158.79,244.37c3.26-.01,5.8-2.79,5.82-6.35.01-3.66-2.78-6.62-6.24-6.59-3.33.02-5.87,2.77-5.82,6.3.05,3.69,2.83,6.65,6.24,6.64Z"/>
  <path class="cls-1" d="M183.69,264.4c.08-.05.16-.09.24-.14-.62-1.73-1.01-3.59-1.91-5.16-1.53-2.67-4.04-3.97-7.16-3.68-3.14.29-5.2,2.12-6.29,5.02-1.44,3.84.14,8.38,3.68,10.76,4.37,2.93,9.42,1.11,10.87-3.94.27-.93.38-1.91.56-2.86Z"/>
  <path class="cls-1" d="M168.84,166.73c2.47-.04,4.54-2.15,4.53-4.63-.02-2.21-1.67-3.82-3.91-3.82-2.51,0-4.65,2.17-4.63,4.69.01,2.09,1.83,3.79,4.02,3.76Z"/>
  <path class="cls-1" d="M122.38,263.2c3.57,0,6.43-3.08,6.42-6.92,0-4.24-3.68-7.97-7.85-7.97-3.84,0-6.86,2.94-6.84,6.65.02,4.06,4.21,8.24,8.26,8.24Z"/>
  <path class="cls-1" d="M132.2,280.17c4.33,2.39,8.4-.03,8.4-5.62-.19-2.91-1.58-5.83-4.67-7.69-3.9-2.34-8.26-.15-8.81,4.35-.41,3.38,1.69,7.1,5.08,8.96Z"/>
  <path class="cls-1" d="M118.31,196.05c3.37-.01,6.16-2.7,6.12-5.9-.04-3.47-2.92-6.21-6.5-6.18-3.28.03-5.98,2.74-5.91,5.93.08,3.32,2.98,6.16,6.29,6.15Z"/>
  <path class="cls-1" d="M156.46,153.92c2.72-1.69,3.83-5.04,2.99-7.78-.74-2.41-3.15-3.91-6.32-3.95-2.49-.03-4.57.98-6.38,2.59-.96.85-1.87,1.78-2.71,2.74-1.65,1.89-3.64,3.22-6.07,3.9-3.59,1.01-6.75,2.84-9.89,4.82-2.42,1.53-4.99,2.9-7.65,3.96-4.18,1.67-8.25,3.5-12.02,5.95-2.29,1.49-4.8,2.26-7.54,2.26-.93,0-1.86.01-2.79.05-2.23.09-4.43.34-6.37,1.61-2.27,1.48-3.54,3.94-3.03,6.19.61,2.67,2.43,4.26,5.04,4.67,1.44.23,3.12.23,4.43-.29,2.4-.96,4.73-2.23,6.88-3.67,2.48-1.66,5.03-2.94,7.98-3.47,4.14-.75,7.99-2.3,11.76-4.15,3.06-1.5,6.21-2.83,9.39-4.05,3.02-1.16,5.88-2.57,8.17-4.86,2.36-2.37,5.16-3.55,8.41-4.19,1.99-.39,3.99-1.27,5.72-2.35Z"/>
  <path class="cls-1" d="M143.84,243.26c.08-3.34-2.65-6.34-5.83-6.43-3.17-.08-5.49,2.15-5.56,5.34-.07,3.41,2.68,6.39,5.95,6.46,3.02.06,5.37-2.26,5.45-5.37Z"/>
  <path class="cls-1" d="M144.76,293.27c1.68.04,2.94-1.34,2.96-3.22.02-2.16-1.92-4.17-4-4.16-1.68.01-2.9,1.34-2.9,3.13,0,2.2,1.86,4.2,3.93,4.25Z"/>
  <path class="cls-1" d="M201.49,88.88c4.33-.03,7.8-3.81,7.78-8.45-.03-5.13-2.88-7.91-8.09-7.9-5.22,0-8.75,3.23-8.73,7.97.02,4.92,3.79,8.42,9.04,8.38Z"/>
  <path class="cls-1" d="M281.62,94.12c4.31.02,8.28-3.85,8.29-8.09,0-4.31-3.51-7.76-7.93-7.8-4.23-.04-8.05,3.79-8.07,8.1-.02,4.07,3.64,7.77,7.72,7.79Z"/>
  <path class="cls-1" d="M17.32,157.43c-3.92-.69-6.77,1-8.93,4.16-2.07,3.04-1.5,5.94.39,8.79,1.84,2.78,4.58,3.75,8.17,3.86.43-.05,1.27-.11,2.1-.26,5.33-.97,8.02-6.33,5.59-11.19-1.51-3.03-4.02-4.78-7.32-5.36Z"/>
  <path class="cls-1" d="M29.41,149.24c4.99-2.15,5.62-7.7,1.3-10.92-1.97-1.47-4.21-1.99-6.63-2.02-4.79-.05-9.59-.1-14.38-.25-3.18-.1-6.04.58-8.6,2.57-1.8,1.39-2.34,1.17-3.58-.71-.04-.06-.07-.11-.11-.17v6.39c.83-.69,1.64-.66,2.35.25.58.73,1.13,1.48,1.72,2.2,2.53,3.11,5.68,4.28,9.59,3.05.42-.13.86-.24,1.27-.39,3.07-1.15,6.16-1.11,9.28-.2,1.48.43,3.02.7,4.6,1.05,1.07-.28,2.19-.42,3.19-.85Z"/>
  <path class="cls-1" d="M260.51,80.48c4.36.55,8.83-3.42,8.78-7.81-.04-3.92-3.29-6.47-7.11-5.59-3.87.89-6.83,5.57-5.97,9.43.48,2.16,2.14,3.69,4.3,3.96Z"/>
  <path class="cls-1" d="M291.36,73.74c-.14,2.85,1.29,4.94,3.8,6.22,1.63.83,3.27,1.15,4.84.92v-14.87c-1.25.14-2.51.46-3.65.93-2.97,1.23-4.82,3.5-4.98,6.8Z"/>
  <path class="cls-1" d="M255.67,102.62c.26,4.79,5.32,8.24,9.74,6.57,2.82-1.06,4.91-2.99,6.16-5.75,2.2-4.85-1.44-10.46-6.76-10.47-4.66-.02-9.39,4.98-9.14,9.65Z"/>
  <path class="cls-1" d="M288.43,106.69c-2.6-2-5.45-2.31-8.37-.76-3.68,1.96-6.41,4.88-8.07,8.72-.45,1.04-.63,2.19-.94,3.3.18,4.3,4.3,7.65,8.89,7.12,5.25-.6,10.51-5.5,11.41-10.72.54-3.1-.41-5.73-2.92-7.66Z"/>
  <path class="cls-1" d="M280.61,51.37c2.64.03,5.05-2.43,5.06-5.17,0-2.45-1.85-4.33-4.27-4.32-2.74.02-5.04,2.36-5.05,5.14,0,2.45,1.82,4.32,4.26,4.34Z"/>
  <path class="cls-1" d="M254.27,246.98c1.42-4.76,2.95-9.49,4.66-14.15,3.99-10.82,8.72-21.3,15.23-30.86,4.92-7.22,10.15-14.23,15.2-21.36,3.25-4.61,6.84-8.91,10.64-13.01v-16.29c-.16.15-.31.3-.47.45-1.98,1.91-4.03,3.76-5.91,5.77-3.45,3.69-6.75,7.53-10.21,11.21-5.18,5.49-9.37,11.68-13.46,17.99-3.86,5.96-8.32,11.54-11.38,17.98-3.6,7.57-7.25,15.13-10.53,22.84-2.23,5.26-3.92,10.75-5.73,16.18-.57,1.71-.73,3.55-1.11,5.33-.51,2.33-.83,4.74-1.63,6.97-1.25,3.43-1.43,6.94-1.37,10.5.06,3.77-.54,7.38-1.79,10.97-.71,2.05-.99,4.35-1,6.53-.09,18.47-.13,36.94-.03,55.41.02,2.8.82,5.59,1.26,8.38.46,2.88,1.15,5.75,1.31,8.65.19,3.4.66,6.68,1.7,9.93.62,1.92.79,3.99,1.07,6,.15,1.05.09,2.13.15,3.19.31,5.52,2.37,8.09,9.33,8.92,1.14.14,1.95-.37,2.61-1.26,2.59-3.54,2.82-7.39,1.4-11.39-.56-1.59-1.23-3.15-2.05-4.62-2.08-3.75-3.08-7.73-2.97-12,.12-4.52-.57-8.89-1.86-13.25-.79-2.68-1.07-5.59-1.09-8.4-.13-13.91-.16-27.81-.08-41.72.02-2.76.29-5.64,1.13-8.25,1.25-3.88,1.88-7.75,1.73-11.78-.14-3.9.4-7.64,1.62-11.39,1.45-4.41,2.31-9.02,3.63-13.48Z"/>
  <path class="cls-1" d="M295.28,266.12c.59-2.58.99-5.24,1.88-7.71.93-2.59,1.87-5.19,2.84-7.78v-28.46c-2.99,5.05-5.68,10.28-7.78,15.83-1.96,5.19-4,10.35-5.97,15.53-.39,1.03-.78,2.11-.91,3.19-.42,3.51-1.67,6.8-2.48,10.19-.73,3.11-.84,6.41-.86,9.63-.02,4.22-.42,8.29-1.97,12.27-.68,1.74-.96,3.72-.98,5.6-.11,11.36-.18,22.73-.04,34.09.04,2.88.9,5.75,1.37,8.63.47,2.88,1.44,5.78,1.3,8.63-.4,7.83,1.86,15.01,4.61,22.11,2.15,5.54,4.59,10.97,6.77,16.5,1.32,3.34,3.62,5.38,6.94,6.3v-20.32c-2.61-6.02-4.63-12.21-6.45-18.5-1-3.48-1.09-7.01-1.08-10.56,0-3.81-.58-7.47-1.64-11.14-.73-2.52-1.04-5.23-1.1-7.87-.16-6.26-.04-12.52-.08-18.78-.02-3.01.54-5.88,1.42-8.76.66-2.18,1.01-4.49,1.22-6.77.2-2.16.09-4.35.05-6.52-.06-3.37.48-6.6,1.69-9.77.67-1.76.82-3.71,1.24-5.57Z"/>
  <path class="cls-1" d="M215.05,335.51c1.96.91,3.65.58,5.28-.81,2.9-2.48,3.45-5.72,3.24-9.29-.52-8.91-.85-17.82.23-26.72.32-2.67-.44-4.99-2.52-6.83-2.2-1.95-5.63-2.36-8.48-.93-2.56,1.29-3.69,3.57-3.29,6.8.11.88.28,1.77.58,2.59,1.43,3.91,1.82,7.94,1.6,12.24.24,3.9-.4,7.83-1.69,11.73-1.6,4.87.44,9.09,5.05,11.22Z"/>
  <path class="cls-1" d="M123.93-7.4c-2.82,2.95-5.38,6.17-8.32,8.98-6.31,6.05-12.6,12.13-19.95,16.98-2.99,1.97-5.5,4.67-8.51,6.61-4.28,2.75-8.74,5.26-13.28,7.58-6.33,3.23-12.8,6.16-19.19,9.25-2.82,1.36-5.79,1.95-8.9,1.9-3.71-.07-7.35.25-10.84,1.69-3.33,1.37-6.88,1.22-10.38,1.18-6.04-.08-12.08-.11-18.11-.4-2.36-.11-4.76-.64-7.01-1.37-.67-.21-1.35-.42-2.02-.62v13.16c1.48.16,2.97.23,4.47.2,10.74-.18,21.49-.35,32.23-.46,3.45-.04,6.76-.58,10.05-1.71,2.06-.71,4.33-1.11,6.51-1.11,4.45,0,8.38-1.29,12.27-3.41,4.39-2.4,9.11-4.19,13.6-6.41,10.6-5.23,20.6-11.35,29.09-19.72,1.38-1.36,2.93-2.61,4.53-3.7,5.25-3.59,9.77-7.92,13.81-12.82,1.86-2.25,3.95-4.33,6.09-6.32,6.05-5.65,11.4-11.92,16.64-18.31,1.7-2.07,3.82-3.79,5.77-5.66.86-.83,1.88-1.52,2.62-2.44,1.44-1.79,1.4-4.7-.07-6.44h-8.66c-1.94.92-3.63,2.36-5.04,4.52-2.15,3.31-5.09,6.13-7.82,9.04-3.12,3.33-6.43,6.49-9.59,9.79Z"/>
  <path class="cls-1" d="M151.1,381.83c1.09.6,2.19.49,3.15-.2,1.15-.83,2.27-1.72,3.28-2.7,1.67-1.62,2.21-3.69,2.01-5.97-.22-2.43-1.35-4.49-2.75-6.41-1.72-2.36-2.77-4.95-2.82-7.89-.07-3.9-.82-7.66-2.12-11.34-.41-1.17-.57-2.42-.96-3.6-.78-2.35-1.56-4.71-2.47-7.01-1.62-4.08-3.36-8.11-5.03-12.17-1.21-2.95-2.21-6.01-3.62-8.86-3.94-7.95-8.11-15.79-12.05-23.74-1.98-4-4.67-7.05-8.96-8.61-2.28-.83-2.79-1.89-2.66-4.33.09-1.59.25-3.2.13-4.78-.48-6.11-7.46-9.69-12.76-6.57-.59.35-1.12.9-1.5,1.47-2.07,3.08-1.94,7.26.22,10.27,1.73,2.42,4.06,3.96,6.88,4.74,2.25.62,3.35,1.99,3.36,4.31,0,3.6,1.43,6.71,3.35,9.67,2.56,3.95,5.14,7.89,7.52,11.94,1.37,2.32,2.62,4.77,3.48,7.31,1.42,4.19,3.41,8.08,5.38,12.01,1.5,3,2.86,6.14,3.72,9.36,1.92,7.17,3.98,14.28,7.1,21.03,1.31,2.83,1.73,5.75,1.41,8.83-.1.93-.16,1.86-.23,2.79-.48,4.82,1.79,7.97,6,9.97.32.15.65.29.96.46Z"/>
  <path class="cls-1" d="M178.2,100.57c.62,1.16,1.82,2.25,3.02,2.83,6.36,3.08,13.15-1.15,12.96-8.21-.15-5.89-1.98-7.78-7.87-8.07-8.19-.04-11.08,7.91-8.11,13.44Z"/>
  <path class="cls-1" d="M194.35,124.16c-.03-4.36-3.6-7.93-7.89-7.89-4.34.04-8.2,4.08-8.18,8.55.02,4.19,3.6,7.78,7.72,7.76,4.33-.02,8.37-4.1,8.34-8.42Z"/>
  <path class="cls-1" d="M214.86,55.27c-4.86-.03-8.37,3.26-8.39,7.87-.03,5.2,3.95,9.02,9.43,9.07,4.47.04,7.7-3.32,7.72-8.04.03-5.4-3.38-8.87-8.76-8.9Z"/>
  <path class="cls-1" d="M192.1,328.08c3.67,1.2,7.08-.64,8.03-4.39.25-.98.33-2.01.35-3.03.05-2.35.02-4.7.02-7.05h-.07c0-2.57.04-5.14-.01-7.71-.07-3.09-1.25-5.69-3.68-7.65-1.63-1.32-3.42-1.63-5.34-.69-2.83,1.4-4.13,3.84-4.24,6.87-.05,1.49.21,3,.46,4.49.44,2.66.44,5.29-.2,7.92-.27,1.12-.52,2.26-.6,3.4-.28,3.64,1.83,6.71,5.3,7.84Z"/>
  <path class="cls-1" d="M227.39,90.78c4.82.1,8.45-3.36,8.51-8.1.06-4.67-3.18-7.92-7.93-7.96-4.88-.04-8.11,3.14-8.18,8.03-.06,4.55,3.14,7.94,7.6,8.03Z"/>
  <path class="cls-1" d="M212.93,93.23c-2.35-.02-4.15.66-5.45,2.03-3.12,3.27-6.14,6.64-9.07,10.08-.73.86-1.13,2.13-1.36,3.27-.76,3.87,1.84,7.13,5.65,7.23,1.76.05,3.37-.56,4.66-1.7,3.21-2.86,6.33-5.82,9.47-8.76.42-.39.77-.87,1.09-1.34,1.48-2.2,2.06-4.55.78-7.03-1.27-2.46-3.4-3.65-5.76-3.77Z"/>
  <path class="cls-1" d="M209.73,166.61c2.28,1.72,4.86,2.04,7.42.81,3.76-1.81,5.62-4.99,5.98-8.75-.09-3.14-1.03-5.52-3.53-6.97-2.61-1.52-5.31-1.36-7.83.23-2.81,1.78-4.47,4.4-4.97,7.69-.44,2.9.62,5.25,2.93,6.99Z"/>
  <path class="cls-1" d="M268.76,21c-3.15-.05-4.98.82-6.59,2.15-4.21,3.48-6.64,8.16-8.52,13.14-.92,2.43-1.02,5,1.17,6.89,2.21,1.9,4.79,1.44,6.96.04,3.42-2.2,6.73-4.61,9.87-7.18,1.31-1.08,2.33-2.71,3.05-4.29,2.3-4.99-1.44-10.69-5.94-10.75Z"/>
  <path class="cls-1" d="M202.06,146.83c3.62-.7,6.79-4.51,6.83-8.2.04-3.26-2.35-5.68-5.59-5.67-3.86.02-7.88,3.72-8.23,7.58-.37,4.15,2.9,7.09,6.99,6.3Z"/>
  <path class="cls-1" d="M167.51,119.63c5.19.01,9.05-3.51,9.05-8.26,0-5.17-4-9.26-9.03-9.25-4.77.01-8.09,3.77-8.08,9.16,0,5.27,2.97,8.34,8.06,8.36Z"/>
  <path class="cls-1" d="M248.41,110.83c-4.52-.77-9.77,3.15-10.49,7.83-.69,4.55,2.92,8.74,7.51,8.72,3.26-.02,6.74-2.44,8.44-5.88,2.25-4.55-.44-9.81-5.46-10.67Z"/>
  <path class="cls-1" d="M180.29,181.59c2.36.06,4.41-2.06,4.39-4.55-.01-2.14-1.59-3.84-3.57-3.86-2.3-.02-4.25,2.11-4.31,4.68-.05,2.08,1.45,3.68,3.49,3.73Z"/>
  <path class="cls-1" d="M168.56,91.41c3.31-1.71,5.73-4.35,6.95-7.91,1.92-5.57-2.75-11.05-8.57-10.13-4.87.77-9.7,6.35-9.76,11.89.05,2.21.67,4.79,3.53,6.14,2.59,1.23,5.3,1.32,7.85,0Z"/>
  <path class="cls-1" d="M185.6,72.88c4.37-1.12,7.34-3.87,8.61-8.24,1.52-5.22-1.62-9.38-7.06-9.47-4.35-.07-8.09,2.36-10.26,6.62-1.46,2.86-1.26,5.59.74,8.09,2.04,2.56,4.7,3.83,7.98,2.99Z"/>
  <path class="cls-1" d="M229.83,146.47c4.61.04,8.32-3.65,8.38-8.36.07-4.67-3.16-7.92-7.91-7.97-4.47-.05-7.9,3.5-7.93,8.22-.03,4.4,3.35,8.08,7.46,8.12Z"/>
  <path class="cls-1" d="M27.72,223.15c-.03-1.97-.72-3.71-2.06-5.2-1.63-1.81-3.78-2.53-6.02-3.21-2.67-.81-5.35-1.63-7.91-2.71-4.49-1.9-8.88-4.05-13.34-6.02-.33-.14-.65-.29-.98-.43v14.28c5.41,1.68,10.71,3.6,15.34,7.04,2.06,1.53,4.5,2.28,7.2,2.57,1.6-.47,3.24-.84,4.79-1.43,2.19-.84,3.01-2.66,2.98-4.88Z"/>
  <path class="cls-1" d="M88.21-25.89c-7.08,5.12-14.24,10.14-21.5,15-3.11,2.09-6.55,3.7-9.86,5.49-2.14,1.16-4.45,2.06-6.45,3.43-4.38,3-9.06,4.65-14.43,4.01-3.84-.14-7.57.36-11.26,1.58-4.43,1.46-8.96,1.27-13.38-.11C7.21,2.22,3.03,1.6-1.26,1.68c-.45,0-.89,0-1.33-.02v10.72c2.54.18,5.04.64,7.54,1.33,2.07.58,4.28.85,6.43.88,5.15.06,10.3,0,15.44-.22,1.97-.08,3.97-.52,5.85-1.12,3.03-.97,6.07-1.67,9.27-1.55,4.39.16,8.38-.9,12.08-3.39,2.38-1.6,5.11-2.67,7.58-4.15,4.49-2.68,8.94-5.44,13.34-8.27,7.37-4.73,14.24-10.13,20.85-15.87,3.04-2.64,6.43-4.88,9.48-7.52,1.12-.97,2.11-2.09,3.07-3.25h-14.4c-1.85,1.7-3.71,3.41-5.73,4.87Z"/>
  <path class="cls-1" d="M238.75,222.99c4.01-9.23,8.65-18.19,13.1-27.22,2.13-4.33,4.92-8.21,8.38-11.61.78-.77,1.47-1.67,2.05-2.61,2.08-3.4,1.26-7.69-1.84-10.01-2.86-2.14-7.13-1.59-9.69,1.46-1.18,1.41-2.01,3.11-2.94,4.72-1.68,2.91-3.3,5.86-4.97,8.78-.4.69-.91,1.32-1.28,2.03-2.76,5.27-5.65,10.47-8.19,15.84-3.04,6.41-5.81,12.95-8.63,19.47-.52,1.21-.93,2.54-1.03,3.84-.42,5.56-2.72,10.53-4.73,15.6-1.09,2.76-2.31,5.5-3.07,8.36-1.24,4.63,2.62,9.53,7.26,9.57,3.03.02,5.78-1.87,6.85-5.18.73-2.25.99-4.67,1.37-7.02.39-2.4.37-4.92,1.07-7.22,1.91-6.32,3.67-12.74,6.29-18.78Z"/>
  <path class="cls-1" d="M119.96-29.63c-5.69,5.21-11.28,10.56-17.18,15.52-7.61,6.38-15.27,12.74-23.31,18.57-10.95,7.95-23.28,13.42-35.96,18.01-2.21.8-4.67,1.16-7.02,1.22-6.21.17-12.43.06-18.64.06,0-.17,0-.34,0-.5-6.03,0-12.07-.01-18.11,0-.79,0-1.56-.04-2.33-.11v11.55c9.4-.18,18.8-.34,28.2-.49,5.64-.08,11.28.02,16.91-.21,2.44-.1,5.03-.42,7.26-1.33,5.99-2.46,11.9-5.14,17.69-8.04,7.14-3.58,14.07-7.49,20.18-12.81,4.34-3.78,9.24-6.91,13.73-10.52,2.62-2.11,4.94-4.58,7.39-6.9,4.09-3.87,8.23-7.7,12.26-11.63,4.58-4.47,9.08-9.02,13.64-13.52h-13.63c-.35.39-.72.77-1.1,1.13Z"/>
  <path class="cls-1" d="M210.98,238.01c2.69-3.07,3.53-6.78,3.52-10.76.11-.03.23-.05.34-.08-.52-2.09-.81-4.27-1.62-6.23-.99-2.38-3.01-3.5-5.68-3.27-3.35.29-5.86,1.91-7.12,4.99-.99,2.41-1.74,4.94-2.28,7.49-.56,2.6,0,5.11,1.63,7.31,2.89,3.92,8.03,4.2,11.23.55Z"/>
  <path class="cls-1" d="M204.32,282.98c-.08-2.43-.69-4.91-2.21-7.08-3.21-4.6-10.97-4.34-13.36.44-2.69,5.37-.27,12.79,5.05,15.53,1.59.82,3.21.91,4.89.31,3.36-1.21,5.64-4.85,5.64-9.2Z"/>
  <path class="cls-1" d="M211.21,274.63c.39,1.58.61,3.23,1.19,4.73,1.2,3.1,4.32,4.98,7.71,4.88,3.53-.11,6.23-1.98,7.39-5.13,1.74-4.7-1.11-10.32-5.92-11.72-5.71-1.65-10.13,1.48-10.37,7.23Z"/>
  <path class="cls-1" d="M136.76,396.41c2.78-3.03,3.15-6.62,2.6-10.47-.41-2.84-1.81-4.96-4.41-6.25-.91-.45-1.83-.92-2.71-1.43-.8-.47-.95-1.16-.39-1.91.55-.75,1.16-1.46,1.76-2.17,1.86-2.16,2.43-4.65,1.6-7.34-.59-1.9-1.49-3.7-2.25-5.54-.66-1.6-1.54-3.14-1.96-4.8-2.39-9.38-6.02-18.3-9.94-27.1-4.12-9.24-8.4-18.42-14.04-26.88-.93-1.4-1.82-2.84-2.62-4.33-2.3-4.29-5.09-8.23-8.34-11.84-2.46-2.74-4.21-5.89-5.67-9.27-.91-2.09-1.96-4.22-3.38-5.98-2.02-2.5-4.89-3.38-8.05-2.44-2.9.86-4.36,3.1-4.94,5.92-.5,2.45.44,4.58,1.94,6.42,1.08,1.34,2.3,2.62,3.66,3.66,3.24,2.49,5.57,5.65,7.51,9.21,1.26,2.32,2.88,4.46,4.35,6.66,2.09,3.13,4.38,6.15,6.25,9.4,5.29,9.2,10.14,18.65,14.12,28.5,3.98,9.85,7.36,19.91,9.44,30.35.61,3.03,1.99,5.45,4.43,7.33,2.17,1.68,2.21,1.91.59,4.2-2.5,3.53-2.87,7.43-1.81,11.44.4,1.52,1.47,2.9,2.37,4.25.26.4.53.78.74,1.18h8.59c.14-.27.33-.53.56-.78Z"/>
  <path class="cls-1" d="M293.19,395.55c.07-2.78-1.27-4.69-3.82-5.64-1.48-.56-3.06-.89-4.62-1.2-1.35-.27-2.73-.37-4.09-.57-1.03-.15-1.46-.75-.9-1.68,2.36-3.97,1.46-7.65-.62-11.45-1.85-3.37-3.53-6.88-4.89-10.48-.97-2.58-1.31-5.4-1.89-8.12-.59-2.77-.97-5.59-1.75-8.31-.85-2.98-1.34-5.97-1.35-9.05,0-2.4-.06-4.8-.02-7.19.08-4.03-.51-7.93-1.7-11.8-1.57-5.09-1.48-10.17.33-15.29.84-2.37,1.13-5.02,1.26-7.56.2-3.81.07-7.63.05-11.45-.02-2.83.35-5.58,1.39-8.22,1.14-2.9,1.6-5.91,1.55-9-.05-3.37.75-6.55,1.57-9.8,2.44-9.6,6.74-18.51,9.99-27.8,2.15-6.16,5.84-11.55,9.13-17.13,2.14-3.64,4.62-7.03,7.18-10.36v-19.51c-2.45,3.07-4.86,6.19-7.26,9.31-6.59,8.56-12.36,17.59-17.14,27.22-2.91,5.87-5.19,12.07-7.57,18.18-1.89,4.83-3.64,9.73-5.18,14.68-.73,2.34-1.03,4.86-1.15,7.32-.16,3.45-.69,6.74-1.77,10.04-.81,2.48-1.03,5.2-1.18,7.84-.21,3.72-.14,7.46-.14,11.18,0,2.83-.67,5.5-1.48,8.21-.77,2.56-1.31,5.26-1.47,7.93-.24,4.07-.22,8.17,0,12.25.15,2.81.53,5.68,1.33,8.37,1.08,3.63,1.68,7.25,1.6,11.01-.04,2.04-.02,4.08-.02,6.13-.01,3.66.44,7.23,1.5,10.77.72,2.4,1.06,4.94,1.28,7.45.25,2.93.84,5.7,2.34,8.25,1.85,3.14,3.13,6.45,3.48,10.11.36,3.69,2.46,5.87,6.05,6.66,1.21.27,2.42.57,3.64.81,1.35.27,1.47.56.73,1.77-.58.95-1.2,1.88-1.62,2.9-.73,1.8-.77,3.47-.21,4.86h17.36c.04-.55.07-1.09.08-1.64Z"/>
  <path class="cls-1" d="M116.26,397.19c-.5-5.36-1.01-10.73-1.75-16.06-.41-2.96-1.41-5.87-2.41-8.7-1.14-3.19-1.95-6.42-2.62-9.75-.57-2.88-1.72-5.67-2.79-8.43-2.23-5.75-4.46-11.5-6.89-17.17-3.78-8.84-8.4-17.26-13.56-25.34-4.8-7.51-9.79-14.93-15.25-21.97-3.29-4.25-6.88-8.22-9.34-13.05-.54-1.06-1.27-2.04-2.05-2.94-2.4-2.8-5.5-3.78-9.1-3.2-1.98.32-3.29,1.47-3.77,3.47-.78,3.3-.12,6.31,2.18,8.8,1.28,1.39,2.95,2.42,4.3,3.76,2.01,1.99,4.06,3.97,5.78,6.2,2.68,3.48,5.03,7.2,7.64,10.74,6.41,8.7,12.24,17.76,17.35,27.29,5.94,11.09,9.98,22.95,13.92,34.83,1.09,3.28,1.88,6.67,2.61,10.05.41,1.89.35,3.88.6,5.81.37,2.8.56,5.67,1.32,8.37.69,2.43.92,4.86.94,7.31h12.86Z"/>
  <path class="cls-1" d="M69.37,384.97c-.1-3.73-.74-7.31-2.24-10.74-3.42-7.8-6.47-15.79-10.26-23.4-3.62-7.26-8.02-14.12-12.02-21.19-1.96-3.46-4.53-6.44-7.05-9.49-2.71-3.27-4.87-7.02-7.69-10.18-4.72-5.3-9.75-10.32-14.71-15.4-3.22-3.3-6.33-6.77-9.88-9.68-2.62-2.15-5.31-4.19-8.09-6.12v15.05c1.45,1.17,2.86,2.4,4.23,3.68,1.43,1.33,2.95,2.56,4.55,3.68,4.25,2.97,7.52,6.85,10.6,10.95,1.25,1.66,2.63,3.24,4.06,4.76,8.27,8.8,14.6,18.93,20.51,29.39,5.21,9.23,9.62,18.8,13.11,28.8.66,1.89,1.4,3.76,1.85,5.7.52,2.23.88,4.52,1.09,6.8.17,1.89.04,3.81.04,5.72-.15,0-.3,0-.45,0,0,1.31,0,2.61,0,3.92h12.83c-.15-4.07-.33-8.14-.45-12.22Z"/>
  <path class="cls-1" d="M92.84,390.55c-.09-3.62-.63-7.13-1.92-10.55-.68-1.8-1.06-3.77-1.26-5.69-.34-3.26-1.15-6.34-2.47-9.35-2.26-5.17-4.34-10.41-6.46-15.63-3.39-8.34-7.84-16.11-12.46-23.81-5.21-8.7-11.23-16.81-17.44-24.81-4.63-5.97-9.34-11.85-14.63-17.25-11.13-11.35-23.49-21.15-37.33-28.98-.48-.27-.97-.53-1.45-.8v13.99c3.29,1.89,6.42,4.08,9.65,6.1,8.9,5.55,15.72,13.37,23.16,20.53,4.74,4.56,9.13,9.4,12.83,14.91,2.79,4.15,6.4,7.76,9.07,11.97,4.92,7.75,9.9,15.53,13.94,23.75,4.12,8.38,7.23,17.27,10.61,26,.77,1.99.91,4.23,1.28,6.36.45,2.61.57,5.32,1.31,7.84,1.04,3.53,1.34,7.05.88,10.66,0,.46,0,.93,0,1.39h12.95c-.1-2.21-.2-4.42-.25-6.64Z"/>
  <path class="cls-1" d="M298.36,106.84c.53.16,1.08.28,1.64.36v-16.55c-1.89.41-3.61,1.32-5.11,2.87-3.99,4.14-2.02,11.69,3.47,13.33Z"/>
  <path class="cls-1" d="M162.31,268.35c.02-4.65-3.9-8.84-8.31-8.87-3.91-.02-7.02,3.29-7.03,7.48-.01,4.79,3.67,8.79,8.12,8.83,4.02.04,7.21-3.25,7.23-7.45Z"/>
  <path class="cls-1" d="M300,133.02v-15.75c-2.81,1.41-4.71,4.54-4.69,8.28.02,3.39,1.9,6.19,4.69,7.47Z"/>
  <path class="cls-1" d="M272.91-6.01c-.98-.26-2-.35-2.51-.44-3.1.06-5.51.66-7.59,2.28-4.21,3.29-4.25,9.03-.09,12.05,4.6,3.33,11.67,1.86,14.58-3.03,2.59-4.37.53-9.53-4.38-10.86Z"/>
  <path class="cls-1" d="M297.84-5.74c-2.89.71-4.77,3.11-5.02,6.46-.04.53-.05,1.06-.04,1.6.04,2.55-.25,2.89-2.79,2.77-2.55-.13-4.93.24-7.14,1.63-3.76,2.36-4.97,6.69-2.79,10.24,2.26,3.68,7.27,5,10.84,2.75,3.11-1.96,4.56-4.86,4.39-8.55-.17-3.71-.25-3.81,3.66-3.54.35-.02.7-.03,1.05-.04V-6c-.71,0-1.44.08-2.16.26Z"/>
  <path class="cls-1" d="M237.23,17.54c-.79.89-1.31,2.12-1.65,3.29-1.32,4.56,2.1,9.07,6.86,9.28,1.15-.29,2.4-.39,3.43-.91,4.81-2.43,8.48-6.11,10.92-10.88,1.51-2.94.71-6.11-1.7-8.37-3.05-2.86-7.04-3.01-10.46-.01-2.66,2.33-5.05,4.97-7.41,7.61Z"/>
  <path class="cls-1" d="M268.89,168.07c5.42-.05,9.08-3.43,9.06-8.35-.02-5.08-3.62-8.46-8.96-8.42-4.87.04-8.11,3.65-8.05,8.96.06,4.97,2.98,7.85,7.94,7.8Z"/>
  <path class="cls-1" d="M209.74,180.99c0-4.34-3.29-7.66-7.55-7.64-4.42.02-8.17,3.93-8.16,8.51.01,4.41,3.42,8.05,7.56,8.07,4.54.02,8.16-3.95,8.15-8.93Z"/>
  <path class="cls-1" d="M193.44,195.17c-3.15-.51-6.41,1.54-7.49,4.88-.4,1.25-.7,2.62-.61,3.91.23,3.49-.83,6.36-3.13,9.01-1.07,1.24-1.78,2.99-2.14,4.62-.65,2.99,1.21,6.05,3.94,7.09,2.61,1,5.57-.03,7.21-2.73.77-1.26,1.44-2.73,1.62-4.17.46-3.84,1.94-7.13,4.4-10.08,1.27-1.52,1.96-3.37,1.96-5.41,0-3.58-2.44-6.59-5.77-7.13Z"/>
  <path class="cls-1" d="M205.69,263.91c3.05-4.16,2.91-10.4-.32-14.42-3.81-4.73-10.88-3.9-13.34,1.65-.68,1.54-.85,3.31-1.26,4.98.27,4.05,1.56,7.03,4.14,9,3.55,2.71,8.29,2.18,10.78-1.21Z"/>
  <path class="cls-1" d="M218.71,212.61c1.23-1.16,2.34-2.62,3.04-4.15,1.73-3.83,3.38-7.73,4.72-11.71,1.6-4.78,3.42-9.33,7.41-12.68.7-.59,1.25-1.38,1.79-2.14,1.9-2.71,2.59-5.72,2-8.98-.53-2.93-2.27-4.79-4.78-5.26-4.15-.79-8.16,1.4-9.61,5.36-.78,2.12-1.52,4.27-2.03,6.47-.85,3.65-2.57,6.73-5.17,9.43-3.49,3.62-5.49,8.14-7.11,12.82-.49,1.4-.57,2.95-.85,4.53.23,1.21.33,2.51.72,3.72,1.51,4.69,6.29,5.98,9.89,2.6Z"/>
  <path class="cls-1" d="M251.65,157.85c-.02-4.78-4.22-8.98-8.95-8.96-4.69.02-8.22,3.9-8.2,8.99.03,5.3,3.21,8.86,7.89,8.84,4.81-.02,9.27-4.3,9.26-8.88Z"/>
  <path class="cls-1" d="M262.28,146.13c2.61-1.93,4.67-4.35,6.12-7.25,1.65-3.31,1.23-7.13-.89-9.34-2.15-2.24-6.03-2.79-9.42-1.25-3.24,1.47-5.8,3.81-7.61,6.83-3.52,5.88-.07,12.55,6.65,12.57,1.71.03,3.56-.38,5.15-1.56Z"/>
  <path class="cls-1" d="M285.22,150.48c4.23-.03,8.25-3.09,9.43-7.16,1.48-5.12-2.76-9.89-8.82-9.91-4.72-.02-8.66,2.92-9.44,7.04-1,5.29,3.21,10.07,8.83,10.02Z"/>
  <path class="cls-1" d="M50.69,208.66c-.54-1.26-1.42-2.5-2.46-3.39-2.87-2.47-6.29-2.69-9.8-1.72-4.07,1.12-4.91,2.58-4.04,6.71.03.13.05.26.08.39,1.01,4.48,4.28,7.08,8.91,7.21,1.12-.23,2.28-.35,3.37-.7,3.77-1.22,5.5-4.85,3.94-8.5Z"/>
  <path class="cls-1" d="M34.66,252.49c-4.98.57-7.49,4.16-6.34,9.04,1.29,5.45,6.47,8.88,11.97,7.93,3.29-.57,4.8-2.07,5.33-5.37.1-.61.11-1.23.13-1.46.02-6.36-5.07-10.83-11.1-10.13Z"/>
  <path class="cls-1" d="M51.06,251.81c3.44,4.06,6.87,8.13,10.41,12.1,1.98,2.22,4.56,3.34,7.57,3.36,5.15.05,8.04-4.25,6.1-9.03-.82-2.01-2.19-3.59-3.99-4.7-3.74-2.3-6.62-5.43-9.36-8.79-1.13-1.38-2.59-2.57-4.1-3.55-2.03-1.32-4.24-1.2-6.29.12-1.96,1.26-2.61,3.18-2.47,5.41.12,1.93.9,3.63,2.13,5.08Z"/>
  <path class="cls-1" d="M233.43-6.12c-1.75.37-3.59,1.18-4.97,2.3-2.88,2.34-5.5,5.02-8.21,7.58-.32.3-.6.66-.85,1.02-1.56,2.17-2.2,4.5-.87,6.98,1.34,2.5,3.57,3.6,6.36,3.66,2.7-.12,5.01-1.18,6.92-3.04,2.35-2.29,4.62-4.66,6.87-7.05.57-.6,1.01-1.35,1.39-2.1,1.14-2.22,1.23-4.48-.3-6.54-1.55-2.1-3.73-3.36-6.34-2.81Z"/>
  <path class="cls-1" d="M160.1,311.04c-.2-4.41-1.77-7.99-5.36-10.48-3.54-2.45-7.47-.85-8.29,3.38-.22,1.11-.24,2.31-.09,3.43.45,3.28,1.63,6.27,4.06,8.62,1.59,1.54,3.48,2.33,5.71,1.65,2.19-.67,3.21-2.4,3.71-4.49.18-.73.19-1.49.26-2.11Z"/>
  <path class="cls-1" d="M95.17,266.18c3.12.22,5.81-.63,7.46-3.58,1.67-2.97,1.92-5.99.14-8.98-1.94-3.27-4.9-4.9-7.97-5.05-5.31.01-8.01,2.31-8.55,6.66-.66,5.37,3.53,10.56,8.92,10.95Z"/>
  <path class="cls-1" d="M87.12,242.76c1.79-6.38-3.63-12.86-10.2-11.96-5.4.75-7.21,3.19-7.24,7.1.03,4.36,4.27,9.23,8.82,10.14,3.96.79,7.53-1.4,8.62-5.29Z"/>
  <path class="cls-1" d="M46.72,232.89c-.76-4.07-4.37-6.71-9.08-7.06-1.87.49-3.77.88-5.6,1.51-1.4.48-2.36,1.56-2.75,3.04-1.22,4.61,1.01,9.59,5.3,11.66,3.14,1.51,6.31,1.61,9.18-.57,2.83-2.15,3.58-5.21,2.95-8.58Z"/>
  <path class="cls-1" d="M174.81-3.62c-3.54,6.19-8.45,11.26-12.69,16.88-4.6,6.1-10.32,11.13-15.15,16.97-5.81,7.02-12.92,12.66-19.44,18.94-7.83,7.55-16.89,13.34-25.93,19.24-8.17,5.34-16.94,9.31-26.02,12.71-4.82,1.81-9.62,3.69-14.51,5.27-2.29.74-4.77,1.02-7.18,1.17-2.91.18-5.7.63-8.47,1.57-1.87.63-3.9,1.12-5.85,1.11-14.05-.14-28.1-.38-42.15-.67v12.16c14.8-.3,29.61-.54,44.41-.69,4.57-.05,8.98-.46,13.32-2.1,2.1-.8,4.54-.67,6.8-1.1,2.42-.46,4.9-.85,7.21-1.68,5.68-2.03,11.29-4.25,16.91-6.46,9.72-3.83,18.66-9.1,27.34-14.85,11.75-7.8,22.78-16.49,32.62-26.65,4.94-5.1,10.22-9.9,14.94-15.19,4.98-5.59,9.61-11.52,14.16-17.48,3.55-4.65,7.35-9,11.97-12.61.86-.67,1.66-1.5,2.28-2.4,2.08-3.06.87-6.61-2.6-7.88-4.16-1.52-9.75-.08-11.94,3.74Z"/>
  <path class="cls-1" d="M220.2-15.73c-2.46-1.84-5.15-2-7.93-.84-3.6,1.51-6.5,3.97-9.03,6.86-1.7,1.94-2.33,4.2-1.12,6.65,1.27,2.58,3.39,3.89,6.28,3.93,2,.05,3.83-.56,5.3-1.84,2.38-2.06,4.65-4.24,6.88-6.45.61-.6,1.03-1.45,1.35-2.26.9-2.26.23-4.59-1.72-6.05Z"/>
  <path class="cls-1" d="M32.32,203.67c-.13-4.01-2.48-7.58-6.32-8.68-4.2-1.2-8.03-2.98-11.6-5.48-1.95-1.36-4.29-1.66-6.63-1.64-2.41.02-4.55-.61-6.37-2.25-1.27-1.14-2.61-2.1-4-2.91v12.06c.37-.02.75-.04,1.12-.08,2.3-.22,4.3.42,6.02,1.96,2.2,1.95,4.79,3.11,7.53,4.12,2.13.79,4.09,2.08,6.1,3.19,2.01,1.11,3.9,2.48,6,3.38,2.44,1.04,4.79.29,6.92-1.17.88-.61,1.26-1.43,1.22-2.5Z"/>
  <path class="cls-1" d="M169.34-20.51c-4.53-.66-9.18.48-11.55,5.16-1.99,3.94-4.92,7.14-7.89,10.33-2.99,3.21-5.69,6.71-8.78,9.82-3.7,3.73-7.23,7.57-10.46,11.71-3.71,4.75-8.24,8.67-13,12.35-3.68,2.84-7.33,5.75-10.77,8.88-5.51,5.01-11.88,8.67-18.2,12.46-8.69,5.21-18.06,9-27.43,12.61-7.09,2.73-14.51,5.07-22.42,4.35-3.53-.32-6.98.32-10.31,1.62-1.02.4-2.13.76-3.22.8-7.13.28-14.3.98-21.22-1.57-2.17-.8-4.41-1.23-6.68-1.43v12.94c3.73,1.09,7.49,1.51,11.37,1.41,7.1-.18,14.21-.16,21.31-.42,2.27-.08,4.59-.58,6.75-1.29,2.91-.96,5.82-1.53,8.87-1.51,2,0,4,.01,5.99-.14,1.63-.13,3.3-.29,4.84-.79,10.4-3.37,20.64-7.22,30.37-12.19,8.29-4.23,16.1-9.28,23.6-14.92,6.57-4.94,12.54-10.48,18.4-16.14,7.3-7.06,14.41-14.34,21.29-21.81,4.77-5.18,8.95-10.9,13.53-16.26,1.66-1.94,3.73-3.53,5.59-5.3,1.12-1.06,2.41-2.02,3.27-3.27,2.06-3.02.37-6.86-3.25-7.39Z"/>
  <path class="cls-1" d="M10.54,250.82c1.71,1.42,3.73,2.52,5.73,3.53.94.47,2.16.52,3.25.52,3.59-.01,5.7-2.1,5.89-5.67.26-4.77-1.99-8.22-6.47-9.92-.33-.13-.66-.28-1.01-.34-5.4-1.02-9.96-3.84-14.58-6.61-1.85-1.11-3.88-2-5.94-2.71v13.85c.53.2,1.07.39,1.61.58,4.3,1.5,8.03,3.88,11.52,6.78Z"/>
</svg>