<?xml version="1.0" encoding="UTF-8"?>
<svg id="Layer_1" xmlns="http://www.w3.org/2000/svg" viewBox="0 0 300 300">
  <defs>
    <style>
      .cls-1 {
        fill: #c0d544;
      }
    </style>
  </defs>
  <path class="cls-1" d="M86.83,258.66c-3,4.97-6.1,9.88-9.04,14.88-.77,1.31-1.29,2.85-1.54,4.36-.25,1.52.38,2.95,1.92,3.62,1.55.67,2.89.06,3.97-1.08.65-.69,1.16-1.52,1.71-2.3.93-1.32,1.71-2.79,2.81-3.94,2.58-2.71,4.45-5.7,5.13-9.44.4-2.22,1.93-3.7,4.15-3.84,3.36-.21,6.76-.21,10.12,0,2.14.13,3.92,1.5,4.06,3.68.26,3.86.34,7.78-.03,11.62-.26,2.71-2.97,3.69-5.33,2.27-1.07-.64-1.98-1.55-2.96-2.35-1.96-1.61-4.02-1.98-5.99-.5-3.06,2.3-5.98,4.82-8.81,7.4-1.35,1.23-1.47,2.84-.77,4.01.7,1.17,2.4,1.93,4.01,1.5,1.29-.35,2.6-.9,3.71-1.64,2.47-1.66,4.98-1.78,7.81-1.09,2.58.63,5.27,1.05,7.91,1.05,5.19,0,7.8-2.7,7.99-7.89.1-2.68.02-5.36.02-8.04h.04c0-2.48.05-4.96,0-7.43-.15-6.07-3.68-9.66-9.77-9.92-2.17-.09-4.35-.02-6.52-.08-4.21-.11-5.65-1.62-5.93-5.8-.14-2.1-.55-4.19-.9-6.28-.35-2.09-.91-4.15-1.13-6.24-.43-4.04-1.62-5.55-5.63-6.04-3.48-.43-5.88-2.16-7.57-5.14-.62-1.09-1.35-2.16-2.24-3.02-1.37-1.34-3.4-1.13-4.57.29-2.34,2.85-1.29,8.8,1.92,10.6,1.05.59,2.23.95,3.32,1.48,4.25,2.1,8.26,4.82,9.07,9.72.7,4.21.22,8.64.12,12.96-.02.9-.56,1.84-1.05,2.65Z"/>
  <path class="cls-1" d="M78.37,211.88c1.44.67,2.74.21,3.77-.78.82-.79,1.54-1.75,2.05-2.77.55-1.12.88-2.37,1.17-3.59.64-2.69,2.24-4.37,4.96-4.91,2.76-.55,4.87-2.01,6.62-4.21,2.49-3.13,4.14-3.13,7.28-.71,1.36,1.05,3.03,2.35,4.59,2.4,8.28.25,16.57.33,24.84.05,3.52-.12,5.67-2.78,6.14-6.3.2-1.5.28-3.02.29-4.54.05-6.42.03-12.85.09-19.27.02-2.63,1.02-4.84,3.64-5.75,3.31-1.15,6-3.13,8.28-5.69,2.95-3.3,6.56-4.89,11-4.87,1.42,0,2.92-.36,4.26-.87,1.71-.65,2.58-2.06,2.5-3.95-.07-1.66-1.17-3.28-2.96-3.63-4.79-.94-9.49-1.06-13.34,2.74-2.52,2.49-5.04,4.98-7.61,7.41-.87.82-1.84,1.6-2.9,2.17-2.54,1.37-4.89.65-6.32-1.87-.55-.96-.97-2-1.47-2.99-.9-1.77-2.32-3.09-4.24-3.4-4.98-.79-9.9-1.05-14.59,1.66-1.81,1.04-4.06,1.49-6.16,1.78-2.29.31-4.64.12-6.97.12-3.45,0-6.44,1.06-8.89,3.57-1.69,1.74-3.53,3.34-5.21,5.09-.9.94-1.72,2-2.37,3.13-.99,1.74-.68,3.61.57,4.74,1.17,1.05,3.12,1.24,4.64.06,1.37-1.06,2.78-2.31,3.62-3.79,2.48-4.36,6.14-6.08,10.99-5.68.81.07,1.62.02,2.43.07,3.53.24,5.43,2.03,5.53,5.58.15,5.23.66,10.48-2.42,15.3-1.5,2.36-.26,4.7,2.52,5.04,2.63.32,5.38.35,7.98-.06,3.29-.52,4.2-3.25,2.35-6.04-.33-.51-.69-1-1.07-1.47-1.35-1.68-2.05-3.59-2.04-5.74.02-4.05-.1-8.07-1.23-12.02-.67-2.32.9-4.19,3.34-4.4,1.97-.17,3.69.5,5.15,1.81,2.39,2.14,3.63,4.84,3.68,8.04.06,3.54.01,7.08.01,10.62,0,0,0,0,0,0,0,3.64.09,7.28-.02,10.92-.11,3.74-1.66,5.44-5.35,5.62-4.08.19-8.19.11-12.28.03-4.01-.07-7.43-1.84-10.6-4.09-2.84-2.01-3.65-5.19-2.17-8.34.59-1.25,1.53-2.36,2.43-3.44.87-1.04,1.96-1.91,2.83-2.95,1.78-2.11,1.96-4.59.53-6.06-1.41-1.46-3.72-1.43-5.88.47-1.96,1.73-3.71,3.71-5.43,5.69-1.57,1.82-2.26,4.04-2.37,6.43-.09,1.92-.16,3.84-.18,5.76-.03,3.03-1.25,5.45-3.5,7.44-1.83,1.62-3.91,2.72-6.33,3.04-3.83.5-5.97,2.64-6.59,6.43-.25,1.49-.7,2.95-.99,4.44-.2,1.04-.41,2.1-.42,3.15-.02,1.42.37,2.73,1.81,3.4Z"/>
  <path class="cls-1" d="M129,235.48c.03,1.25.21,2.54.59,3.72.62,1.9,2.45,2.9,4.43,2.67,2.01-.24,3.61-1.76,3.7-3.79.05-1.13-.27-2.28-.45-3.42-.43-2.73-1.14-5.45-1.24-8.19-.2-5.66-.05-11.33-.1-16.99-.01-1.2-.15-2.44-.51-3.57-.61-1.9-2.38-2.9-4.26-2.66-2,.25-3.68,1.81-3.76,3.76-.05,1.18.27,2.39.45,3.58.35,2.39.88,4.76,1.05,7.16.18,2.67.04,5.36.04,8.04h.03c0,3.24-.05,6.47.03,9.71Z"/>
  <path class="cls-1" d="M176.59,86.46c-.03-1.25-.13-2.53-.43-3.74-.33-1.37-1.26-2.34-2.75-2.45-1.52-.11-2.53.78-3.03,2.08-.42,1.11-.72,2.34-.74,3.53-.07,6.17-.07,12.33-.02,18.5,0,1.04.26,2.11.58,3.1.36,1.13,1.18,1.87,2.45,1.94,1.23.07,2.31-.4,2.76-1.49.55-1.33,1.02-2.77,1.1-4.18.16-3.02.05-6.06.05-9.1h.04c0-2.73.04-5.46-.02-8.19Z"/>
  <path class="cls-1" d="M143.97-34.05c.53,2.14.92,4.37.98,6.56.14,5.15.09,10.32.05,15.47-.03,3.8,1.13,7.04,3.98,9.63,1.08.99,2.06,2.09,3.13,3.1,2.19,2.06,3.22,4.6,3.21,7.59,0,2.78-.01,5.56.05,8.34.1,4.48,1.57,5.94,5.92,6.78,2.7.52,5.34,1.47,7.94,2.43,2.49.93,3.79,2.94,4.11,5.56.15,1.25.19,2.52.36,3.77.51,3.61,2.61,5.68,6.24,6.19,1.15.16,2.31.28,3.45.52,1.55.34,3.03,1.13,3.5,2.64,1.46,4.68,1.61,9.42-.2,14.08-.26.68-.85,1.25-1.37,1.8-.68.74-1.41,1.45-2.17,2.12-2.42,2.15-3.31,4.87-3.58,8.07-.52,6.2,2.1,11.91,2.5,17.95,0,.15.09.29.14.43.45,1.17,1.24,1.98,2.52,2.15,1.31.16,2.35-.47,2.89-1.56.54-1.11,1.07-2.38,1.04-3.57-.04-1.99-.53-3.97-.83-5.96-.35-2.28-1.09-4.58-.98-6.84.36-7.62,4.5-11.33,12.1-11.23,4.98.07,8.36,3.11,8.9,8.08.16,1.45.21,2.93.21,4.39-.02,11.23-.06,22.46-.11,33.68,0,1.01-.02,2.03-.16,3.03-.33,2.38-1.77,3.82-4.13,4.2-1.05.17-2.11.22-3.17.31-4.56.39-7.38,2.8-8.25,7.3-.35,1.82-.49,3.72-.49,5.58.02,4.25-1.6,7.54-5.24,9.81-.51.32-.98.72-1.48,1.06-2.97,2.01-5.42,4.53-7.35,7.56-1.22,1.92-2.61,3.74-3.69,5.74-2.67,4.97-6.41,7.49-12.38,7.54-7.59.06-12.34,5.57-12.38,13.19-.02,4.15.04,8.29.03,12.44,0,3.44-.86,6.64-3.12,9.3-2.15,2.53-3,5.39-2.97,8.67.08,8.8.14,17.6,0,26.4-.08,4.58,1.83,7.75,5.55,10.24,2.84,1.91,5.49,4.13,8.1,6.35,1.99,1.68,3.71,3.72,4.26,6.32.84,3.99,3.15,6.74,6.42,8.99,2.66,1.83,4.65,4.29,5.72,7.45,1.37,4.05,2.84,5.08,7.14,5.16,2.53.05,5.06.01,7.59.03.96,0,1.93.01,2.88.13,3.22.39,4.67,1.9,4.93,5.11.11,1.31.12,2.63.22,3.94.23,2.98,1.91,4.78,4.88,5.03,1.66.14,3.34.12,5,.03,3.36-.19,6.28.68,8.71,3.1,2.13,2.11,4.76,2.95,7.73,2.92,2.43-.02,4.87-.12,7.28.1,1.51.14,3.11.59,4.38,1.36.76.46,1.46,1.93,1.28,2.76-.2.91-1.29,1.89-2.24,2.31-1.05.47-2.37.44-3.57.45-7.23.05-14.47.08-21.7.05-6.26-.02-12.51.32-18.66-1.57-1.88-.58-4.22-.11-6.24.34-1.91.43-2.97,2.34-2.89,4.17.08,1.87,1.24,3.37,3.31,3.82,1.56.34,3.2.45,4.81.45,13.2.05,26.4.1,39.6.04,2.25,0,4.51-.46,6.74-.83,2.04-.34,4.04-.9,6.08-1.28,4.38-.82,6.18-3.96,4.33-8.02-.76-1.67-2.06-3.1-3.07-4.67-3.34-5.18-8.02-7.43-14.19-6.73-3.44.39-6.34-.84-8.67-3.44-1.65-1.84-3.8-2.61-6.24-2.63-1.62-.02-3.24.02-4.85-.13-2.85-.28-4.14-1.54-4.63-4.35-.2-1.15-.25-2.32-.47-3.46-.62-3.19-2.63-5.19-5.84-5.78-1.04-.19-2.11-.26-3.17-.28-2.68-.05-5.36-.04-8.04-.07-3.22-.04-5.65-1.31-7.42-4.15-1.35-2.17-3.05-4.15-4.78-6.05-2.16-2.38-4.04-4.89-5.31-7.88-.57-1.33-1.33-2.67-2.33-3.7-3.92-4.01-7.89-7.98-11.99-11.8-2.3-2.14-3.59-4.56-3.57-7.7.02-6.88,0-13.76.03-20.64.01-2.86.64-5.59,2.57-7.76,2.69-3.03,3.66-6.51,3.5-10.49-.14-3.53-.04-7.08-.02-10.62,0-1.41-.02-2.84.16-4.24.41-3.33,2.25-5.04,5.59-5.29,1.31-.1,2.63-.09,3.94-.1,2.99-.02,5.64-.95,7.98-2.85,2.71-2.21,4.91-4.83,6.47-7.94,3.02-6.02,7.37-10.69,13.4-13.79,3.36-1.73,4.99-4.58,4.97-8.39-.01-2.07.04-4.15.2-6.21.25-3.28,1.89-4.92,5.17-5.3.8-.09,1.62-.09,2.42-.14,5.97-.39,8.43-2.97,8.52-8.94,0-.25,0-.51,0-.76,0-13.81-.16-27.62.08-41.42.09-5.24-1.74-9.42-4.93-13.28-1.67-2.02-3.69-3.27-6.36-3.35-1.31-.04-2.63-.06-3.94-.16-3.11-.23-4.61-1.6-4.97-4.68-.18-1.55-.24-3.13-.19-4.69.15-4.44-1.91-7.41-5.87-9.19-.83-.37-1.65-.81-2.52-1.04-3.83-1.01-5.79-3.42-5.88-7.41-.08-3.33-1.8-5.85-4.65-7.33-1.93-1-4.11-1.71-6.26-2.04-4.95-.77-6.85-2.52-7.2-7.55-.17-2.47-.17-4.96-.08-7.43.15-3.9-1.43-6.74-4.87-8.55-3.69-1.95-5.35-4.99-5.26-9.16.1-5.01,0-10.01.04-15.02.03-3.08-.16-6.09-.86-9.09h-8.2c.15,1.47.39,2.94.75,4.4Z"/>
  <path class="cls-1" d="M167.36,291.75c6.03,2.08,12.22,1.3,18.35,1.09,3.79-.13,5.72-3.31,4.79-7.03-.71-2.83-3.04-4.18-5.79-3.2-1.32.47-2.57,1.19-3.81,1.86-2.26,1.23-4.67,1.59-7.19,1.32-3.28-.36-4.8-1.87-5.07-5.16-.18-2.11-.13-4.25-.29-6.36-.28-3.7-2.43-5.92-6.11-6.39-.65-.08-1.31-.1-1.97-.16-3.95-.38-5.69-2.17-5.91-6.12-.1-1.72-.14-3.44-.22-5.15-.13-2.91-1.39-5.25-3.67-7.03-1.91-1.49-4.13-2.05-6.53-2.06-5.16-.03-10.32-.05-15.47-.14-4.76-.09-6.49-1.8-6.57-6.56-.08-4.8-.02-9.61-.02-14.41h-.04c0-5.01.08-10.01-.02-15.02-.09-4.49-1.88-6.22-6.37-6.28-5.21-.07-10.42-.02-15.63-.03-2.89,0-5.34,1.02-7.35,3.06-1.99,2.02-4.03,4-5.84,6.16-.91,1.08-1.7,2.47-1.96,3.84-.59,3.2,2.5,5.51,5.42,4.08,1.11-.54,2.04-1.61,2.81-2.63.81-1.08,1.28-2.41,1.98-3.57,1.09-1.81,2.63-3.3,4.75-3.44,3.71-.25,7.46-.28,11.18-.13,1.95.07,3.19,1.47,3.58,3.4.22,1.08.29,2.21.3,3.31.03,5.26,0,10.52.03,15.78.01,3.54-.1,7.09.16,10.61.4,5.42,3.81,8.64,9.24,8.99,1.81.12,3.64.03,5.46.05,4.19.06,8.4,0,12.58.27,3.08.2,4.77,1.96,4.89,5,.17,4.29.17,8.6,0,12.89-.12,2.94-1.83,4.72-4.75,5.01-2.29.23-4.66.2-6.94-.12-1.25-.18-2.59-.97-3.51-1.88-2.11-2.09-1.28-5.2,1.53-6.19.75-.27,1.58-.31,2.37-.45,1.09-.2,2.23-.26,3.26-.62,1.45-.51,2.34-1.61,2.31-3.22-.03-1.58-1.03-2.48-2.43-2.94-.66-.22-1.38-.37-2.08-.39-2.02-.05-4.05-.1-6.07.01-3.93.21-5.58,1.88-5.69,5.8-.09,3.33-.1,6.68-.01,10.01.12,4.73,2.44,7.06,7.16,7.21,3.64.12,7.28.15,10.92.14,1.56,0,3.14-.11,4.68-.36,2.22-.35,3.61-1.72,4.1-3.93.24-1.09.36-2.2.59-3.28.55-2.6,2.19-4.11,4.36-4.08,1.99.03,3.74,1.69,4.22,4.11.74,3.68-.08,6.83-3.3,9.09-2.09,1.47-3.97,3.21-4.12,5.89-.21,3.67-.3,7.38,0,11.03.28,3.35,2.42,5.35,5.78,5.63,3.26.28,6.56.19,9.84.11.96-.02,1.99-.43,2.85-.91,2.09-1.16,2.83-3.72,1.87-5.94-.84-1.93-2.63-2.6-5.13-1.89-1.17.33-2.3.8-3.49,1.02-1.86.35-3.38-.27-4.03-1.69-1.04-2.26-1-4.58.42-6.64,1.4-2.02,3.55-2.07,5.62-1.35Z"/>
  <path class="cls-1" d="M63,19.27c1.71-.11,3.45-.14,5.13-.43,3.86-.67,6.26-3.25,6.8-7.13.15-1.1.21-2.21.31-3.32.33-3.49,1.91-4.97,5.4-5,1.52-.01,3.03.11,4.55.1,3.29-.02,5.01-1.32,6.01-4.48.15-.48.27-.97.41-1.46.84-2.97,2.27-4.28,5.37-4.44,2.92-.15,5.86-.03,8.79-.03,0-.08,0-.16,0-.23,2.68,0,5.37.11,8.04-.03,3.67-.19,5.56-2.01,5.89-5.67.2-2.21.12-4.44.06-6.67-.02-.73-.26-1.51-.6-2.17-1.06-2.11-3.46-2.47-4.98-.66-.65.77-1.08,1.82-1.36,2.82-1.18,4.21-2.45,5.28-6.85,5.35-4.15.06-8.29-.01-12.44.06-4.31.07-5.98,1.36-7.29,5.43-1.05,3.25-2.54,4.42-5.95,4.6-2.17.11-4.35.09-6.52.27-3.5.29-5.28,2.13-5.57,5.64-.13,1.61-.14,3.23-.26,4.85-.26,3.44-1.72,5.01-5.18,5.4-1.91.21-3.84.14-5.75.34-4.63.49-6.84,2.75-7.02,7.38-.15,3.99-.1,7.99-.03,11.98.02,1.03.28,2.13.71,3.07,1.2,2.62,4.35,3.14,6.45,1.16,1.6-1.51,1.89-3.42,1.5-5.45-.26-1.34-.7-2.64-1.03-3.96-1.14-4.56.66-6.99,5.37-7.3Z"/>
  <path class="cls-1" d="M107.39,221.72c-.06-1.79-.88-3.39-2.85-3.85-1.99-.47-3.42.58-4.52,2.08-1.67,2.27-1.77,4.83-.87,7.37,1.2,3.35,1.43,6.79,1.36,10.29-.03,1.61-.07,3.24.07,4.84.1,1.13.33,2.33.83,3.33,1.05,2.11,3.72,2.37,5.1.46.67-.92,1.11-2.2,1.16-3.34.15-3.32.05-6.66.05-9.99-.1,0-.2,0-.3,0,0-3.73.09-7.47-.04-11.2Z"/>
  <path class="cls-1" d="M104.88-34.2c-2.38,2.64-5.44,3.71-8.98,3.67-3.18-.04-6.37-.01-9.56.07-3.79.1-6.61,1.7-7.89,5.46-1.11,3.26-3.48,4.7-6.82,4.74-.61,0-1.21.07-1.82.04-3.87-.15-6.86,1.43-9.03,4.59-.83,1.21-1.75,2.4-2.31,3.73-2.9,6.85-8.1,11.33-14.61,14.54-2.08,1.03-4.12,2.16-6.13,3.33-2.73,1.58-4.04,4.02-4.06,7.16-.02,2.73,0,5.46,0,8.19,0,2.83-.15,5.68.07,8.49.11,1.37.67,2.87,1.49,3.98.96,1.31,2.6,1.46,4.16.93,1.84-.63,2.88-2.05,2.93-3.87.05-1.78-.38-3.58-.62-5.37-.33-2.44-.82-4.88-.98-7.33-.25-3.91,1.6-6.66,5.1-8.36,2.18-1.06,4.36-2.13,6.51-3.27C57.46,3.8,61.43,0,63.52-5.54c.37-.99.9-1.93,1.42-2.85,1.63-2.91,4.03-4.6,7.46-4.65,1.06-.01,2.12-.15,3.18-.12,3.89.14,6.61-1.44,7.96-5.21,1.24-3.45,3.87-4.89,7.42-4.88,2.73,0,5.46-.05,8.19,0,3.24.06,6.06-.84,8.36-3.24,1.92-2.01,4.35-2.78,7.11-2.9,1.48-.06,3.03-.38,4.39-.96,2.07-.88,2.96-3.4,2.09-5.39-.8-1.84-2.46-2.44-4.29-2.66-.2-.02-.39-.04-.59-.06h-3.09c-3.13.32-5.9,1.65-8.25,4.25Z"/>
  <path class="cls-1" d="M64.22-36.57c-2.61.39-4.83,1.44-6.61,3.38-2.29,2.49-4.7,4.89-6.85,7.5-4.01,4.88-7.86,9.85-12.88,13.84-3.79,3.01-7.57,5.66-12.51,6.36-2.49.35-4.93,1.12-7.35,1.86-2.95.91-4.17,3.23-3.21,6.16.58,1.77,1.36,3.49,2.24,5.13,1.6,2.96,2.45,6.05,2.37,9.44-.09,3.59-.03,7.18-.01,10.77.01,3.89-.07,7.79.09,11.68.22,5.41,2.69,7.79,8.08,7.94,3.23.09,6.48-.02,9.71.08,4.28.13,8.57-.01,12.81,1.09,2.71.7,5.58.8,8.38,1.14,1,.12,2.03.04,3.02.21,2.32.4,3.87,1.95,4.3,4.14,1.16,5.99-3.79,12.37-9.88,12.67-1.62.08-3.25-.08-4.85.13-1.48.2-3,.54-4.33,1.18-1.82.87-2.72,3.05-2.31,4.7.45,1.79,2.03,2.97,4.32,2.82,1.95-.13,3.91-.5,5.8-1.01,3.77-1.03,7.13-.42,10.39,1.75,2.52,1.68,5.21,3.1,7.92,4.46,2.44,1.23,5.04,1.52,7.6.26,1.7-.84,2.57-2.68,2.3-4.57-.24-1.7-1.39-2.91-3.35-3.23-1.49-.24-3.02-.19-4.53-.36-1.35-.16-2.73-.28-4-.71-2.04-.68-3.26-2.54-3.16-4.36.1-1.77,1.43-3.39,3.69-3.63,2.79-.3,5.64-.27,8.44-.09,1.79.11,3.15,1.26,4.02,2.9.5.94.97,1.9,1.6,2.75,1.62,2.17,4.62,2.28,6.48.31,1.59-1.69,1.81-4.64.26-7.07-2.32-3.64-5.56-5.97-10.03-6.21-1.82-.1-3.64-.07-5.45-.22-3.45-.3-5.17-2.01-5.57-5.47-.1-.85-.23-1.74-.09-2.57.74-4.48,1.49-8.96,2.38-13.41.35-1.76,1.67-2.85,3.4-3.34.87-.25,1.76-.45,2.65-.67,2.02-.51,3.55-1.67,4.55-3.5.44-.8.85-1.61,1.23-2.44,1.11-2.4,3.05-3.54,5.62-3.77,3.42-.31,6.6.18,9.55,2.15,3.57,2.38,7.36,2.42,11.02.18,2.91-1.78,6-2.56,9.39-2.43,2.02.08,4.05.04,6.07-.03.95-.03,1.9-.22,2.84-.4.44-.08.87-.28,1.27-.49,1.97-1.05,2.91-3.18,2.28-5.09-.65-1.98-2.58-3.16-4.89-2.48-4.19,1.24-8.46,1.33-12.75,1.61-1.71.11-3.39.89-5.04,1.49-1.18.43-2.25,1.18-3.45,1.55-2.38.74-4.57-.53-5.2-2.86-.73-2.67.45-5.51,3-6.59,1.31-.55,2.83-.83,4.26-.86,4.35-.12,8.71.09,13.04-.13,3.2-.16,6.43-.6,9.56-1.29,4.27-.93,6.68.63,7.02,5.02.11,1.41.08,2.83.09,4.25.02,2.88-.02,5.77.07,8.65.05,1.61.11,3.27.52,4.81,1.24,4.6,3.81,7.09,8.59,6.94,1.87-.06,3.74.05,5.61.18,3.55.25,5.3,2.04,5.53,5.59.1,1.56.04,3.14.18,4.7.33,3.63,1.84,5.28,5.46,5.77,2.75.37,4.96,1.54,6.83,3.56.89.95,1.85,1.9,2.95,2.59,1.95,1.22,4.09.64,4.91-1.49.58-1.5.83-3.25.73-4.85-.16-2.7-1.91-4.27-4.62-4.58-1.26-.14-2.52-.18-3.78-.31-3.01-.31-4.71-1.85-5.18-4.83-.2-1.24-.26-2.52-.24-3.78.11-5.56-3.01-8.35-8.27-9.27-1.98-.34-4.03-.22-6.05-.33-3.99-.22-5.93-2.11-6.02-6.11-.1-4.2-.02-8.4-.06-12.59-.01-1.31-.04-2.64-.22-3.93-.65-4.65-3.93-7.54-8.62-7.46-2,.03-4,.48-6,.71-3.2.38-6.41.94-9.62,1.05-5.46.18-10.92.05-16.39.07-1.31,0-2.64.02-3.93.23-2.77.46-4.27,2.07-4.64,4.85-.16,1.15-.19,2.32-.3,3.47-.36,3.61-2.18,5.35-5.82,5.49-1.62.06-3.24-.04-4.85.03-2.83.13-4.34,1.34-5.21,4.04-.17.53-.33,1.06-.46,1.6-.69,2.76-2.55,4.14-5.29,4.47-1.1.13-2.22.13-3.32.29-3.07.44-4.71,2.04-5.16,5.09-.19,1.29-.16,2.62-.22,3.93-.07,1.41-.03,2.84-.22,4.24-.41,2.88-1.88,4.47-4.75,4.62-2.86.15-5.89.37-8.57-.4-4.77-1.37-9.56-1.48-14.41-1.5-2.12,0-4.25.06-6.37-.06-3.17-.18-4.78-1.71-5.22-4.86-.13-.9-.13-1.81-.14-2.72-.02-4.91-.1-9.81,0-14.72.08-4.13.06-8.21-2.2-11.89-.15-.25-.22-.57-.29-.86-.45-1.81.23-3.29,2.03-3.84,1.28-.39,2.67-.52,4.02-.6,2.58-.15,5.09-.56,7.09-2.29,4.05-3.51,8.22-6.92,11.92-10.76,3.17-3.3,5.83-7.11,8.61-10.77,3.03-4,6.72-6.61,11.94-6.75,2.99-.08,4.77-1.77,5.57-4.69.58-2.11,1.27-3.41,2.42-4.17h-8.91c-.84,1.03-2.19,1.55-4.38,1.88Z"/>
  <path class="cls-1" d="M67.84,288.56c-2.95.4-5.86,1.04-8.81,1.48-5.91.88-9.36,4.97-12.48,9.49-.41.59-.61,1.43-.62,2.16-.06,3.63-.22,7.28.03,10.9.21,3.01,1.97,4.5,4.99,4.7,2.06.14,4.14.03,6.21.03,0-.01,0-.02,0-.04,1.92,0,3.85.09,5.76-.04,1.08-.07,2.21-.35,3.2-.81,2-.94,3.05-3.38,2.47-5.34-.59-2.01-2.71-3.43-4.96-3.15-1.03.13-2.04.56-3.04.88-.91.29-1.79.72-2.72.92-2.61.58-4.54-.83-4.76-3.49-.22-2.69.63-5.11,3.1-6.27,3.46-1.62,7.07-3,10.73-4.12,2.65-.81,4.58.69,4.94,3.45.24,1.8.21,3.63.3,5.44.13,2.71.57,5.33,2.14,7.63,1.12,1.64,2.64,2.39,4.07,2.03,1.54-.39,2.79-1.79,2.86-3.7.05-1.48-.07-3.07-.56-4.46-1.11-3.16-1.42-6.39-1.46-9.69-.01-1.11-.01-2.23-.1-3.33-.26-3.21-1.91-4.95-5.11-5.06-2.05-.07-4.13.12-6.18.4Z"/>
  <path class="cls-1" d="M147.94,306.91c.28-3.06.35-6.17.18-9.23-.21-3.86-2.02-5.47-5.94-5.61-2.83-.1-5.66-.08-8.49-.08-2.72,0-5.19-.65-7.35-2.38-.54-.44-1.18-.79-1.83-1.06-3.21-1.31-6.12.89-5.56,4.31.17,1.04.75,2.11,1.42,2.94,2,2.45,4.78,3.23,7.84,3.28,3.13.05,6.27.06,9.4.24,2.59.14,4.27,1.51,4.32,3.23.05,1.84-1.53,3.4-4.24,3.45-4.67.09-8.49,1.57-11.16,5.54-.08.12-.21.22-.32.32-2.49,2.29-5.44,2.81-8.62,2.08-2.22-.51-3.09-2.33-2.21-4.44.42-1.02,1.03-1.97,1.57-2.94.81-1.43,1.07-2.94.63-4.53-1.16-4.18-5.62-7.75-9.94-7.88-2.78-.08-5.56-.02-8.34-.02,0,0,0,0,0,0-2.98,0-5.96-.05-8.94.02-1.77.04-3.4.57-4.59,1.99-1.1,1.32-1.4,2.8-.67,4.38.68,1.48,1.9,2.28,3.51,2.18,1.3-.08,2.6-.36,3.85-.7,4.38-1.2,8.82-.92,13.26-.67.63.04,1.28.31,1.87.59,1.45.68,2.15,2.08,1.78,3.64-.18.78-.49,1.55-.9,2.24-1.48,2.49-1.93,5.17-1.73,8.02.24,3.35,1.82,5.16,5.15,5.44,2.61.23,5.26.09,7.88.24,4.2.23,7.96-.94,11.09-3.69,3.24-2.84,6.81-4.49,11.16-4.84,3.51-.29,5.61-2.56,5.93-6.07Z"/>
  <path class="cls-1" d="M82.62,188.5c3.91-2.37,6.13-5.86,6.59-10.02-.09-2.21-.38-3.9-2.24-4.72-1.23-.54-2.84.01-3.94,1.54-1.91,2.66-3.75,5.37-5.47,8.16-1.1,1.78-.92,3.49.17,4.64,1.15,1.21,3.12,1.49,4.9.41Z"/>
  <path class="cls-1" d="M213.82-38.44c.05.53.08,1.06.09,1.59.09,4.6.03,9.2.03,13.81h.02c0,5.06.08,10.12-.03,15.17-.08,3.52-1.87,5.5-5.23,5.72-3.78.25-7.59.35-11.27-.9-.9-.31-1.87-.63-2.8-.63-2.46,0-4.94.02-7.36.36-1.38.2-2.42,1.28-2.46,2.88-.04,1.38.89,2.61,2.47,3.09.95.29,1.98.41,2.98.48,1.41.1,2.84,0,4.24.12,3.35.29,5.06,1.94,5.35,5.28.17,1.96.06,3.94.16,5.91.06,1.15.19,2.32.45,3.44.33,1.4,1.25,2.34,2.73,2.46,1.42.11,2.52-.61,3.02-1.87.49-1.25.82-2.6.93-3.93.17-2.01.02-4.05.15-6.06.2-2.96,1.63-4.85,4.3-5.05,3.31-.24,6.67-.19,9.98.1,2.51.22,3.99,2,4.37,4.56.17,1.14.14,2.32.18,3.48.08,2.22.05,4.45.23,6.67.23,2.72,1.58,4.21,4.21,4.92.59.16,1.18.26,1.78.4,3.87.9,5.77,3.2,5.92,7.17.2,5.13-.71,6.43-5.09,7.97-1.28.45-2.58,1.24-3.49,2.23-1.61,1.77-1.5,4.2-.09,5.66,1.39,1.43,3.3,1.47,5.4.11.98-.63,1.9-1.36,2.94-1.87,6.99-3.41,12.52-.29,12.63,7.17.04,3.02.84,5.67,2.83,7.95.86.99,1.77,1.96,2.5,3.04.84,1.25,1.71,2.54,2.18,3.95.54,1.66.58,3.49-1.04,4.72-1.56,1.19-3.33.94-4.86,0-3.76-2.32-6.33-5.47-6.46-10.14-.04-1.57,0-3.16-.27-4.69-.23-1.25-.67-2.58-1.4-3.61-1.72-2.41-5.27-3.04-7.45-1.54-2.1,1.44-2.44,4.12-.62,6.9,1.61,2.45,2.47,5.04,2.58,7.96.09,2.31,1.02,4.29,2.78,5.87,1.69,1.52,3.33,3.1,5.01,4.64,1.92,1.76,4.16,2.92,6.79,3.04,2.42.11,4.86.17,7.28.02,3.52-.23,5.21-1.91,5.52-5.45.2-2.36.03-4.75.17-7.12.25-4.08-1.12-7.38-4.23-10.07-2.76-2.37-4.1-5.45-3.91-9.15.06-1.21,0-2.43-.06-3.64-.24-4.12-2.1-6-6.2-6.35-4.1-.35-5.77-2.06-5.94-6.17-.09-2.12-.06-4.25-.2-6.37-.26-3.89-2.29-6.36-6.07-7.39-.78-.21-1.56-.45-2.31-.74-1.72-.67-2.85-1.93-3.26-3.72-.24-1.07-.32-2.2-.37-3.3-.09-2.37-.06-4.75-.18-7.13-.17-3.53-1.72-5.13-5.2-5.53-.8-.09-1.61-.17-2.4-.32-2.5-.49-3.92-1.95-4.25-4.48-.18-1.4-.24-2.82-.24-4.23,0-9.13,0-18.25.04-27.38h-7.48Z"/>
  <path class="cls-1" d="M300.95,219.32c-.14-6.07-.18-12.14-.22-18.2-.03-5.26.07-10.52-.03-15.78-.1-4.94,1.83-7.08,4.56-7.18v-12.13c-.07,4.31.05,5.65-4.4,5.92-5.89.36-7.69,2.23-7.79,8.11,0,.3,0,.61,0,.91-.01,13.19-.03,26.38-.04,39.57,0,1.06.03,2.12.09,3.18.23,3.6,2.04,6.17,5.19,7.82.76.4,1.56.72,2.38.98,2.81.91,4.2,2.86,4.27,5.76.05,2.17.01,4.35.08,6.52.03.94.08,1.9.23,2.83v-21.58c-2.75-1.06-4.24-3.3-4.31-6.72Z"/>
  <path class="cls-1" d="M276.89,208.64c1.3,2.54,1.99,5.16,1.98,8.01-.02,3.44.01,6.88.02,10.32,0,2.81.92,5.24,2.93,7.25,1.61,1.6,3.24,3.2,4.77,4.88,2.77,3.05,3.05,5.61.83,9.07-3.51,5.48-2.7,11.45-2.02,17.36.24,2.1,2.11,3.33,4.23,3.09,1.46-.16,2.98-.65,4.27-1.36,2.55-1.41,5.17-2.21,8.09-2.22,1.09,0,2.2-.17,3.26-.44v-9.23c-.75-.17-1.56-.13-2.36.11-1.81.56-3.48,1.55-5.21,2.36-1.29.61-2.61,1.02-3.82-.08-1.2-1.09-1.33-2.56-.68-3.91.6-1.25,1.45-2.43,2.38-3.46,4.05-4.45,4.04-9.07-.16-13.43-1.72-1.79-3.46-3.55-5.23-5.28-2.57-2.51-3.83-5.51-3.77-9.11.05-2.68-.09-5.36.02-8.04.18-4.24-.49-8.23-2.71-11.94-1.43-2.38-1.44-4.97,0-7.38,2.18-3.66,2.81-7.62,2.69-11.8-.09-3.23-.07-6.48.05-9.71.15-3.99,1.75-5.64,5.69-6.13.5-.06,1-.12,1.5-.22,2.92-.55,4.57-2.23,4.88-5.2.18-1.7.14-3.43.18-5.15.06-2.37,0-4.75.18-7.12.16-2.23,1.42-3.73,3.62-4.36.58-.17,1.16-.35,1.75-.51.36-.1.68-.22,1-.36v-18.23c-2.57,2.62-4.44,5.57-4.6,9.5,0,.05-.02.1-.04.15-.36,1.17-.94,2.16-2.26,2.4-1.33.24-2.21-.52-2.94-1.49-.27-.36-.5-.77-.66-1.19-1.21-3.09-3.57-4.22-6.78-4.36-2.4-.11-4.78-.7-7.16-1.1-.85-.14-1.67-.46-2.52-.53-3.57-.33-6.08,2.89-4.79,6.13.65,1.65,1.97,2.62,3.66,2.83,2,.26,4.03.27,6.04.41,4.93.34,7.47,2.86,7.71,7.79.12,2.37.07,4.75.07,7.13,0,4.99-.85,7.53-6.84,8.12-3.58.35-5.09,2.28-5.32,5.86-.05.76-.04,1.52-.04,2.27,0,3.29-.03,6.58.05,9.86.09,3.76-.77,7.23-2.29,10.7-2.57,5.86-2.64,11.89.33,17.72Z"/>
  <path class="cls-1" d="M287.99,117.35c-1.7.06-3.44.24-5.07.7-2.08.58-3.09,2.19-2.85,3.93.21,1.58,1.5,2.77,3.61,2.86,3.63.16,7.28.33,10.9.11,5.13-.3,7.67-2.95,7.96-8.13.22-4.03.17-8.08.26-12.13.03-1.21.08-2.43.25-3.62.23-1.58,1-2.71,2.21-3.41v-8.04c-1.97.4-3.95.85-5.93.9-2.58.06-4.24-1.53-4.37-4.12-.19-3.57-.22-7.18.03-10.74.21-2.99,2.78-4.99,5.61-4.84,2.68.14,3.98,2.28,2.78,4.67-.43.85-1.06,1.6-1.59,2.4-1.28,1.94-1.44,3.65-.47,4.93.89,1.16,2.36,1.78,3.93,1.58v-19.84c-4.1-.03-8.2-.03-12.29.17-4.1.21-5.87,2.02-5.96,6.16-.14,6.82-.04,13.65.04,20.47.03,2.45,1.29,4.24,3.6,5.13,3.01,1.15,4.23,3.4,4.22,6.5-.01,2.48.04,4.95.01,7.43-.06,5.36-1.51,6.77-6.88,6.94Z"/>
  <path class="cls-1" d="M290.27,5.78c-2.84-.38-4.96-1.83-6.54-4.19-.47-.7-1.05-1.37-1.7-1.92-2.81-2.38-6.13-1.31-6.94,2.27-.6,2.62-.07,5.06,1.84,7.02,3.14,3.2,7.19,4.31,11.86,4.85.95-.24,2.27-.41,3.45-.9,1.38-.57,2.29-1.71,2.24-3.3-.05-1.55-.93-2.64-2.34-3.26-.6-.26-1.24-.48-1.88-.57Z"/>
  <path class="cls-1" d="M274.67-33.95c-.02,4.09-1.77,5.28-5.77,4.2-1.35-.36-2.78-.68-4.16-.63-2.41.09-4.2,1.91-4.38,4.07-.18,2.23,1.21,4.22,3.55,4.82,1.16.3,2.39.38,3.6.42,3.74.11,7.49.09,11.22.24,3.99.16,5.78,2.02,5.93,5.98.04,1.21.1,2.43.02,3.64-.36,5.41,2.14,9.08,6.86,11.42,1.63.81,3.29,1.57,4.88,2.44,3.77,2.05,5.06,5.67,3.45,9.67-.4.98-1.01,1.88-1.37,2.87-.56,1.56-1.35,3.16-1.39,4.76-.16,5.56-.16,11.12,0,16.68.08,3.04,1.56,5.49,4.48,6.67,1.23.5,2.46.82,3.67.87v-14.57c-.33-2.46-.44-4.91,0-7.3V-.94c-2.04-2.26-4.41-4.15-7.36-5.34-4.24-1.71-5.05-2.97-5.13-7.53-.05-2.52-.09-5.06-.43-7.55-.35-2.5-1.97-4.14-4.37-4.97-.53-.18-1.05-.38-1.57-.57-2.35-.87-3.57-2.57-3.64-5.06-.06-1.97-.05-3.94-.07-5.92,0-.19,0-.38,0-.57h-8.02c0,1.5.01,2.99,0,4.49Z"/>
  <path class="cls-1" d="M230.26-38.44c.02,7.69.03,15.39.06,23.08.03,6.26.77,7.45,6.61,9.71,3.75,1.45,5.51,4.03,5.48,7.99-.02,2.22-.02,4.45.11,6.67.23,4.01,2.24,6.72,6.1,7.99.72.24,1.44.48,2.14.76,2.38.96,3.6,2.76,3.48,5.31-.06,1.4-.39,2.8-.66,4.18-.39,1.98-.55,3.91.57,5.73,1.69,2.75,5.35,2.72,6.91-.12.43-.78.7-1.7.79-2.58.17-1.71.3-3.44.19-5.14-.27-4.02,1.19-7.07,4.38-9.59,3.75-2.96,4.83-7.49,3.32-12.04-1.62-4.86-7.6-7.27-12.09-4.87-2.75,1.47-2.86,4.35-.22,5.99.69.43,1.44.73,2.14,1.13,1.2.69,2.15,1.61,1.96,3.13-.2,1.55-1.29,2.33-2.71,2.72-4.32,1.2-8.33-1.44-8.77-5.92-.26-2.66-.22-5.35-.33-8.03-.14-3.39-1.57-6.02-4.54-7.74-1.01-.58-2-1.2-3.04-1.71-3.2-1.54-4.53-4.14-4.52-7.59.02-6.36.02-12.71.03-19.07h-7.39Z"/>
  <path class="cls-1" d="M212.4,28.24c.29,3.22,1.92,5.98,5.2,6.52,3.27.55,6.7.16,10.06.15.33,0,.68-.2.98-.38,1.12-.65,1.88-1.58,1.81-2.93-.06-1.36-.89-2.28-2.13-2.67-1.05-.33-2.17-.48-3.27-.6-3.97-.41-5.6-2.07-5.71-6.04-.07-2.58.04-5.16-.09-7.73-.07-1.28-.31-2.64-.84-3.8-.89-1.9-3.01-2.15-4.57-.72-1.29,1.19-1.64,2.77-1.71,4.41-.08,2.02-.02,4.04-.02,6.07h.23c0,2.58-.18,5.17.05,7.72Z"/>
  <path class="cls-1" d="M265.56,105.53c.41-4.66.35-9.37.27-14.06-.03-1.75-1.04-3.26-2.84-3.76-3.13-.87-6.34-.9-9.39.24-2.57.96-2.81,3.93-.56,5.54.65.47,1.4.81,2.13,1.16,2.3,1.11,3.52,2.98,3.3,5.47-.16,1.82-.4,3.84-1.3,5.36-2.88,4.89-6.72,8.44-13.05,7.92-1.88-.15-3.84.14-5.71.49-2.02.38-3.27,1.96-3.17,3.52.11,1.59,1.51,2.83,3.59,3.12.6.08,1.21.1,1.81.11,1.47.01,2.93,0,4.4,0v.03c1.42,0,2.83-.03,4.25,0,3.77.11,6.77-1.37,9.11-4.28,1.55-1.93,3.25-3.76,4.64-5.8,1.07-1.56,2.36-3.32,2.51-5.08Z"/>
  <path class="cls-1" d="M245.62,86.69c-.2-1.68-.45-3.43-1.09-4.98-.79-1.94-2.92-2.75-4.8-2.23-1.81.5-3.04,2.21-3.04,4.59.05.25.07.88.29,1.43,1.42,3.62,1.53,7.39,1.5,11.2-.02,2.42-.04,4.86.19,7.27.23,2.5,1.74,4.07,3.76,4.35,2.04.28,4.35-1.22,5.25-3.38.79-1.89.35-3.71-.42-5.44-1.17-2.65-1.64-5.4-1.57-8.27.03-1.52.11-3.05-.07-4.55Z"/>
  <path class="cls-1" d="M270.29,168.91c-.2-2.01-.07-4.05-.26-6.06-.25-2.67-1.8-4.19-4.45-4.6-1.05-.16-2.12-.22-3.15-.43-2.04-.41-3.64-1.53-4.09-3.6-.9-4.14-1.81-8.29-2.3-12.49-.4-3.47-.4-6.95-2.03-10.17-1.1-2.16-2.73-3.38-5.15-3.74-2.64-.39-5.26-.97-7.89-1.44-.64-.12-1.31-.24-1.95-.2-2.16.13-3.98,1.98-4.15,4.14-.17,2.17,1.08,3.8,3.41,4.3.88.19,1.8.19,2.71.28,1.06.1,2.13.12,3.16.33,2.39.49,3.71,1.89,4.09,4.28.17,1.04.13,2.12.27,3.17.31,2.19.38,4.48,1.09,6.54,1.38,4.01.41,7.18-2.55,10.03-1.81,1.75-3.52,3.62-5.16,5.54-2.26,2.65-4.39,5.41-6.63,8.09-1.71,2.04-2.87,4.3-2.89,7-.11,12.29-.21,24.57-.27,36.86-.01,2.57.81,4.96,2.71,6.72,2.78,2.58,3.89,5.7,3.65,9.4-.46,7.02,6.03,11.37,10.9,11.53,1.01.03,2.02.13,3.01.33,2.35.46,3.68,1.78,4.01,4.15.22,1.54.26,3.12.27,4.69.07,7.37,3.15,8.75,7.9,9.45,3.91.58,5.81,2.86,6.07,6.8.1,1.56.05,3.13.11,4.7.19,4.72,1.87,6.37,6.61,6.65,1.35.08,2.75.21,4.03.61,2.68.85,3.9,4.06,2.78,6.91-.93,2.36-3.47,3.35-6.09,2.2-1.14-.5-2.13-1.33-3.18-2.02-1.17-.78-2.26-1.75-3.53-2.31-2.26-.99-4.7-.07-5.77,1.92-2.03,3.8-.19,7.86,3.99,8.79,1.77.4,3.58.68,5.32,1.21,2.96.91,5.97,1.09,9.01.8,4.67-.46,7.9-3.46,8.48-8.1.29-2.34.25-4.74.15-7.1-.12-2.62-1.36-4.82-3.07-6.78-1.76-2.01-3.87-3.31-6.53-3.83-3.13-.61-4.18-1.87-4.48-5.04-.11-1.16-.14-2.32-.16-3.48-.11-5.89-1.42-7.3-7.25-7.77-4.42-.35-6.44-2.29-6.88-6.75-.22-2.26-.18-4.55-.47-6.8-.46-3.51-2.47-5.58-5.95-6.14-1.79-.29-3.64-.14-5.43-.41-1.42-.21-2.91-.53-4.16-1.19-1.72-.9-2.46-2.95-2.06-4.68.36-1.56,1.62-2.61,3.75-2.76,2.42-.16,4.85-.03,7.27-.15,2.16-.11,4.39-.11,6.44-.68,3.4-.93,5.92-3.22,6.32-6.82.38-3.43.31-6.96.02-10.42-.25-2.97-2.26-4.81-5.2-5.36-1.48-.28-3.02-.15-4.52-.33-2.54-.31-5.07-.72-7.6-1.12-1.04-.16-2.07-.55-3.11-.6-2.32-.1-4.14,1.43-4.53,3.65-.41,2.33.79,4.34,3.14,4.99,1.1.3,2.29.35,3.45.4,2.17.1,4.35.04,6.52.19,2.65.19,4.24,1.72,4.36,3.98.11,2.24-1.35,4.28-3.9,4.42-4.78.27-9.59.3-14.37.07-2.52-.12-3.9-1.85-4.33-4.38-.15-.89-.18-1.81-.19-2.72-.02-5.11,0-10.21,0-15.32-.03,0-.07,0-.1,0,0-4.4-.1-8.8.04-13.2.07-2.24.36-4.52.92-6.69.38-1.49,1.75-2.29,3.39-2.34,1.64-.05,2.87.69,3.59,2.09.45.88.8,1.9.85,2.87.16,2.87.12,5.76.22,8.64.05,1.46.12,2.94.41,4.36.35,1.69,1.46,3.01,3.18,3.34,4.25.82,8.52,1.6,12.81,2.13,2.54.31,4.56-1.53,4.8-3.85.26-2.41-1.21-4.37-3.8-4.84-1.33-.24-2.71-.25-4.08-.3-4.32-.15-5.88-1.69-6.01-6.05-.06-2.12-.05-4.25-.08-6.37-.04-2.73-1.14-4.86-3.48-6.35-.8-.51-1.57-1.12-2.22-1.82-1.09-1.18-1.09-2.75-.15-4.04,2.21-3.06,9.11-3.28,11.44-.33.48.61.83,1.41,1.01,2.17.24,1.02.34,2.1.36,3.15.06,2.78-.01,5.56.09,8.34.05,1.19.24,2.44.65,3.55.73,1.98,2.66,3.03,4.72,2.81,2.01-.22,3.55-1.58,3.73-3.78.12-1.52-.27-3.09-.48-4.63-.37-2.74-.85-5.47-1.13-8.21Z"/>
  <path class="cls-1" d="M215.26,237.72c-.94-.08-1.96-.04-2.84.27-4.27,1.48-8.64,1.32-13.04,1.11-2.36-.11-4.76-.14-7.11.08-2.41.23-3.88,1.88-3.82,3.77.06,1.76,1.53,2.99,3.92,3.3.3.04.6.08.91.08,3.28,0,6.56,0,9.84,0,0,0,0-.02,0-.03,3.18,0,6.36.06,9.54-.02,2.15-.05,4.08-.74,5.35-2.64,1.73-2.59.32-5.66-2.76-5.92Z"/>
  <path class="cls-1" d="M269.36,231.03c-2.3,1.19-3.11,4.05-1.84,6.54.23.45.47.9.78,1.29,1.64,2.05,2.44,4.36,2.5,6.99.03,1.19.22,2.42.59,3.56.61,1.9,2.12,2.91,3.98,2.9,1.93,0,3.69-1.18,4.27-3.03.3-.95.38-1.97.56-2.95.07-.05.15-.09.22-.14-.61-1.79-1.17-3.6-1.83-5.37-.72-1.93-1.53-3.83-2.3-5.74-.24-.61-.42-1.25-.73-1.82-1.29-2.33-4.09-3.32-6.19-2.24Z"/>
  <path class="cls-1" d="M238.5,265.38c.25,3.24,1.94,4.96,5.17,5.31,1.3.14,2.63.11,3.94.15,4.75.15,6.54,1.87,6.89,6.61.09,1.26.15,2.54.47,3.74.54,2.02,2.15,3.23,4.06,3.3,2,.07,3.61-.88,4.26-2.99,1.17-3.79,1.16-7.55-1.55-10.76-1.53-1.81-3.19-3.57-5.06-5-1.35-1.03-3.14-1.51-4.77-2.13-.69-.27-1.49-.24-2.23-.41-2.15-.49-3.5-1.77-3.72-4.02-.12-1.26-.15-2.52-.18-3.78-.12-6.15-2.74-9.16-8.84-10.11-3.67-.57-5.21-2.22-5.4-5.96-.11-2.12-.07-4.25-.1-6.37-.07-5.83-1.59-7.11-6.02-8.13-2.33-.54-3.74-2.14-3.92-4.48-.43-5.65-.6-11.29.57-16.91.62-3,1.03-6.08,1.16-9.14.2-4.49.06-9,.11-13.5.04-3.11,1.17-5.81,3.3-8.1.93-1,1.88-1.99,2.73-3.05,2.36-2.98,2.49-6.57.37-9.72-.79-1.17-1.84-2.19-2.49-3.43-.69-1.31-1.32-2.77-1.48-4.22-.29-2.67,1.36-4.51,3.82-4.72,2.58-.22,4.24,1.14,4.67,3.89.21,1.35.23,2.73.52,4.06.6,2.74,3.03,3.89,5.45,2.47.99-.58,1.92-1.56,2.44-2.58,3.01-5.87-1.96-14.81-8.53-15.32-2.41-.19-4.86-.13-7.27.09-4.87.44-8,3.64-8.56,8.5-.48,4.17.37,8.02,2.58,11.61,2.03,3.3,1.76,6.62-.85,9.37-3.08,3.23-3.99,6.93-3.83,11.24.21,5.35.06,10.7-1.08,16-.62,2.89-.84,5.9-.97,8.87-.19,4.44-.08,8.9-.19,13.35-.11,4.05-1.86,5.8-5.91,5.92-3.18.09-6.37.02-9.56.02,0-.03,0-.07,0-.1-3.64,0-7.28.12-10.92-.04-2.17-.1-3.82-1.26-4.45-3.51-.66-2.35-.03-4.9,1.6-6.11,1.92-1.42,3.82-.84,5.7.16.18.09.35.2.52.31,3.16,2.11,6.68,2.49,10.34,2.17,3.7-.33,5.44-1.94,5.69-5.65.23-3.47.17-6.97.14-10.46,0-.83-.27-1.72-.62-2.48-1.15-2.46-4.15-2.8-5.6-.51-.71,1.13-.92,2.63-1.13,4-.19,1.24.03,2.53-.11,3.78-.29,2.7-2.23,3.72-4.68,2.52-.36-.18-.72-.38-1.05-.6-2.26-1.5-4.68-1.7-7.26-.98-1.95.54-3.92.98-5.9,1.39-3.77.78-5.24,2.4-5.28,6.24-.03,2.83.05,5.67.27,8.49.37,4.79,3.64,7.98,8.43,8.41.75.07,1.51.13,2.27.13,6.42,0,12.85.1,19.27-.06,2.6-.06,5.19-.69,7.78-1.07,1.4-.21,2.78-.59,4.18-.65,4.32-.17,6.4,1.82,6.51,6.11.05,1.97-.03,3.95.02,5.92.09,3.24-1.15,5.76-3.83,7.64-.98.68-1.91,1.54-2.6,2.5-1.6,2.25-.59,4.81,2.06,5.61,2.47.74,5.18-.21,6.68-2.39.43-.62.78-1.3,1.18-1.95,2.17-3.61,5.67-3.93,8.52-.82,1.73,1.89,2.17,4.16,2.2,6.6.02,1.92-.05,3.85.1,5.76Z"/>
  <path class="cls-1" d="M159.37-38.44c.11,6.5.18,13.01-.07,19.5-.23,5.94,1.69,9.94,7.64,11.76,3.03.92,4.47,3.31,4.55,6.49.06,2.48.09,4.96.18,7.43.14,4,1.87,6.41,5.65,7.73,1.23.43,2.55.64,3.85.79,4.57.5,6.45,2.27,6.59,6.89.12,3.8,1.61,6.5,4.93,8.41,5.09,2.91,8.78,6.91,9.52,13.08.26,2.2,1.8,3.47,3.98,3.8,1.29.2,2.61.24,3.92.32,3.88.21,5.67,1.64,5.95,5.46.29,3.96,1.86,7.17,4.58,9.95,2.57,2.63,3.71,5.77,3.66,9.48-.11,8.5.01,16.99-.12,25.49-.04,2.5-.6,5-.92,7.5-.31,2.45-.75,4.89-.91,7.35-.19,3.08-.06,6.17-.22,9.25-.18,3.42-1.79,5.03-5.17,5.42-1.71.2-3.44.23-5.12.55-3.11.59-5.05,2.57-5.49,5.7-.28,1.99-.28,4.03-.36,6.05-.11,3.04-1.47,5.31-4.08,6.83-1.14.66-2.28,1.31-3.43,1.94-4.38,2.4-7.32,6.29-10.47,9.99-2.18,2.56-3.75,5.33-4.36,8.69-.61,3.37-2.18,4.62-5.62,4.81-2.07.11-4.15.03-6.21.2-4.13.34-6.01,2.24-6.22,6.38-.16,3.33-.21,6.67-.14,10.01.08,3.37-.85,6.24-3.28,8.65-1.59,1.57-2.62,3.51-2.63,5.81-.04,7.89-.05,15.77-.01,23.66.01,2.28.96,4.23,2.64,5.78,1.64,1.51,3.31,2.97,4.97,4.46,3.95,3.55,7.45,7.39,9.06,12.66.89,2.91,2.95,5.15,4.98,7.35,2.12,2.3,4.71,3.4,7.82,3.4,3.14,0,6.27-.01,9.41.04,5.22.09,6.86,1.8,7.78,5.78.61,2.65,2.4,4.03,5.06,4.24,1.86.15,3.74.15,5.6.26,2.64.16,4.47,1.43,5.36,3.97.17.48.34.95.52,1.42,1.46,3.87,4.28,6.05,8.35,6.55,1.35.17,2.73.21,4.09.19,3.61-.06,6.26,1.48,8.26,4.46,1.54,2.3,3.15,4.62,5.05,6.61,2.82,2.96,4.35,6.27,4.05,10.38-.04.5.06,1.01.11,1.51.4,3.77,2.11,5.38,5.93,5.49,2.27.07,4.56-.03,6.82.11,4.52.29,6.04,3.04,4,7.07-.14.27-.26.55-.43.8-1.86,2.63-2.42,5.61-2.52,8.76-.04,1.14-.16,2.4-.67,3.37-.4.77-1.46,1.63-2.25,1.64-.86.02-2.06-.69-2.53-1.45-.6-.97-.77-2.28-.87-3.47-.15-1.86-.03-3.74-.14-5.61-.06-1.1-.21-2.23-.54-3.27-.7-2.19-2.7-3.37-4.84-3-2.19.38-3.71,2.24-3.65,4.55.02.65.09,1.33.3,1.94,1,2.96,1.27,6.01,1.26,9.12,0,4.2,2.1,7.05,5.83,8.81,5.2,2.45,11.37,1.16,14.08-3.26,1.01-1.65,1.64-3.74,1.77-5.68.22-3.35.8-6.45,2.52-9.4.81-1.39,1.3-3.11,1.43-4.73.23-2.76.16-5.56.04-8.34-.15-3.41-2.07-5.3-5.47-5.47-2.22-.11-4.45-.04-6.67-.09-4.16-.09-5.48-1.24-6.06-5.38-.33-2.38-1.07-4.6-2.84-6.23-3.31-3.06-5.83-6.69-8.12-10.52-.54-.91-1.22-1.74-1.9-2.56-1.88-2.26-4.27-3.52-7.26-3.51-.91,0-1.82-.04-2.73-.02-6.02.09-7.51-2.11-7.87-6.9-.26-3.39-1.98-4.93-5.4-5.17-1.76-.12-3.54-.09-5.31-.08-4.83.03-6.74-1.6-7.62-5.68-.54-2.52-2.25-3.89-4.8-4.15-1.2-.12-2.42-.14-3.64-.15-3.44-.03-6.88.05-10.32-.07-5.12-.18-8.03-2.63-9.23-7.59-.05-.2-.1-.39-.13-.59-.52-3.31-2.26-5.89-4.72-8.07-2.69-2.38-5.35-4.79-7.95-7.27-2.07-1.98-3.51-4.38-3.55-7.33-.07-5.71-.15-11.43.04-17.14.16-4.66,3.34-6.39,7.56-4.39,1.37.65,2.69,1.42,4.1,1.96,2.05.79,4.14.92,6.17-.17,1.56-.84,2.46-2.13,2.33-3.93-.13-1.78-1.12-3.07-2.8-3.61-1.19-.38-2.47-.49-3.71-.66-1.1-.15-2.22-.13-3.32-.31-2.24-.37-3.79-1.71-4.02-3.95-.24-2.34-.15-4.73.01-7.08.1-1.42.99-2.51,2.33-3.16,3.5-1.67,7.27.07,8.21,3.81.17.69.29,1.39.46,2.07,1.08,4.33,4.24,7.04,8.69,7.46,3.7.34,7.24-.48,10.75-1.49,4.12-1.18,5.46-2.87,5.58-7.18.08-3.23.12-6.48.02-9.71-.11-3.4.97-6.2,3.39-8.6.9-.9,1.63-2.08,2.13-3.26.63-1.49.37-3.01-.92-4.16-1.13-1.01-2.66-1.07-4.25-.2-.49.26-.98.56-1.37.94-1.72,1.71-3.48,3.39-5.09,5.2-2.89,3.27-3.53,7.05-2.24,11.2.35,1.11.72,2.22.94,3.36.55,2.85-.47,5.25-2.56,6.24-2.46,1.17-5.45.49-7.25-1.76-1.96-2.46-3.17-5.31-2.71-8.45.73-5.01,2.4-9.76,5.79-13.63,3.45-3.93,7.3-7.37,12.21-9.55,3.64-1.61,5.57-4.72,5.94-8.72.12-1.36.16-2.73.33-4.08.34-2.67,1.68-4.09,4.33-4.55,1.34-.23,2.72-.27,4.07-.47,4.14-.62,6.86-3.32,7.4-7.48.22-1.7.18-3.43.17-5.15,0-4.61.14-9.19,1.46-13.67.45-1.53.59-3.2.6-4.8.07-11.53.08-23.06.08-34.59,0-3.91-1.25-7.35-4.15-10.09-2.67-2.52-4-5.53-4.15-9.27-.21-5.56-3.02-8.3-8.59-8.9-.45-.05-.9-.1-1.36-.15-3.92-.42-5.49-1.72-6.01-5.57-.46-3.47-2.16-5.88-5.15-7.56-5.37-3.03-8.68-7.47-9.3-13.73-.03-.3-.1-.6-.16-.9-.6-2.72-2.09-4.12-4.85-4.47-1.05-.13-2.12-.18-3.18-.24-3.95-.23-5.64-1.9-5.83-5.89-.09-1.97-.1-3.94-.09-5.92.03-4.89-2.32-8.25-6.8-9.91-3.94-1.45-5.4-4.14-5.32-8.16.11-5.54.05-11.09.07-16.64h-7.27Z"/>
  <path class="cls-1" d="M34.23,391.06c-.73-1.52-1.72-3.04-2.94-4.18-3.55-3.29-4.91-7.3-4.55-12.02.05-.6,0-1.21,0-1.82.04-4.86.06-9.72-1.62-14.39-.28-.79-.35-1.69-.37-2.54-.09-7.03-.16-14.06-.22-21.09-.04-4.98.99-8.8,8.09-9.46,4.02-.38,5.65-2.32,5.92-6.38.31-4.86.18-9.66-1.24-14.42-1.7-5.74-.27-8.88,4.54-12.39,2.3-1.68,4.43-3.7,6.3-5.84,2.33-2.67,4.97-4.16,8.57-3.95,2.72.16,5.46.15,8.19.08,1.09-.03,2.22-.26,3.23-.66,1.19-.47,1.92-1.46,1.92-2.84,0-1.31-.71-2.28-1.85-2.71-1.11-.42-2.33-.62-3.52-.73-1.91-.18-3.85-.08-5.74-.33-2.13-.28-3.63-1.65-3.77-3.78-.19-3.01-.14-6.05.13-9.05.17-1.92,1.59-3.09,3.5-3.55,4.12-1,6.84,1.19,6.87,5.44,0,1.3.09,2.64.45,3.88.42,1.45,1.53,2.4,3.14,2.43,1.62.03,2.65-.94,3.22-2.34.34-.83.59-1.76.59-2.64,0-3.53,1.46-6.11,4.38-8.16,1.36-.95,2.73-2.54,3.14-4.09,1.83-6.96-.06-11.34-5.94-15.4-1.75-1.21-3.85-.93-5.19.36-1.32,1.27-1.58,3.32-.55,5.18.41.74,1.02,1.37,1.58,2.02.59.69,1.31,1.28,1.85,2.01,1.56,2.12.83,4.71-1.72,5.25-1.91.41-4.01.31-5.96.03-1.62-.23-2.84-1.5-3.18-3.14-.88-4.16-1.32-8.47.69-12.33,2.09-4,3.01-8.1,2.93-12.53-.04-2.46.79-4.64,2.31-6.6.93-1.19,2.04-2.39,2.48-3.77.69-2.18,1.18-4.51,1.22-6.79.14-7.43.09-14.87,0-22.3-.04-3.66,1.16-6.72,3.75-9.28.47-.46.86-1,1.31-1.47,1.97-2.03,2.84-4.5,2.94-7.28.07-1.87.1-3.74.16-5.61.11-3.5,1.75-6.07,4.54-8.15,2.79-2.07,5.54-4.25,8.03-6.68,2.86-2.78,6.07-4.28,10.07-4.05.76.04,1.52-.04,2.28,0,4.28.24,8.02-.9,11.35-3.76,1.27-1.09,3.11-2,4.75-2.1,4.73-.29,9.5-.24,14.25-.09,2.6.08,3.86,1.51,4.31,4.1.17.95.25,1.91.49,2.84.43,1.68,1.48,2.61,2.89,2.7,1.44.09,2.81-.78,3.28-2.42.38-1.34.55-2.78.6-4.18.11-2.78.06-5.56.1-8.34.04-2.47.82-4.69,2.45-6.54,1.2-1.36,2.47-2.68,3.81-3.9,2.83-2.56,6.13-2.98,9.62-1.66,2.69,1.02,5.35,2.16,7.98,3.32,2.27,1,3.29,2.77,2.74,4.48-.53,1.64-2.51,2.5-4.9,1.83-1.54-.43-2.94-1.34-4.46-1.87-1.6-.56-3.25-1.25-4.9-1.31-2.72-.09-5.13,2.5-5.11,5.02.02,2.31,1.76,3.78,4.94,3.74,3.98-.04,7.6.71,11.14,2.73,4.41,2.52,8.42.5,9.25-4.5.84-5.11,2.93-9.39,6.77-12.87,2.17-1.97,3.11-4.55,3.14-7.48.02-1.57.01-3.14.19-4.7.41-3.51,1.92-4.97,5.41-5.46.45-.06.9-.11,1.36-.16,3.41-.38,5.15-1.88,5.21-5.34.14-8.34.03-16.68.02-25.02,0-.25-.05-.5-.09-.75-.37-2.03-1.45-3.21-3.02-3.29-1.56-.08-2.9.99-3.37,2.93-.31,1.26-.45,2.6-.47,3.9-.08,5.26-.03,10.52-.12,15.78-.07,3.92-1.4,5.58-5.01,6.56-5.31,1.43-7.03,3.69-7.09,9.21-.02,2.02.04,4.06-.19,6.06-.48,4.07-3.48,5.82-7.33,4.42-.76-.28-1.46-.69-2.2-1.02-1.65-.76-3.26-1.64-4.96-2.23-2.88-1-4.47-2.87-4.5-5.94-.07-7.38-.19-14.76-.14-22.14.02-3.02,1.18-5.73,3.23-8,.81-.9,1.69-1.74,2.52-2.63,5.05-5.39,2.85-14.84-4.07-17.38-3.81-1.4-7.39-.76-10.94,1.16-1.82.98-3.93,1.98-5.93,2.01-11.12.19-22.25.09-33.38.06-2.26,0-4.26-.85-5.86-2.48-2.06-2.09-4.05-4.24-6.11-6.33-1.77-1.8-3.38-3.9-5.46-5.23-3.89-2.49-8.11-4.4-11.86-7.22-2.48-1.86-5.43-.15-5.98,2.94-.78,4.4.85,6.71,5.26,7.21,3.06.34,5.86,1.29,8.17,3.31,2.73,2.4,5.45,4.84,7.94,7.48,3.15,3.34,3.1,6.82.09,10.3-1.29,1.49-2.69,2.88-4.09,4.27-7.06,7.03-14.12,14.06-21.19,21.08-1.5,1.5-3.24,2.72-5.36,2.96-4.73.54-9.45.72-14.15-.56-2.41-.66-4.94-1.04-7.44-1.19-3.53-.21-7.08.02-10.62-.14-1.42-.06-2.94-.42-4.19-1.07-2.37-1.25-3.04-5.08-1.54-7.54,1.28-2.1,3.67-2.49,6.22-.72,2.67,1.85,5.54,2.58,8.73,2.42,1.92-.09,3.84,0,5.76-.04,3.56-.06,7.05.26,10.49,1.33,1.37.42,2.89.52,4.34.51,2.68-.02,4.51-1.31,4.8-3.12.29-1.8-1-3.68-3.55-4.49-2-.63-4.13-1.08-6.21-1.15-4.75-.17-9.51-.03-14.26-.07-1.26-.01-2.54-.09-3.77-.34-3.09-.63-4.97-2.58-5.15-5.73-.2-3.48-.2-6.97-.06-10.45.12-2.94,1.8-4.51,4.75-4.69,2.12-.13,4.25-.02,6.37-.08,1.41-.04,2.84-.09,4.22-.35,2.3-.43,3.74-1.97,3.65-3.64-.09-1.65-1.54-2.99-3.95-3.02-5.71-.08-11.43-.06-17.13.15-3.06.12-4.59,1.88-4.93,4.97-.12,1.1-.17,2.22-.18,3.33-.05,3.74-.04,7.49-.1,11.23-.06,3.22-1.41,5.87-3.81,7.97-1.82,1.59-3.87,2.55-6.39,2.08-3.07-.58-6.14-1.13-9.22-1.64-3.28-.55-5.26-2.49-5.7-5.79-.19-1.4-.22-2.82-.3-4.24-.22-4.06-1.9-5.78-5.9-6.03v11.72c.14.35.26.71.37,1.09.35,1.3.44,2.69.52,4.05.26,4.45,2.04,6.25,6.54,6.42,1.97.07,3.94.04,5.92.06,1.16.01,2.33,0,3.49.05,3.68.19,6.13,2.12,7.47,5.49.41,1.03.67,2.12.9,3.21.87,4.08,1.91,5.1,6.12,5.28,3.74.16,7.49-.03,11.22.18,2.45.13,4.87.69,7.31,1.07,1.99.31,3.97.87,5.97.94,4.04.15,8.09.03,12.14.05,3.51.02,6.49-1.18,9.09-3.55,1.56-1.43,3.35-2.62,4.94-4.02,1.66-1.47,3.27-3,4.8-4.6,3.31-3.47,6.5-7.05,9.83-10.49,3.72-3.84,8.03-7.14,10.64-11.97,1.43-2.66,3.69-3.9,6.7-3.9,8.75,0,17.5-.08,26.25-.04,5.82.03,11.63.45,16.94-2.81,1.84-1.13,3.74-.56,4.82.79,1.12,1.4,1.12,3.78-.19,5.36-.8.96-1.78,1.79-2.79,2.54-2.49,1.86-3.78,4.28-3.81,7.39,0,.96-.02,1.92-.02,2.88-.02,7.59-.05,15.17-.05,22.76,0,3.5-1.49,6.01-4.73,7.43-.51.22-1,.49-1.49.74-4.21,2.09-7.15,5.12-8.03,9.97-.58,3.22-2.33,4.6-5.6,4.7-4.6.14-9.2.23-13.8.1-4.21-.12-8.02.57-11.24,3.52-1.94,1.77-4.35,2.49-6.98,2.5-2.02,0-4.04.11-6.07.14-3.01.04-5.42,1.24-7.5,3.42-1.67,1.75-3.56,3.29-5.36,4.91-3.11,2.8-6.27,5.56-9.34,8.42-1.98,1.84-2.9,4.22-2.94,6.93-.01.96-.09,1.92-.04,2.88.24,4.53-.97,8.46-4.39,11.64-2.88,2.68-3.9,6.12-3.86,10.02.08,7.18.02,14.36.03,21.55,0,3.44-.68,6.67-2.98,9.33-2.4,2.77-3.27,5.96-3.11,9.55.13,2.95-.55,5.72-2.06,8.28-1.34,2.28-1.92,4.76-1.9,7.4.02,2.43-.06,4.86-.02,7.28.05,3.28-.84,6.16-3.2,8.55-2.14,2.16-2.99,4.87-3.02,7.87-.03,2.98-.05,5.97-.06,8.95-.01,2.99-1.14,5.48-3.19,7.63-2.96,3.09-6.16,5.86-9.96,7.87-3.51,1.86-5.03,4.81-5.02,8.68,0,5.4-.45,10.84,1.51,16.06.09.23.11.49.14.74.45,3.34-1.18,5.62-4.48,6.25-.79.15-1.6.23-2.4.36-4.1.68-6.24,2.87-6.8,6.99-.12.9-.15,1.82-.15,2.72-.03,9.96-.1,19.93-.03,29.89.02,2.04.57,4.08.88,6.12.33,2.14.82,4.27.95,6.42.16,2.67.15,5.37,0,8.04-.26,4.17,1.18,7.45,4.36,10.16.71.6,1.3,1.35,1.86,2.12h9.61c-.11-.63-.31-1.28-.64-1.96Z"/>
  <path class="cls-1" d="M128.44,37.12c.32,1.1.43,2.28.47,3.44.09,2.53-.03,5.06.11,7.58.19,3.43,1.89,5.19,5.31,5.44,2.16.16,4.34.03,6.52.03,0,.09,0,.17.01.26,2.57-.2,5.16-.21,7.69-.64,3.24-.55,5.26-2.99,5.32-5.92.06-2.91-2.08-4.81-4.94-4.18-1.25.28-2.42.98-3.61,1.51-1.15.52-2.24,1.21-3.43,1.57-2.8.85-5.13-.57-5.65-3.43-.26-1.43-.21-2.92-.31-4.38-.12-1.66-.06-3.36-.4-4.97-1.05-5-4.6-7.27-9.59-6.33-2.73.51-5.48.94-8.2,1.47-1.03.2-2.09.45-3.03.9-1.48.72-2.27,1.99-2.17,3.69.1,1.75,1.06,2.92,2.62,3.59,1.63.69,3.28.54,4.86-.18,1.2-.54,2.33-1.22,3.54-1.73,2.26-.95,4.18-.08,4.88,2.28Z"/>
  <path class="cls-1" d="M290.08,50.25c-2.8.06-5.59.68-8.38,1.07-1.05.14-2.09.45-3.13.48-1.86.04-3.2-.93-3.78-2.7-.28-.85-.47-1.78-.48-2.67-.04-4.91-.07-9.81.04-14.72.03-1.22.4-2.51.92-3.63.75-1.61,2.65-2.38,4.35-2.07,1.57.28,2.61,1.37,2.85,3.3.19,1.55.18,3.12.22,4.69.05,2.32-.08,4.66.13,6.97.28,3.17,2.29,4.73,5.35,4.43,2.68-.26,4.33-2.4,4.09-5.37-.07-.85-.38-1.67-.52-2.52-.38-2.33-.84-4.66-1.05-7.01-.22-2.51-.04-5.06-.31-7.57-.32-2.97-2.14-4.74-5.1-4.86-3.43-.14-6.88-.06-10.31.11-3.15.16-5.33,1.95-6.39,4.83-.85,2.3-1.73,4.74-1.83,7.15-.26,6.41-.13,12.83-.12,19.25,0,2.4.92,4.51,2.65,6.1,2.72,2.5,3.57,5.57,3.53,9.15-.09,7.99-.04,15.98-.04,23.97,0,5.66.02,11.33,0,16.99-.02,3.25-.99,6.17-3.3,8.56-1.83,1.89-3.64,3.79-5.48,5.67-2.19,2.24-3.35,4.87-3.32,8.04.03,2.98-.02,5.97-.12,8.95-.13,3.65.87,7.03,2.51,10.2.72,1.39,1.75,2.89,3.04,3.68,3.48,2.13,7.13,4.01,10.8,5.79,1.88.91,3.92.74,5.51-.81,1.85-1.82,2.02-4.13,1.38-6.5-.59-2.14-2.29-2.97-4.35-3.19-1.66-.18-3.34-.2-4.97-.49-3.36-.6-5.51-2.78-6.05-6.15-.25-1.59-.06-3.24-.27-4.84-.86-6.71,1.63-11.96,6.87-16.02,4.07-3.16,5.62-7.39,5.35-12.41-.05-.86-.02-1.72-.01-2.58,0-12.64,0-25.29.04-37.93.02-5.89,1.6-7.45,7.52-7.45,3.94,0,7.89.2,11.83.09,1.85-.05,3.69-.18,5.54-.33v-8.76c-5.01,1.11-10.09.99-15.18,1.1Z"/>
  <path class="cls-1" d="M303.23,272.91c-.34-.29-.77-.48-1.17-.69-2.24-1.14-4.3-.94-5.75.54-1.41,1.44-1.66,3.89-.47,5.92,1.5,2.56,3.87,4.12,6.73,4.42.89.09,1.79.11,2.69.1v-8.95c-.7-.34-1.38-.78-2.03-1.34Z"/>
  <path class="cls-1" d="M299.25,308.14c.82,1.5,1.36,3.34,1.42,5.05.16,4.59,1.93,8.31,4.59,11.57v-35.87c-1.06-.93-2.6-1.3-4.23-.84-2.3.65-3.77,2.48-3.95,5.18-.12,1.76-.01,3.54-.07,5.3-.11,3.41.57,6.57,2.24,9.61Z"/>
  <path class="cls-1" d="M148.41,78.95c.15-2.06-.89-3.51-2.96-3.66-1.31-.09-2.67.34-4,.55-2.63.43-5.24,1.14-7.88,1.26-4.69.2-9.41.12-14.11.01-3.73-.08-6.8,1.17-9.33,3.91-3.13,3.4-6.6,6.41-10.47,8.95-3.37,2.21-5.06,5.34-5.29,9.39-.26,4.51-1.49,5.79-6.02,6.12-3.43.25-6.23,1.54-8.56,4-.73.77-1.53,1.47-2.28,2.23-2.59,2.61-5.67,3.93-9.4,3.84-3.69-.09-7.38-.05-11.07,0-2.75.04-5.31-.53-7.69-1.93-2.14-1.26-4.46-1.89-6.94-1.91-5.51-.05-11.02-.04-16.53-.17-4.18-.1-6.62-2.35-7.32-6.49-.13-.8-.18-1.61-.29-2.41-.5-3.7-2-5.14-5.77-5.3-2.78-.12-5.56-.04-8.34-.08-.52,0-2.24-.06-3.96-.11v7.38c2.57-.04,5.55-.07,6.52-.03,4.36.17,6.22,2,6.55,6.33.03.4.04.81.06,1.21.25,4.69,1.82,6.31,6.5,6.63,1.11.08,2.22.06,3.34.07,4.8.02,9.61.06,14.41.02,2.65-.02,5.11.54,7.37,1.95,2.16,1.35,4.55,1.97,7.07,1.98,6.42.03,12.85.01,19.27,0,3.44,0,6.27-1.36,8.56-3.91.74-.83,1.53-1.61,2.31-2.41,2.42-2.49,5.34-3.72,8.84-3.67,1.77.03,3.55-.03,5.3-.24,3.2-.38,4.77-2,5.08-5.24.2-2.06.19-4.14.29-6.21.14-2.9,1.29-5.26,4-6.48,3.74-1.68,6.77-4.18,9.39-7.26,1.59-1.87,3.68-2.84,6.12-2.92,2.17-.07,4.35-.02,6.52-.02,0-.03,0-.06,0-.08,2.02,0,4.05-.06,6.07.01,3.63.12,5.15,1.62,5.22,5.26.07,3.69.09,7.39-.03,11.07-.18,5.94-5.93,12.2-11.85,12.77-3.16.3-6.37.32-9.54.17-4.31-.21-8.08.86-11.35,3.73-1.65,1.45-3.65,2.16-5.84,2.25-2.07.09-4.14.13-6.22.16-2.62.04-5.06.69-7.01,2.46-3.55,3.23-7,6.56-10.45,9.88-2.5,2.41-4.87,4.95-7.42,7.32-2.73,2.54-5.65,4.88-8.39,7.42-2.02,1.88-2.9,4.34-2.95,7.09-.04,2.17-.07,4.35-.06,6.52.02,3.58-1.24,6.61-3.78,9.13-1.83,1.82-3.66,3.64-5.41,5.53-2.26,2.44-2.95,5.21-2.16,8.55.64,2.73.91,5.57,1.05,8.38.18,3.68-.05,7.39.09,11.07.15,4.12-.86,7.79-3.53,10.99-1.82,2.19-2.55,4.79-2.56,7.61,0,1.77-.06,3.54-.04,5.31.04,2.69-.56,5.23-1.91,7.56-1.44,2.48-1.99,5.16-1.99,8,0,1.52-.03,3.03-.09,4.55-.08,2.13-.76,4.07-2.09,5.75-.72.91-1.49,1.79-2.31,2.61-2.56,2.52-3.76,5.56-3.72,9.14.03,2.28.02,4.55-.05,6.83-.03.95-.15,1.93-.41,2.84-.57,2-2.09,3.1-4.01,3.05-1.84-.04-3.52-1.3-3.85-3.26-.21-1.25,0-2.6.19-3.88.18-1.29.69-2.55.81-3.84.17-1.86-.75-3.25-2.28-3.91-1.61-.69-3.64-.42-4.75.93-.7.86-1.3,1.98-1.47,3.07-.3,1.88-.17,3.83-.33,5.74-.37,4.61,1.82,7.93,5.25,10.66,3.39,2.69,7.1,2.73,10.88,1.19,3.82-1.55,6.66-4.11,7.04-8.52.2-2.36.26-4.75.16-7.12-.16-3.77.99-7.01,3.66-9.62,3.34-3.26,4.74-7.19,4.5-11.78-.04-.71.03-1.42.02-2.12-.06-2.75.58-5.32,1.96-7.69,1.41-2.43,1.98-5.07,2.01-7.85.02-2.02.03-4.05.08-6.07.07-2.44.7-4.77,2.32-6.61,2.97-3.38,3.83-7.29,3.75-11.66-.14-6.88.03-13.76-.06-20.63-.05-4.19,1.25-7.72,4.36-10.58.93-.85,1.73-1.85,2.62-2.74,2.11-2.12,3.11-4.67,3.12-7.65.01-2.43.1-4.85.15-7.28.07-3.32,1.53-5.91,4.14-7.89,1.61-1.22,3.31-2.35,4.77-3.74,4.69-4.46,9.32-8.98,13.91-13.55,2.73-2.72,5.92-4.14,9.78-4.1,1.62.02,3.24-.04,4.85-.04,2.89,0,5.52-.81,7.67-2.76,2.76-2.5,5.98-3.39,9.63-3.3,3.28.09,6.57.03,9.86-.03,2.73-.05,4.92-1.2,6.73-3.28,2.03-2.32,4.15-4.56,6.36-6.7,2.25-2.18,3.35-4.75,3.35-7.85,0-3.64.07-7.28-.02-10.92-.09-3.84.2-7.58,1.86-11.11.25-.53.35-1.17.39-1.76Z"/>
  <path class="cls-1" d="M4.93,13.71c.47,5.43.72,10.9-.69,16.29-.29,1.11-.41,2.3-.36,3.45.08,1.94,1.34,3.3,3.09,3.63,1.81.34,3.66-.48,4.38-2.22.47-1.14.73-2.43.76-3.67.1-4.7-.16-9.42.13-14.1.34-5.5-1.42-10.2-4.37-14.67C6.06-.35,3.65-1.85.36-1.97c-.06,0-.11,0-.17,0V6.15c2.71,1.36,4.44,4.01,4.74,7.56Z"/>
  <path class="cls-1" d="M.26,223.05c0-.73-.04-1.42-.07-2.09v14c0-.08,0-.16.01-.23.19-3.89.09-7.79.06-11.68Z"/>
  <path class="cls-1" d="M24.28,59.98c.01-2.77-1.23-4.87-3.24-6.73-2.25-2.08-4.41-4.27-6.41-6.59-2.02-2.36-4.4-3.66-7.49-4.1-2.05-.3-4.03-1.18-6.01-1.88-.33-.12-.64-.27-.96-.44v8.13c.46-.22,1-.33,1.56-.35,1.92-.06,3.41.89,4.72,2.11,2.52,2.34,5.01,4.7,7.43,7.14,3.8,3.82,4.16,6.67,1.67,11.46-.62,1.2-1.28,2.45-1.59,3.75-.73,3.06,1.1,5.3,4.24,5.4,3.33.11,5.62-1.76,5.93-5.17.21-2.3.04-4.64.04-6.96h.08c0-1.92,0-3.84,0-5.76Z"/>
  <path class="cls-1" d="M4.92,61.26c2.4-.93,2.75-3.66.67-5.19-.87-.64-2.03-.88-2.99-1.41-.81-.44-1.72-.84-2.41-1.41v8.45c1.54.32,3.14.18,4.73-.44Z"/>
  <path class="cls-1" d="M1.63,276.58c2.74-.74,6.4-2.39,6.54-5.14.16-3.07.11-6.16.07-9.24-.03-2.33-1.05-4.29-2.62-5.98-1.48-1.59-2.92-3.22-4.47-4.76-.37-.37-.69-.74-.97-1.13v26.69c.48-.15.96-.31,1.45-.45Z"/>
  <path class="cls-1" d="M117.51,44.5c-2.19-.27-4.07-1.14-5.64-2.69-2.73-2.7-5.41-5.45-8.18-8.1-1.34-1.29-2.76-2.54-4.3-3.56-2.29-1.53-4.87-1.94-7.53-1.07-1.77.58-2.91,2.11-2.94,3.84-.04,1.84.75,3.24,2.44,4,.68.31,1.44.52,2.18.6,3.11.34,5.59,1.8,7.78,3.98,3.29,3.27,6.7,6.44,10.09,9.61,1.77,1.65,3.89,2.51,6.35,2.54.79-.13,1.61-.17,2.38-.39,2.09-.6,3.3-2.2,3.29-4.19,0-1.95-1.17-3.45-3.25-4.06-.87-.25-1.77-.4-2.67-.51Z"/>
  <path class="cls-1" d="M2.39,215.19c1.36-.84,2.65-1.86,3.8-2.97,1.33-1.29,1.88-2.98,1.65-4.86-.3-2.4-2.39-3.57-4.55-2.54-.59.28-1.12.68-1.65,1.06-.49.36-.97.72-1.46,1.08v11.99c.11-1.51.6-2.78,2.21-3.76Z"/>
  <path class="cls-1" d="M4,192.06c.07-4.29.22-8.6-.01-12.88-.17-3.12-1.43-5.14-3.8-6.09v25.85c.19-.15.38-.3.57-.45,2.05-1.63,3.2-3.8,3.24-6.43Z"/>
  <path class="cls-1" d="M13.14,318.89c4.13-.47,6.9-3.94,7.17-8.08.17-2.72.3-13.24.23-15.77-.06-2.65-.98-4.95-3.14-6.62-2.28-1.75-4.55-3.53-6.9-5.19-2.12-1.5-4.42-1.73-6.7-.35-1.53.93-2.39,2.35-2.22,4.19.16,1.79,1.26,2.97,2.91,3.54,1.04.36,2.16.51,3.25.73,3.5.7,5.08,2.41,5.3,5.99.16,2.57.21,5.15.19,7.73-.04,5.57-1.95,7.34-7.53,7.1-.35-.01-.71-.03-1.06-.09-1.52-.23-2.9-.74-3.37-2.39-.48-1.67.45-2.81,1.67-3.76.68-.53,1.52-.87,2.12-1.46.88-.87,1.86-1.78,2.35-2.87,1.05-2.34-.67-4.87-3.24-4.91-.82-.01-1.79.15-2.45.59-.51.35-1.02.71-1.51,1.08v20.51c.1.02.2.04.3.05,4.13.63,8.48.46,12.66-.02Z"/>
  <path class="cls-1" d="M113.01,107.89c2.97-.55,5.96-1.06,8.96-1.42,6.13-.74,9.91-4.88,10.04-11.1-.14-.84-.19-1.71-.42-2.52-.52-1.85-1.93-3.06-3.65-3.15-1.9-.1-3.33.73-4.2,2.41-.32.62-.54,1.31-.72,1.98-1.11,4.13-2.27,5.04-6.57,5.25-1.76.09-3.55.14-5.26.53-2.88.64-4.52,3.02-3.96,5.36.54,2.28,2.71,3.22,5.78,2.66Z"/>
  <path class="cls-1" d="M10.75,255.02c3.52,2.46,10.89,2.32,14.25-.38,3.43-2.76,5.58-6.22,5.53-10.8-.02-2.12.03-4.25.06-6.37.03-2.23.63-4.28,1.83-6.17.59-.94,1.17-1.91,1.54-2.95.88-2.47-.43-4.61-2.99-5.11-3.95-.77-7.09,1.36-7.39,5.35-.29,3.82-.15,7.68-.24,11.52-.03,1.51-.01,3.05-.24,4.54-.43,2.84-2.2,4.42-4.59,4.32-2.31-.09-3.76-1.72-4.07-4.64-.1-.95-.14-1.92-.15-2.88-.02-2.93.06-5.87-.05-8.8-.15-3.91.79-7.39,3.48-10.34,1.82-2,2.57-4.43,2.57-7.11,0-3.69,0-7.38,0-11.08h.04c0-1.26-.01-2.53,0-3.79.05-4.96.11-9.9-1.52-14.71-.44-1.3-.36-2.8-.42-4.21-.1-2.53-.08-5.06-.17-7.58-.08-2.12-1.01-3.87-2.49-5.37-.81-.83-1.66-1.65-2.29-2.62-1.66-2.53-.64-5.24,2.24-6.11.67-.2,1.39-.33,2.09-.34,3.23-.06,6.47-.06,9.71-.11,2.07-.03,4.18.13,5.98-1.22,2.15-1.6,1.87-4.3-.64-5.26-1.01-.39-2.16-.55-3.26-.58-4.45-.09-8.9-.11-13.35-.13-4.57-.02-8.07,2.03-10.65,5.69-2.96,4.22-2.75,8.02.92,11.58,3.48,3.37,5.21,7.24,4.71,12.09-.1.95,0,1.92-.03,2.88-.08,3.61.29,7.15,1.35,10.64.48,1.57.65,3.28.69,4.94.1,3.89.04,7.79.03,11.68,0,3.07-.98,5.77-3.18,7.95-1.93,1.91-2.98,4.21-2.97,6.92.02,7.43.04,14.87.17,22.3.05,2.62,1.32,4.74,3.49,6.26Z"/>
  <path class="cls-1" d="M14.77,140.01c-.97.02-2.02.3-2.9.74-2.26,1.13-2.49,3.85-.46,5.32.7.51,1.65.87,2.51.93,1.96.14,3.93.04,5.9.04,0-.05,0-.1,0-.14,1.87,0,3.75.14,5.6-.03,2.58-.25,4.25-1.78,4.23-3.56-.02-1.84-1.67-3.14-4.41-3.23-3.48-.11-6.97-.12-10.46-.06Z"/>
  <path class="cls-1" d="M42.67,132.01c-.17-4.5-1.9-6.23-6.37-6.29-5.06-.07-10.11-.02-15.17-.05-2.43-.01-4.86.03-7.27-.18-3.54-.3-5.12-1.93-5.55-5.48-.17-1.4-.13-2.84-.38-4.22-.46-2.57-2.02-3.86-4.34-3.77-1.41.05-2.66.69-3.4,1.76v7.57c.09.36.19.71.3,1.06.55,1.81,1.66,3.46,2.51,5.18,1.7,3.42,4.46,5.12,8.27,5.13,2.98.01,5.97,0,8.95,0v.1c3.24,0,6.48-.11,9.71.03,3.88.16,5.43,1.85,5.56,5.72.02.61.06,1.22.02,1.82-.2,3.31.84,6.18,3.08,8.61,2.52,2.73,3.23,5.98,2.88,9.56-.35,3.67-2.16,5.45-5.85,5.67-1.61.09-3.25,0-4.85.18-3.5.41-5.28,2.63-5.03,6.14.05.65.13,1.32.35,1.93,1.22,3.39,1.53,6.9,1.43,10.46-.09,3.06.54,5.91,2.15,8.55,1.53,2.5,1.98,5.25,1.88,8.15-.1,2.71-.97,5.13-2.26,7.47-1.22,2.21-1.99,4.55-1.44,7.13.35,1.59,1.21,2.79,2.86,3.22,1.6.42,3.15.08,4.14-1.19.84-1.07,1.37-2.44,1.82-3.75,2.32-6.75,2.08-13.75,1.8-20.72-.07-1.61-.48-3.42-1.34-4.74-2.55-3.92-2.73-8.17-2.3-12.56.29-3,1.95-4.63,4.97-4.98,1.05-.12,2.12-.11,3.17-.25,3.49-.49,5.27-2.21,5.58-5.73.24-2.76.13-5.55.24-8.33.14-3.65-.79-6.86-3.36-9.58-1.92-2.03-2.7-4.58-2.69-7.38,0-2.07.03-4.15-.04-6.22Z"/>
  <path class="cls-1" d="M52.96,144.89c1.57.12,2.95-.96,3.58-2.91.31-.96.49-1.96.71-2.94.5-2.14,1.81-3.44,3.96-3.89,1.23-.26,2.49-.42,3.7-.75,2.04-.56,3.28-2.01,3.16-3.54-.13-1.55-1.54-2.77-3.7-2.95-1.65-.14-3.33-.15-4.99-.04-6.85.43-9.56,3.34-9.55,10.67.04.61.07,1.72.2,2.83.25,2.1,1.36,3.4,2.93,3.53Z"/>
  <path class="cls-1" d="M.19,134.78v18.85c5.53-6.11,5.46-12.94,0-18.85Z"/>
</svg>